<?xml version="1.0" encoding="UTF-8" standalone="no"?>
<!-- Created with Inkscape (http://www.inkscape.org/) -->

<svg
   xmlns:dc="http://purl.org/dc/elements/1.1/"
   xmlns:cc="http://creativecommons.org/ns#"
   xmlns:rdf="http://www.w3.org/1999/02/22-rdf-syntax-ns#"
   xmlns:svg="http://www.w3.org/2000/svg"
   xmlns="http://www.w3.org/2000/svg"
   xmlns:sodipodi="http://sodipodi.sourceforge.net/DTD/sodipodi-0.dtd"
   xmlns:inkscape="http://www.inkscape.org/namespaces/inkscape"
   width="48"
   height="48"
   id="svg2"
   version="1.1"
   inkscape:version="0.48.4 r9939"
   viewBox="0 0 47.999998 48.000001"
   sodipodi:docname="bitcoin-qt.svg">
  <defs
     id="defs4">
    <inkscape:path-effect
       effect="knot"
       id="path-effect3858"
       is_visible="true"
       interruption_width="3"
       prop_to_stroke_width="true"
       add_stroke_width="true"
       add_other_stroke_width="true"
       switcher_size="15"
       crossing_points_vector="" />
    <inkscape:path-effect
       effect="ruler"
       id="path-effect3856"
       is_visible="true"
       unit="px"
       mark_distance="20"
       mark_length="14"
       minor_mark_length="7"
       major_mark_steps="5"
       shift="0"
       offset="0"
       mark_dir="left"
       border_marks="both" />
    <inkscape:path-effect
       effect="sketch"
       id="path-effect3854"
       is_visible="true"
       nbiter_approxstrokes="5"
       strokelength="100"
       strokelength_rdm="0.3;1"
       strokeoverlap="0.3"
       strokeoverlap_rdm="0.3;1"
       ends_tolerance="0.1;1"
       parallel_offset="5;1"
       tremble_size="5;1"
       tremble_frequency="1"
       nbtangents="5"
       tgt_places_rdmness="1;1"
       tgtscale="10"
       tgtlength="100"
       tgtlength_rdm="0.3;1" />
    <inkscape:path-effect
       effect="envelope"
       id="path-effect3852"
       is_visible="true"
       yy="true"
       xx="true"
       bendpath1="m -41.735821,1014.9912 33.0248108,0"
       bendpath2="m -8.7110102,1014.9912 0,36.4712"
       bendpath3="m -41.735821,1051.4624 33.0248108,0"
       bendpath4="m -41.735821,1014.9912 0,36.4712" />
  </defs>
  <sodipodi:namedview
     id="base"
     pagecolor="#ffffff"
     bordercolor="#666666"
     borderopacity="1.0"
     inkscape:pageopacity="0.0"
     inkscape:pageshadow="2"
     inkscape:zoom="7.0813157"
     inkscape:cx="0.71676599"
     inkscape:cy="9.1096653"
     inkscape:document-units="px"
     inkscape:current-layer="layer1"
     showgrid="false"
     borderlayer="true"
     inkscape:showpageshadow="false"
     units="px"
     inkscape:window-width="1535"
     inkscape:window-height="876"
     inkscape:window-x="65"
     inkscape:window-y="24"
     inkscape:window-maximized="1">
    <sodipodi:guide
       position="9.0000004,39.000018"
       orientation="29.999999,0"
       id="guide3266" />
    <sodipodi:guide
       position="9.0000004,9.0000182"
       orientation="0,30"
       id="guide3268" />
    <sodipodi:guide
       position="39.000001,9.0000182"
       orientation="-29.999999,0"
       id="guide3270" />
    <sodipodi:guide
       position="39.000001,39.000018"
       orientation="0,-30"
       id="guide3272" />
    <sodipodi:guide
       position="4.0000005,44.000017"
       orientation="39.999999,0"
       id="guide3276" />
    <sodipodi:guide
       position="4.0000005,4.0000183"
       orientation="0,40"
       id="guide3278" />
    <sodipodi:guide
       position="44.000001,4.0000183"
       orientation="-39.999999,0"
       id="guide3280" />
    <sodipodi:guide
       position="44.000001,44.000017"
       orientation="0,-40"
       id="guide3282" />
    <sodipodi:guide
       position="15,33.000018"
       orientation="18,0"
       id="guide4157" />
    <sodipodi:guide
       position="15,15.000018"
       orientation="0,18.000001"
       id="guide4159" />
    <sodipodi:guide
       position="33.000001,15.000018"
       orientation="-18,0"
       id="guide4161" />
    <sodipodi:guide
       position="33.000001,33.000018"
       orientation="0,-18.000001"
       id="guide4163" />
  </sodipodi:namedview>
  <metadata
     id="metadata7">
    <rdf:RDF>
      <cc:Work
         rdf:about="">
        <dc:format>image/svg+xml</dc:format>
        <dc:type
           rdf:resource="http://purl.org/dc/dcmitype/StillImage" />
        <dc:title></dc:title>
      </cc:Work>
    </rdf:RDF>
  </metadata>
  <g
     inkscape:label="Capa 1"
     inkscape:groupmode="layer"
     id="layer1"
     transform="translate(0,-1004.3622)">
    <rect
       style="opacity:1;fill:#f29c33;fill-opacity:1;fill-rule:evenodd;stroke:none"
       id="rect3262"
       width="40"
       height="40"
       x="3.999999"
       y="1008.3622"
       ry="20" />
    <path
       style="fill:#1a1a1a;fill-opacity:1;fill-rule:evenodd;stroke:none"
       d="m 22.200554,1019.3622 0,2.3999 -0.0013,0 -2.399041,0 -2.400214,0 0,1.1998 2.400214,0 0,2.3602 c -3.6e-5,0.014 -0.0013,0.026 -0.0013,0.039 0,0.011 0.0013,0.015 0.0013,0.024 l 0,6.3044 c -1.8e-5,0.012 -0.0013,0.021 -0.0013,0.032 0,0.02 0.0013,0.037 0.0013,0.056 l 0,1.985 -2.400214,0 0,1.1998 2.400214,0 2.039244,0 0.360968,0 0,2.3999 1.200107,0 0,-2.3999 1.200106,0 0,2.3999 1.200106,0 0,-2.3999 1.559905,0 c 1.795119,0 3.23935,-1.4452 3.23935,-3.2398 0,-1.7216 -1.329025,-3.118 -3.021363,-3.2298 1.088667,-0.6176 1.821256,-1.7839 1.821256,-3.1298 0,-1.9938 -1.605119,-3.5991 -3.599148,-3.5997 l 0,-2.3998 -1.200106,0 0,2.3998 -1.200106,0 0,-2.3998 -1.200107,0 z m 1.648975,3.7497 1.500133,0 c 1.246612,0 2.250201,1.0035 2.250201,2.25 0,1.2464 -1.003589,2.2498 -2.250201,2.2498 l -1.500133,0 c -0.154627,0 -0.304334,-0.015 -0.45004,-0.046 l 0,-4.4082 c 0.145706,-0.031 0.295413,-0.046 0.45004,-0.046 z m -0.08906,6.4496 2.879554,0 c 1.196745,0 2.159956,0.9632 2.159956,2.1597 0,1.1966 -0.963211,2.1597 -2.159956,2.1597 l -2.879554,0 c -0.123543,0 -0.243202,-0.017 -0.360968,-0.037 l 0,-4.2469 c 0.117766,-0.021 0.237425,-0.037 0.360968,-0.037 z"
       id="rect3278"
       inkscape:connector-curvature="0" />
    <g
       id="g3816"
       transform="matrix(-0.78006917,0.62569328,-0.62569328,-0.78006917,601.79016,1854.3375)">
      <g
         id="g3840"
         transform="matrix(-0.6321245,0.77486683,-0.77486683,-0.6321245,759.55416,1705.2509)">
        <path
           inkscape:connector-curvature="0"
           style="fill:#f1921e;fill-opacity:1;fill-rule:evenodd;stroke:none"
           d="m -31.805902,1051.7072 c 7.068181,2.5699 15.260608,1.047 20.948039,-4.6404 5.6874306,-5.6874 7.2102465,-13.8799 4.6403879,-20.948 l -25.5884269,25.5884 z"
           id="path3017" />
        <path
           inkscape:connector-curvature="0"
           style="fill:#f29c33;fill-opacity:1;fill-rule:evenodd;stroke:none"
           d="M -28.75,44.28125 -6.21875,21.75 c -0.97026,-2.6687 -2.4776881,-5.19645 -4.625,-7.34375 -4.880813,-4.8807865 -11.626584,-6.7003851 -17.90625,-5.5 l 0,35.375 z"
           id="path3814"
           transform="translate(-1.5e-6,1004.3622)" />
        <path
           inkscape:connector-curvature="0"
           style="fill:#f4ac54;fill-opacity:1;fill-rule:evenodd;stroke:none"
           d="m -28.75,44.28125 0,-35.375 c -3.800533,0.7264881 -7.45232,2.546087 -10.40625,5.5 -7.834743,7.8348 -7.834743,20.4778 0,28.3125 2.147313,2.1473 4.675131,3.6547 7.34375,4.625 l 3.0625,-3.0625 z"
           id="rect3262-9"
           transform="translate(-1.5e-6,1004.3622)" />
      </g>
    </g>
    <path
       style="fill:#1a1a1a;fill-opacity:1;fill-rule:evenodd;stroke:none"
       d="m -26.824824,1023.9277 0,2.3999 -0.0013,0 -2.399041,0 -2.400214,0 0,1.1998 2.400214,0 0,2.3602 c -3.6e-5,0.014 -0.0013,0.026 -0.0013,0.039 0,0.011 0.0013,0.015 0.0013,0.024 l 0,6.3044 c -1.8e-5,0.012 -0.0013,0.021 -0.0013,0.032 0,0.02 0.0013,0.037 0.0013,0.056 l 0,1.985 -2.400214,0 0,1.1998 2.400214,0 2.039244,0 0.360968,0 0,2.3999 1.200107,0 0,-2.3999 1.200106,0 0,2.3999 1.200106,0 0,-2.3999 1.559905,0 c 1.795119,0 3.23935,-1.4452 3.23935,-3.2398 0,-1.7216 -1.329025,-3.118 -3.021363,-3.2298 1.088667,-0.6176 1.821256,-1.7839 1.821256,-3.1298 0,-1.9938 -1.605119,-3.5991 -3.599148,-3.5997 l 0,-2.3998 -1.200106,0 0,2.3998 -1.200106,0 0,-2.3998 -1.200107,0 z m 1.648975,3.7497 1.500133,0 c 1.246612,0 2.250201,1.0035 2.250201,2.25 0,1.2464 -1.003589,2.2498 -2.250201,2.2498 l -1.500133,0 c -0.154627,0 -0.304334,-0.015 -0.45004,-0.046 l 0,-4.4082 c 0.145706,-0.031 0.295413,-0.046 0.45004,-0.046 z m -0.08906,6.4496 2.879554,0 c 1.196745,0 2.159956,0.9632 2.159956,2.1597 0,1.1966 -0.963211,2.1597 -2.159956,2.1597 l -2.879554,0 c -0.123543,0 -0.243202,-0.017 -0.360968,-0.037 l 0,-4.2469 c 0.117766,-0.021 0.237425,-0.037 0.360968,-0.037 z"
       id="rect3278-5"
       inkscape:connector-curvature="0" />
    <path
       style="fill:none;stroke:#000000;stroke-width:0.7903775;stroke-opacity:1"
       d="m -27.734607,1020.6796 c -11.984195,9.2443 -18.349867,27.3018 -10.623427,30.0827 6.788423,3.8704 23.473194,-8.996 28.020846,-21.6613 4.852772,-11.7554 -1.782299,-17.23 -11.613765,-12.2969 -1.834546,0.9205 -3.341238,2.5581 -5.783654,3.8755 z"
       inkscape:connector-curvature="0"
       inkscape:path-effect="#path-effect3858"
       inkscape:original-d="m -27.734607,1020.6796 c -11.984195,9.2443 -18.349867,27.3018 -10.623427,30.0827 6.788423,3.8704 23.473194,-8.996 28.020846,-21.6613 4.852772,-11.7554 -1.782299,-17.23 -11.613765,-12.2969 -1.834546,0.9205 -3.780388,2.2034 -5.783654,3.8755 z"
       sodipodi:nodetypes="cccsc" />
  </g>
</svg>
