<?xml version="1.0" encoding="UTF-8" standalone="no"?>
<svg
   xmlns:dc="http://purl.org/dc/elements/1.1/"
   xmlns:cc="http://creativecommons.org/ns#"
   xmlns:rdf="http://www.w3.org/1999/02/22-rdf-syntax-ns#"
   xmlns:svg="http://www.w3.org/2000/svg"
   xmlns="http://www.w3.org/2000/svg"
   xmlns:sodipodi="http://sodipodi.sourceforge.net/DTD/sodipodi-0.dtd"
   xmlns:inkscape="http://www.inkscape.org/namespaces/inkscape"
   height="600"
   width="600"
   id="svg2"
   version="1.1"
   inkscape:version="0.48.4 r9939"
   sodipodi:docname="bitcoin.svg">
  <metadata
     id="metadata10">
    <rdf:RDF>
      <cc:Work
         rdf:about="">
        <dc:format>image/svg+xml</dc:format>
        <dc:type
           rdf:resource="http://purl.org/dc/dcmitype/StillImage" />
      </cc:Work>
    </rdf:RDF>
  </metadata>
  <defs
     id="defs8" />
  <sodipodi:namedview
     pagecolor="#ffffff"
     bordercolor="#666666"
     borderopacity="1"
     objecttolerance="10"
     gridtolerance="10"
     guidetolerance="10"
     inkscape:pageopacity="0"
     inkscape:pageshadow="2"
     inkscape:window-width="1313"
     inkscape:window-height="480"
     id="namedview6"
     showgrid="false"
     fit-margin-top="0"
     fit-margin-left="0"
     fit-margin-right="0"
     fit-margin-bottom="0"
     inkscape:zoom="0.236"
     inkscape:cx="500.50014"
     inkscape:cy="500.61414"
     inkscape:window-x="432"
     inkscape:window-y="156"
     inkscape:window-maximized="0"
     inkscape:current-layer="svg2" />
  <path
     d="M 9.3238959,227.48081 Q 29.101858,148.36896 84.540084,91.132738 139.97831,33.896518 216.69283,11.721228 q 76.71451,-22.17529 155.82636,-2.3973401 79.11185,19.7779701 136.34807,75.2162001 57.23622,55.438222 79.41151,132.152742 22.17529,76.71452 2.39733,155.82636 -19.77796,79.11185 -75.21619,136.34808 -55.43822,57.23622 -132.15275,79.41151 -76.71451,22.17528 -155.82635,2.39732 Q 148.36896,570.89814 91.132738,515.45991 33.896515,460.02169 11.721225,383.30717 -10.454065,306.59266 9.3238959,227.48081 z m 136.6477341,162.41902 43.15192,10.78798 q 4.19532,0.59933 11.98664,2.99666 7.79132,2.39733 11.38731,2.99666 l -13.78464,54.53923 32.96327,8.39065 13.18531,-53.9399 q 3.59599,1.19867 12.58597,3.29633 8.98999,2.09766 13.78464,3.29632 l -13.18531,53.9399 32.96328,7.79132 13.1853,-54.53923 q 28.76794,4.79466 51.24291,4.495 22.47495,-0.29968 39.55592,-12.28632 17.08096,-11.98664 25.47161,-36.55926 19.17863,-53.93989 -30.56594,-79.71118 35.95993,-7.79132 41.95325,-47.94657 7.79132,-51.54256 -65.92653,-75.51585 l 13.78463,-54.53923 -32.96327,-7.79132 -13.18531,52.74123 q -4.79465,-1.19866 -13.78463,-3.29633 -8.98998,-2.09766 -12.58598,-3.29633 l 13.18531,-52.74122 -32.96326,-8.39066 -13.18532,53.9399 q -8.98998,-1.19866 -20.97662,-4.79466 l -45.54925,-11.38731 -8.39065,35.3606 23.37395,5.39399 q 16.78131,4.19532 15.58265,19.17863 l -15.58265,61.73121 q 1.19867,0 3.596,1.19866 -0.59933,-0.59933 -1.798,-0.59933 -1.19866,0 -1.798,-0.59933 l -21.57595,86.30383 q -2.99667,10.78798 -14.98331,7.79132 l -23.97329,-5.99331 z M 255.64942,376.11519 273.62938,303.596 q 0.59933,0 11.68698,2.39733 11.08764,2.39732 16.7813,4.19532 5.69365,1.79799 16.7813,5.39399 11.08764,3.59599 17.08097,7.79132 5.99332,4.19533 12.58598,9.88898 6.59265,5.69365 8.69031,13.18531 2.09766,7.49165 -0.29967,16.48163 -1.79799,6.59265 -5.39398,11.38731 -3.596,4.79466 -8.98999,7.19199 -5.39399,2.39732 -11.08764,4.19532 -5.69366,1.79799 -13.78464,1.49833 -8.09099,-0.29967 -14.08431,-0.899 -5.99333,-0.59933 -14.38397,-2.39733 -8.39065,-1.79799 -12.88565,-2.69699 -4.49499,-0.899 -11.68697,-2.69699 -7.19199,-1.798 -8.98998,-2.39733 z M 282.02003,270.63273 298.202,204.70618 q 1.798,0.59934 7.49166,1.79801 5.69365,1.19866 9.88897,2.09765 4.19533,0.89901 10.78798,2.99667 6.59265,2.09766 11.38732,3.89565 4.79465,1.798 10.78798,5.09433 5.99331,3.29633 8.98997,6.59266 2.99667,3.29632 6.89232,8.09098 3.89566,4.79465 3.596,9.88898 -0.29967,5.09432 -0.899,11.68698 -1.798,7.79131 -6.29299,12.88563 -4.49499,5.09433 -11.38731,6.89232 -6.89232,1.79801 -13.48497,2.697 -6.59266,0.899 -15.8823,-0.59933 -9.28965,-1.49833 -14.38397,-2.39733 -5.09433,-0.899 -13.78465,-3.29633 -8.69032,-2.39732 -9.88898,-2.39732 z"
     id="path4"
     inkscape:connector-curvature="0"
     style="fill:#ff7f2a" />
</svg>
