<?xml version="1.0" encoding="UTF-8" standalone="no"?>
<!-- Created with Inkscape (http://www.inkscape.org/) -->

<svg
   xmlns:dc="http://purl.org/dc/elements/1.1/"
   xmlns:cc="http://creativecommons.org/ns#"
   xmlns:rdf="http://www.w3.org/1999/02/22-rdf-syntax-ns#"
   xmlns:svg="http://www.w3.org/2000/svg"
   xmlns="http://www.w3.org/2000/svg"
   xmlns:xlink="http://www.w3.org/1999/xlink"
   xmlns:sodipodi="http://sodipodi.sourceforge.net/DTD/sodipodi-0.dtd"
   xmlns:inkscape="http://www.inkscape.org/namespaces/inkscape"
   version="1.0"
   width="48"
   height="48"
   id="svg2408"
   inkscape:version="0.48.4 r9939"
   sodipodi:docname="googleplus.svg">
  <sodipodi:namedview
     pagecolor="#ffffff"
     bordercolor="#666666"
     borderopacity="1"
     objecttolerance="10"
     gridtolerance="10"
     guidetolerance="10"
     inkscape:pageopacity="0"
     inkscape:pageshadow="2"
     inkscape:window-width="1545"
     inkscape:window-height="876"
     id="namedview92"
     showgrid="false"
     inkscape:zoom="4.7561872"
     inkscape:cx="-8.6376895"
     inkscape:cy="5.0228185"
     inkscape:window-x="55"
     inkscape:window-y="24"
     inkscape:window-maximized="1"
     inkscape:current-layer="layer1" />
  <defs
     id="defs2410">
    <linearGradient
       id="linearGradient4384">
      <stop
         id="stop4386"
         style="stop-color:#ffffff;stop-opacity:1"
         offset="0" />
      <stop
         id="stop4388"
         style="stop-color:#ffffff;stop-opacity:0"
         offset="1" />
    </linearGradient>
    <linearGradient
       id="linearGradient4367">
      <stop
         id="stop4369"
         style="stop-color:#ffffff;stop-opacity:0.71755725"
         offset="0" />
      <stop
         id="stop4371"
         style="stop-color:#ffffff;stop-opacity:1"
         offset="1" />
    </linearGradient>
    <linearGradient
       x1="45.447727"
       y1="92.539597"
       x2="45.447727"
       y2="7.0165396"
       id="ButtonShadow"
       gradientUnits="userSpaceOnUse"
       gradientTransform="scale(1.0058652,0.994169)">
      <stop
         id="stop3750"
         style="stop-color:#000000;stop-opacity:1"
         offset="0" />
      <stop
         id="stop3752"
         style="stop-color:#000000;stop-opacity:0.58823532"
         offset="1" />
    </linearGradient>
    <linearGradient
       id="linearGradient3737">
      <stop
         id="stop3739"
         style="stop-color:#ffffff;stop-opacity:1"
         offset="0" />
      <stop
         id="stop3741"
         style="stop-color:#ffffff;stop-opacity:0"
         offset="1" />
    </linearGradient>
    <linearGradient
       id="linearGradient3700">
      <stop
         id="stop3702"
         style="stop-color:#2276c5;stop-opacity:1"
         offset="0" />
      <stop
         id="stop3704"
         style="stop-color:#68baf4;stop-opacity:1"
         offset="1" />
    </linearGradient>
    <filter
       color-interpolation-filters="sRGB"
       id="filter3174">
      <feGaussianBlur
         id="feGaussianBlur3176"
         stdDeviation="1.71" />
    </filter>
    <filter
       x="-0.192"
       y="-0.192"
       width="1.3839999"
       height="1.3839999"
       color-interpolation-filters="sRGB"
       id="filter3794">
      <feGaussianBlur
         id="feGaussianBlur3796"
         stdDeviation="5.28" />
    </filter>
    <linearGradient
       x1="48"
       y1="20.220806"
       x2="48"
       y2="138.66119"
       id="linearGradient3613"
       xlink:href="#linearGradient3737"
       gradientUnits="userSpaceOnUse" />
    <linearGradient
       x1="48"
       y1="90"
       x2="48"
       y2="5.9877172"
       id="linearGradient3617"
       xlink:href="#linearGradient3700"
       gradientUnits="userSpaceOnUse"
       gradientTransform="translate(-130,0)" />
    <linearGradient
       x1="45.447727"
       y1="92.539597"
       x2="45.447727"
       y2="7.0165396"
       id="ButtonShadow-0"
       gradientUnits="userSpaceOnUse"
       gradientTransform="matrix(1.0058652,0,0,0.994169,100,0)">
      <stop
         id="stop3750-8"
         style="stop-color:#000000;stop-opacity:1"
         offset="0" />
      <stop
         id="stop3752-5"
         style="stop-color:#000000;stop-opacity:0.58823532"
         offset="1" />
    </linearGradient>
    <linearGradient
       x1="32.251034"
       y1="6.1317081"
       x2="32.251034"
       y2="90.238609"
       id="linearGradient3780"
       xlink:href="#ButtonShadow-0"
       gradientUnits="userSpaceOnUse"
       gradientTransform="matrix(1.0238095,0,0,1.0119048,-1.1428571,-98.071429)" />
    <linearGradient
       x1="32.251034"
       y1="6.1317081"
       x2="32.251034"
       y2="90.238609"
       id="linearGradient3772"
       xlink:href="#ButtonShadow-0"
       gradientUnits="userSpaceOnUse"
       gradientTransform="matrix(1.0238095,0,0,1.0119048,-1.1428571,-98.071429)" />
    <linearGradient
       x1="32.251034"
       y1="6.1317081"
       x2="32.251034"
       y2="90.238609"
       id="linearGradient3725"
       xlink:href="#ButtonShadow-0"
       gradientUnits="userSpaceOnUse"
       gradientTransform="matrix(1.0238095,0,0,1.0119048,-1.1428571,-98.071429)" />
    <linearGradient
       x1="32.251034"
       y1="6.1317081"
       x2="32.251034"
       y2="90.238609"
       id="linearGradient3721"
       xlink:href="#ButtonShadow-0"
       gradientUnits="userSpaceOnUse"
       gradientTransform="translate(0,-97)" />
    <linearGradient
       x1="32.251034"
       y1="6.1317081"
       x2="32.251034"
       y2="90.238609"
       id="linearGradient3026"
       xlink:href="#ButtonShadow-0"
       gradientUnits="userSpaceOnUse"
       gradientTransform="matrix(1.0238095,0,0,1.0119048,-1.1428571,-98.071429)" />
    <clipPath
       id="clipPath4355">
      <rect
         width="84"
         height="80"
         rx="6"
         ry="6"
         x="6"
         y="6"
         id="rect4357"
         style="fill:#ffffff;fill-opacity:1;fill-rule:nonzero;stroke:none" />
    </clipPath>
    <radialGradient
       cx="48"
       cy="87.792389"
       r="42"
       fx="48"
       fy="87.792389"
       id="radialGradient4375"
       xlink:href="#linearGradient4367"
       gradientUnits="userSpaceOnUse"
       gradientTransform="matrix(1,-6.7114942e-8,8.4282233e-8,1.2557894,109.99999,-24.505592)" />
    <linearGradient
       x1="48"
       y1="88"
       x2="48"
       y2="-40"
       id="linearGradient4390"
       xlink:href="#linearGradient4384"
       gradientUnits="userSpaceOnUse"
       gradientTransform="matrix(1,0,0,-1,0,92)" />
    <linearGradient
       x1="48"
       y1="82"
       x2="112.12357"
       y2="82.454597"
       id="linearGradient4429"
       xlink:href="#linearGradient4384"
       gradientUnits="userSpaceOnUse"
       spreadMethod="reflect" />
    <linearGradient
       id="linearGradient3892">
      <stop
         id="stop3894"
         style="stop-color:#000000;stop-opacity:0.58823532"
         offset="0" />
      <stop
         id="stop3896"
         style="stop-color:#000000;stop-opacity:0.47058824"
         offset="0.11780351" />
      <stop
         id="stop3898"
         style="stop-color:#000000;stop-opacity:0.39215687"
         offset="0.23809524" />
      <stop
         id="stop3900"
         style="stop-color:#000000;stop-opacity:0.3137255"
         offset="1" />
    </linearGradient>
    <linearGradient
       x1="90"
       y1="88"
       x2="48"
       y2="88"
       id="linearGradient3228"
       xlink:href="#linearGradient3892"
       gradientUnits="userSpaceOnUse"
       spreadMethod="reflect" />
    <linearGradient
       id="linearGradient3700-0">
      <stop
         id="stop3702-4"
         style="stop-color:#1a1818;stop-opacity:1"
         offset="0" />
      <stop
         id="stop3704-8"
         style="stop-color:#403d3d;stop-opacity:1"
         offset="1" />
    </linearGradient>
    <clipPath
       id="clipPath3981">
      <rect
         width="96"
         height="82"
         x="0"
         y="34"
         id="rect3983"
         style="opacity:0.5;color:#000000;fill:#ff00ff;fill-opacity:1;fill-rule:nonzero;stroke:none;stroke-width:2;marker:none;visibility:visible;display:inline;overflow:visible;enable-background:accumulate" />
    </clipPath>
    <linearGradient
       x1="48"
       y1="90"
       x2="48"
       y2="5.9877172"
       id="linearGradient3076"
       xlink:href="#linearGradient3700-0"
       gradientUnits="userSpaceOnUse"
       gradientTransform="translate(0,20)" />
    <linearGradient
       x1="40"
       y1="6"
       x2="40"
       y2="14"
       id="linearGradient4000"
       xlink:href="#linearGradient3994"
       gradientUnits="userSpaceOnUse"
       gradientTransform="translate(-11.920458,31.083725)" />
    <linearGradient
       id="linearGradient3994">
      <stop
         id="stop3996"
         style="stop-color:#ffffff;stop-opacity:1"
         offset="0" />
      <stop
         id="stop3998"
         style="stop-color:#ffffff;stop-opacity:0"
         offset="1" />
    </linearGradient>
    <linearGradient
       x1="31"
       y1="16"
       x2="31"
       y2="18"
       id="linearGradient3887"
       xlink:href="#linearGradient3881"
       gradientUnits="userSpaceOnUse"
       gradientTransform="matrix(0.47618254,0,0,0.71427381,1.1531584,45.063688)" />
    <linearGradient
       id="linearGradient3881">
      <stop
         id="stop3883"
         style="stop-color:#000000;stop-opacity:1"
         offset="0" />
      <stop
         id="stop3885"
         style="stop-color:#000000;stop-opacity:0"
         offset="1" />
    </linearGradient>
  </defs>
  <metadata
     id="metadata2413">
    <rdf:RDF>
      <cc:Work
         rdf:about="">
        <dc:format>image/svg+xml</dc:format>
        <dc:type
           rdf:resource="http://purl.org/dc/dcmitype/StillImage" />
        <dc:title />
      </cc:Work>
    </rdf:RDF>
  </metadata>
  <g
     id="layer2"
     style="display:none"
     transform="translate(0,-48)">
    <rect
       width="86"
       height="85"
       rx="6"
       ry="6"
       x="5"
       y="7"
       id="rect3745"
       style="opacity:0.9;fill:url(#ButtonShadow);fill-opacity:1;fill-rule:nonzero;stroke:none;filter:url(#filter3174)" />
  </g>
  <g
     id="layer1"
     transform="translate(0,-48)">
    <rect
       width="84"
       height="84"
       rx="6.0999999"
       ry="6"
       x="6"
       y="26"
       transform="matrix(-0.47618254,0,0,-0.50454739,46.866682,108.88418)"
       clip-path="url(#clipPath3981)"
       id="rect2419-7"
       style="fill:#333333;fill-opacity:1;fill-rule:nonzero;stroke:none" />
    <path
       d="m 4.2088222,51.730243 c -0.2213856,0 -0.1985685,-0.01699 -0.1985685,-0.01699 l 0,4.778813 9.5236513,0 0,-4.761826 z"
       inkscape:connector-curvature="0"
       id="rect3822"
       style="fill:#d91f1c;fill-opacity:1;fill-rule:nonzero;stroke:none"
       sodipodi:nodetypes="cccccc" />
    <path
       style="fill:#4776ec;fill-opacity:1;fill-rule:nonzero;stroke:none"
       id="path3069"
       inkscape:connector-curvature="0"
       d="m 13.533905,51.730243 0,4.761826 10.476016,0 0,-4.761826 -10.476016,0 z" />
    <path
       d="m 24.009921,51.730243 0,4.761826 10.476016,0 0,-4.761826 -10.476016,0 z"
       inkscape:connector-curvature="0"
       id="path3831"
       style="fill:#22a938;fill-opacity:1;fill-rule:nonzero;stroke:none" />
    <path
       d="m 33.533572,51.730243 0,4.761826 10.476015,0 0,-4.761826 -10.476015,0 z"
       inkscape:connector-curvature="0"
       id="path3829"
       style="fill:#eeb91c;fill-opacity:1;fill-rule:nonzero;stroke:none" />
    <rect
       width="39.999332"
       height="1.4285476"
       x="4.0102539"
       y="56.492069"
       id="rect3879"
       style="opacity:0.1;color:#000000;fill:url(#linearGradient3887);fill-opacity:1;fill-rule:nonzero;stroke:none;stroke-width:2;marker:none;visibility:visible;display:inline;overflow:visible;enable-background:accumulate" />
    <path
       d="m 34.485937,51.730243 0,4.761826 9.52365,0 0,-1.90473 c 0,-1.582831 -1.274264,-2.857096 -2.857095,-2.857096 z"
       inkscape:connector-curvature="0"
       id="path3833"
       style="fill:#eeb91c;fill-opacity:1;fill-rule:nonzero;stroke:none" />
  </g>
  <g
     id="layer6"
     transform="matrix(0.47618254,0,0,0.47618254,1.1531584,0.87314785)">
    <path
       d="m 43.4375,28 c -3.400216,0 -7.660082,0.508004 -11.25,3.46875 -2.707528,2.329853 -4.031255,5.540854 -4.03125,8.4375 0,4.912071 3.791914,9.87501 10.46875,9.875 0.629457,0 1.307313,-0.06439 2,-0.125 -0.316164,0.755635 -0.624995,1.398734 -0.625,2.46875 0,1.951325 0.992606,3.147278 1.875,4.28125 -2.833995,0.189753 -8.12804,0.513748 -12.03125,2.90625 C 26.124494,61.51762 25,64.732231 25,67 c 0,4.661722 4.396932,8.99999 13.53125,9 10.835861,0 16.59375,-5.984759 16.59375,-11.90625 0,-4.346122 -2.541741,-6.482906 -5.3125,-8.8125 L 47.5625,53.5 c -0.692688,-0.568128 -1.656245,-1.301951 -1.65625,-2.6875 0,-1.386528 0.964967,-2.275167 1.78125,-3.09375 2.647168,-2.078064 5.28125,-4.275779 5.28125,-8.9375 l 0,-0.46875 -0.03125,-0.40625 -0.03125,-0.4375 -0.0625,-0.40625 -0.09375,-0.375 -0.0625,-0.375 -0.09375,-0.375 -0.125,-0.34375 -0.125,-0.34375 -0.125,-0.34375 -0.125,-0.3125 L 51.9375,34.28125 51.78125,34 51.625,33.71875 51.4375,33.4375 l -0.15625,-0.28125 -0.1875,-0.25 -0.1875,-0.25 L 50.75,32.4375 50.5625,32.21875 50.375,32 50.1875,31.8125 50,31.59375 49.8125,31.40625 49.625,31.25 49.4375,31.09375 49.28125,30.9375 49.09375,30.78125 48.9375,30.625 48.78125,30.5 48.65625,30.375 48.5,30.25 l 3.90625,0 4.03125,-2.25 -13,0 z M 66,28 l 0,8 -8,0 0,2 8,0 0,8 2,0 0,-8 8,0 0,-2 -8,0 0,-8 -2,0 z m -26.5,2.0625 c 5.231102,0 7.93751,7.059075 7.9375,11.59375 l 0,0.125 0,0.09375 0,0.125 -0.03125,0.125 0,0.125 0,0.125 0,0.15625 -0.03125,0.125 0,0.15625 -0.03125,0.125 0,0.15625 L 47.3125,43.25 47.28125,43.375 47.25,43.53125 47.21875,43.6875 47.1875,43.84375 47.15625,44 47.09375,44.15625 47.03125,44.3125 47,44.46875 46.9375,44.625 l -0.09375,0.15625 -0.0625,0.15625 -0.0625,0.15625 -0.09375,0.15625 -0.09375,0.15625 -0.09375,0.15625 -0.09375,0.125 -0.125,0.15625 L 46.125,46 l -0.15625,0.125 -0.125,0.15625 c -1.008855,1.007126 -2.706172,1.75 -4.28125,1.75 -5.417928,0 -7.875,-6.999387 -7.875,-11.21875 0,-1.638029 0.337034,-3.333817 1.40625,-4.65625 C 36.102607,30.895323 37.864554,30.0625 39.5,30.0625 z m 3.0625,28.125 0.0625,0 0.0625,0 0.0625,0 0.0625,0 0.03125,0 0.0625,0 0.03125,0 0.0625,0 0.0625,0 0.03125,0 0.09375,0 0.09375,0 0.0625,0 0.09375,0 0.0625,0 0.09375,0 0.09375,0 0.0625,0.03125 0.09375,0 0.09375,0 0.03125,0 0.0625,0.03125 c 4.788471,3.403095 6.874995,5.098247 6.875,8.3125 0,3.906077 -3.23386,6.78125 -9.28125,6.78125 -6.740081,0 -11.0625,-3.215772 -11.0625,-7.6875 0,-4.47432 4.018,-5.965758 5.40625,-6.46875 2.644298,-0.882682 6.027529,-1 6.59375,-1 z"
       inkscape:connector-curvature="0"
       id="path208"
       style="font-style:normal;font-variant:normal;font-weight:normal;font-stretch:normal;letter-spacing:normal;word-spacing:normal;text-anchor:start;fill:#ffffff;fill-opacity:1;fill-rule:nonzero;stroke:#0099ff;stroke-width:0;stroke-linecap:butt;stroke-linejoin:miter;stroke-miterlimit:10.43299961;stroke-opacity:1;stroke-dasharray:none;stroke-dashoffset:0;display:inline" />
  </g>
</svg>
