<?xml version="1.0" encoding="UTF-8" standalone="no"?>
<!-- Created with Inkscape (http://www.inkscape.org/) -->

<svg
   xmlns:dc="http://purl.org/dc/elements/1.1/"
   xmlns:cc="http://creativecommons.org/ns#"
   xmlns:rdf="http://www.w3.org/1999/02/22-rdf-syntax-ns#"
   xmlns:svg="http://www.w3.org/2000/svg"
   xmlns="http://www.w3.org/2000/svg"
   xmlns:xlink="http://www.w3.org/1999/xlink"
   xmlns:sodipodi="http://sodipodi.sourceforge.net/DTD/sodipodi-0.dtd"
   xmlns:inkscape="http://www.inkscape.org/namespaces/inkscape"
   width="48"
   height="48"
   id="svg2"
   version="1.1"
   inkscape:version="0.48.4 r9939"
   viewBox="0 0 13.546666 13.546668"
   sodipodi:docname="gparted2.svg">
  <defs
     id="defs4">
    <linearGradient
       inkscape:collect="always"
       xlink:href="#linearGradient4327"
       id="linearGradient3949"
       gradientUnits="userSpaceOnUse"
       gradientTransform="matrix(0.47619048,0,0,0.47619048,3.1428571,-92.857143)"
       x1="78.305771"
       y1="95.31144"
       x2="32"
       y2="-8" />
    <linearGradient
       id="linearGradient4327">
      <stop
         id="stop4329"
         style="stop-color:#f0f0f0;stop-opacity:1"
         offset="0" />
      <stop
         id="stop4331"
         style="stop-color:#b4b4b4;stop-opacity:1"
         offset="1" />
    </linearGradient>
    <clipPath
       id="clipPath3919-4">
      <rect
         width="84"
         height="76"
         rx="6.0999999"
         ry="6.0999999"
         x="6"
         y="-82"
         transform="scale(1,-1)"
         id="rect3921-3"
         style="fill:#ff00ff;fill-opacity:1;fill-rule:nonzero;stroke:none" />
    </clipPath>
    <filter
       x="-0.21600001"
       y="-0.27000001"
       width="1.432"
       height="1.54"
       color-interpolation-filters="sRGB"
       id="filter3927-5">
      <feGaussianBlur
         id="feGaussianBlur3929-0"
         stdDeviation="7.2000001" />
    </filter>
    <linearGradient
       x1="48"
       y1="20.220806"
       x2="48"
       y2="138.66119"
       id="linearGradient3613"
       xlink:href="#linearGradient3737"
       gradientUnits="userSpaceOnUse" />
    <linearGradient
       id="linearGradient3737">
      <stop
         id="stop3739"
         style="stop-color:#ffffff;stop-opacity:1"
         offset="0" />
      <stop
         id="stop3741"
         style="stop-color:#ffffff;stop-opacity:0"
         offset="1" />
    </linearGradient>
    <clipPath
       id="clipPath4355">
      <rect
         width="84"
         height="80"
         rx="6"
         ry="6"
         x="6"
         y="6"
         id="rect4357"
         style="fill:#ffffff;fill-opacity:1;fill-rule:nonzero;stroke:none" />
    </clipPath>
    <filter
       x="-0.192"
       y="-0.192"
       width="1.3839999"
       height="1.3839999"
       color-interpolation-filters="sRGB"
       id="filter3794">
      <feGaussianBlur
         id="feGaussianBlur3796"
         stdDeviation="5.28" />
    </filter>
    <filter
       x="-0.18514286"
       y="-0.19938461"
       width="1.3702857"
       height="1.3987693"
       color-interpolation-filters="sRGB"
       id="filter4030">
      <feGaussianBlur
         id="feGaussianBlur4032"
         stdDeviation="4.32" />
    </filter>
    <linearGradient
       id="linearGradient3767">
      <stop
         id="stop3769"
         style="stop-color:#4d4d4d;stop-opacity:0.70731705"
         offset="0" />
      <stop
         id="stop3771"
         style="stop-color:#4d4d4d;stop-opacity:0.3137255"
         offset="1" />
    </linearGradient>
    <clipPath
       id="clipPath3246">
      <path
         d="m 48,113.13559 c -16.512378,0 -29.898305,12.42979 -29.898305,27.76272 0,15.33292 13.385927,27.76271 29.898305,27.76271 16.512378,0 29.898306,-12.42979 29.898306,-27.76271 0,-15.33293 -13.385928,-27.76272 -29.898306,-27.76272 z m 0,17.85223 c 5.897278,0 10.677967,4.43444 10.677967,9.91049 0,5.47604 -4.780689,9.91048 -10.677967,9.91048 -5.897277,0 -10.677966,-4.43444 -10.677966,-9.91048 0,-5.47605 4.780689,-9.91049 10.677966,-9.91049 z"
         inkscape:connector-curvature="0"
         id="path3248"
         style="opacity:0.2;color:#000000;fill:#000000;fill-opacity:1;fill-rule:nonzero;stroke:none;stroke-width:1.5;marker:none;visibility:visible;display:inline;overflow:visible;enable-background:accumulate" />
    </clipPath>
    <clipPath
       id="clipPath3951">
      <path
         d="m -0.10698409,7.7588217 c -0.40836543,0.4083655 -0.40598863,1.0732351 0.01120624,1.49043 L 9.6984759,19.043505 c 0.4171951,0.417195 1.0820641,0.419572 1.4904301,0.01121 L 22.97787,7.2657472 C 23.386237,6.857381 23.383859,6.1925121 22.966664,5.7753173 L 13.17241,-4.0189365 c -0.417195,-0.4171949 -1.082063,-0.4195724 -1.49043,-0.011206 L -0.10698409,7.7588217 z"
         inkscape:connector-curvature="0"
         id="path3953"
         style="fill:#ffffff;fill-opacity:1;fill-rule:nonzero;stroke:none" />
    </clipPath>
    <linearGradient
       id="linearGradient3988">
      <stop
         id="stop3990"
         style="stop-color:#4d4d4d;stop-opacity:0.70731705"
         offset="0" />
      <stop
         id="stop3992"
         style="stop-color:#4d4d4d;stop-opacity:0.3137255"
         offset="1" />
    </linearGradient>
    <linearGradient
       inkscape:collect="always"
       xlink:href="#linearGradient3767"
       id="linearGradient3130"
       gradientUnits="userSpaceOnUse"
       gradientTransform="matrix(0.13439155,0,0,0.13439155,-27.053387,398.56575)"
       x1="56"
       y1="72"
       x2="56"
       y2="16" />
    <clipPath
       id="clipPath3246-5">
      <path
         d="m 48,113.13559 c -16.512378,0 -29.898305,12.42979 -29.898305,27.76272 0,15.33292 13.385927,27.76271 29.898305,27.76271 16.512378,0 29.898306,-12.42979 29.898306,-27.76271 0,-15.33293 -13.385928,-27.76272 -29.898306,-27.76272 z m 0,17.85223 c 5.897278,0 10.677967,4.43444 10.677967,9.91049 0,5.47604 -4.780689,9.91048 -10.677967,9.91048 -5.897277,0 -10.677966,-4.43444 -10.677966,-9.91048 0,-5.47605 4.780689,-9.91049 10.677966,-9.91049 z"
         inkscape:connector-curvature="0"
         id="path3248-2"
         style="opacity:0.2;color:#000000;fill:#000000;fill-opacity:1;fill-rule:nonzero;stroke:none;stroke-width:1.5;marker:none;visibility:visible;display:inline;overflow:visible;enable-background:accumulate" />
    </clipPath>
    <clipPath
       id="clipPath3951-2">
      <path
         d="m -0.10698409,7.7588217 c -0.40836543,0.4083655 -0.40598863,1.0732351 0.01120624,1.49043 L 9.6984759,19.043505 c 0.4171951,0.417195 1.0820641,0.419572 1.4904301,0.01121 L 22.97787,7.2657472 C 23.386237,6.857381 23.383859,6.1925121 22.966664,5.7753173 L 13.17241,-4.0189365 c -0.417195,-0.4171949 -1.082063,-0.4195724 -1.49043,-0.011206 L -0.10698409,7.7588217 z"
         inkscape:connector-curvature="0"
         id="path3953-2"
         style="fill:#ffffff;fill-opacity:1;fill-rule:nonzero;stroke:none" />
    </clipPath>
  </defs>
  <sodipodi:namedview
     id="base"
     pagecolor="#ffffff"
     bordercolor="#666666"
     borderopacity="1.0"
     inkscape:pageopacity="0"
     inkscape:pageshadow="2"
     inkscape:zoom="8.3688634"
     inkscape:cx="12.901244"
     inkscape:cy="25.802488"
     inkscape:document-units="px"
     inkscape:current-layer="layer1"
     showgrid="false"
     inkscape:showpageshadow="false"
     borderlayer="true"
     units="px"
     fit-margin-top="0"
     fit-margin-left="0"
     fit-margin-right="0"
     fit-margin-bottom="0"
     showguides="true"
     inkscape:window-width="1545"
     inkscape:window-height="876"
     inkscape:window-x="55"
     inkscape:window-y="24"
     inkscape:window-maximized="1">
    <sodipodi:guide
       position="-6.6748425e-06,47.999999"
       orientation="47.999977,0"
       id="guide4120" />
    <sodipodi:guide
       position="-6.6748425e-06,2.2810037e-05"
       orientation="0,48.000004"
       id="guide4122" />
    <sodipodi:guide
       position="47.999997,2.2810037e-05"
       orientation="-47.999977,0"
       id="guide4124" />
    <sodipodi:guide
       position="47.999997,47.999999"
       orientation="0,-48.000004"
       id="guide4126" />
    <sodipodi:guide
       position="3.9999733,44.000154"
       orientation="39.999962,0"
       id="guide4138" />
    <sodipodi:guide
       position="3.9999733,4.0001921"
       orientation="0,40.000003"
       id="guide4140" />
    <sodipodi:guide
       position="43.999976,4.0001921"
       orientation="-39.999962,0"
       id="guide4142" />
    <sodipodi:guide
       position="43.999976,44.000154"
       orientation="0,-40.000003"
       id="guide4144" />
    <sodipodi:guide
       position="6.9999922,47.999999"
       orientation="39.999962,0"
       id="guide4148" />
    <sodipodi:guide
       position="6.9999922,8.0000369"
       orientation="0,34.000006"
       id="guide4150" />
    <sodipodi:guide
       position="40.999998,8.0000369"
       orientation="-39.999962,0"
       id="guide4152" />
    <sodipodi:guide
       position="40.999998,47.999999"
       orientation="0,-34.000006"
       id="guide4154" />
    <sodipodi:guide
       position="14.999993,32.999986"
       orientation="17.999951,0"
       id="guide4158" />
    <sodipodi:guide
       position="14.999993,15.000036"
       orientation="0,17.999998"
       id="guide4160" />
    <sodipodi:guide
       position="32.999991,15.000036"
       orientation="-17.999951,0"
       id="guide4162" />
    <sodipodi:guide
       position="32.999991,32.999986"
       orientation="0,-17.999998"
       id="guide4164" />
    <sodipodi:guide
       position="1.9999969,44.000046"
       orientation="39.999962,0"
       id="guide3279" />
    <sodipodi:guide
       position="1.9999969,4.0000839"
       orientation="0,44.000003"
       id="guide3281" />
    <sodipodi:guide
       position="46,4.0000839"
       orientation="-39.999962,0"
       id="guide3283" />
    <sodipodi:guide
       position="46,44.000046"
       orientation="0,-44.000003"
       id="guide3285" />
  </sodipodi:namedview>
  <metadata
     id="metadata7">
    <rdf:RDF>
      <cc:Work
         rdf:about="">
        <dc:format>image/svg+xml</dc:format>
        <dc:type
           rdf:resource="http://purl.org/dc/dcmitype/StillImage" />
        <dc:title></dc:title>
      </cc:Work>
    </rdf:RDF>
  </metadata>
  <g
     inkscape:label="Capa 1"
     inkscape:groupmode="layer"
     id="layer1"
     transform="translate(38.119153,-397.84494)">
    <g
       id="layer1-2"
       style="fill:#4d4d4d;fill-opacity:1;display:inline"
       transform="matrix(0.23988891,0,0,0.28222225,-37.558863,384.8636)">
      <rect
         width="40"
         height="40"
         rx="0"
         ry="0"
         x="6"
         y="-90"
         transform="scale(1,-1)"
         id="rect2419"
         style="fill:#4d4d4d;fill-opacity:1;fill-rule:nonzero;stroke:none" />
    </g>
    <g
       id="g3111"
       transform="matrix(0.675,0,0,0.7223958,-17.44462,112.42999)">
      <g
         transform="translate(-15.994679,-1.1716543)"
         id="g4138">
        <path
           style="opacity:0.7;color:#000000;fill:#7f8c8d;fill-opacity:1;fill-rule:nonzero;stroke:none;stroke-width:1.5;marker:none;visibility:visible;display:inline;overflow:visible;enable-background:accumulate"
           id="path3235"
           inkscape:connector-curvature="0"
           d="m -4.6074601,402.15592 c -2.078227,0 -3.762963,1.5644 -3.762963,3.49418 0,1.92978 1.684736,3.49418 3.762963,3.49418 2.078227,0 3.76296302,-1.5644 3.76296302,-3.49418 0,-1.92978 -1.68473602,-3.49418 -3.76296302,-3.49418 z m 0,2.24686 c 0.742224,0 1.343916,0.55811 1.343916,1.24732 0,0.6892 -0.601692,1.24732 -1.343916,1.24732 -0.742224,0 -1.343916,-0.55812 -1.343916,-1.24732 0,-0.68921 0.601692,-1.24732 1.343916,-1.24732 z m 0,0.49976 c -0.445334,0 -0.806349,0.33403 -0.806349,0.74756 0,0.41352 0.361015,0.74755 0.806349,0.74755 0.445334,0 0.806349,-0.33403 0.806349,-0.74755 0,-0.41353 -0.361015,-0.74756 -0.806349,-0.74756 z" />
        <g
           id="g3286"
           clip-path="url(#clipPath3246-5)"
           transform="matrix(0.12585875,0,0,0.12585875,-10.64868,387.91681)">
          <g
             id="g4113">
            <path
               d="M 15.125,111 C 12.847444,111 11,112.8607 11,115.1875 l 0,54.625 C 11,172.1393 12.847444,174 15.125,174 l 65.75,0 C 83.15256,174 85,172.1393 85,169.8125 l 0,-54.625 C 85,112.8607 83.15256,111 80.875,111 l -65.75,0 z"
               inkscape:connector-curvature="0"
               id="rect3519"
               style="fill:#c0392b;fill-opacity:1;fill-rule:nonzero;stroke:none;display:inline" />
            <g
               transform="matrix(2.7886249,2.7886249,-2.7886249,2.7886249,37.059782,89.661895)"
               clip-path="url(#clipPath3951-2)"
               id="g3873"
               style="display:inline">
              <path
                 transform="matrix(0,0.89271578,-1.4444444,-2.2377086e-8,21.111111,-2.8198737)"
                 d="m 25.562305,7 a 14.562305,9 0 0 1 -1.950979,4.5 L 11,7 z"
                 id="path3841"
                 style="fill:#f1c40f;fill-opacity:1;stroke:none"
                 inkscape:connector-curvature="0" />
              <path
                 transform="matrix(0.77311454,-0.44635789,0.72222222,1.2509255,-2.5598151,3.1534579)"
                 d="M 25.562305,7 A 14.562305,9 0 0 1 14.769003,15.693332 L 11,7 z"
                 id="path3845"
                 style="fill:#3498db;fill-opacity:1;stroke:none"
                 inkscape:connector-curvature="0" />
              <path
                 transform="matrix(0.63124539,0.63124538,-1.0213764,1.0213764,11.205936,-7.0933343)"
                 d="m 25.562305,7 a 14.562305,9 0 0 1 -4.2652,6.363961 L 11,7 z"
                 id="path3847"
                 style="fill:#2ecc71;fill-opacity:1;stroke:none"
                 inkscape:connector-curvature="0" />
            </g>
          </g>
        </g>
      </g>
    </g>
  </g>
</svg>
