<?xml version="1.0" encoding="UTF-8" standalone="no"?>
<!-- Created with Inkscape (http://www.inkscape.org/) -->

<svg
   xmlns:dc="http://purl.org/dc/elements/1.1/"
   xmlns:cc="http://creativecommons.org/ns#"
   xmlns:rdf="http://www.w3.org/1999/02/22-rdf-syntax-ns#"
   xmlns:svg="http://www.w3.org/2000/svg"
   xmlns="http://www.w3.org/2000/svg"
   xmlns:sodipodi="http://sodipodi.sourceforge.net/DTD/sodipodi-0.dtd"
   xmlns:inkscape="http://www.inkscape.org/namespaces/inkscape"
   width="48"
   height="48"
   id="svg2"
   version="1.1"
   inkscape:version="0.48.5 r10040"
   viewBox="0 0 13.546666 13.546668"
   sodipodi:docname="keepassx02.svg">
  <defs
     id="defs4" />
  <sodipodi:namedview
     id="base"
     pagecolor="#ffffff"
     bordercolor="#666666"
     borderopacity="1.0"
     inkscape:pageopacity="0"
     inkscape:pageshadow="2"
     inkscape:zoom="7.9403586"
     inkscape:cx="9.5000437"
     inkscape:cy="21.274051"
     inkscape:document-units="px"
     inkscape:current-layer="layer1"
     showgrid="false"
     inkscape:showpageshadow="false"
     borderlayer="true"
     units="px"
     fit-margin-top="0"
     fit-margin-left="0"
     fit-margin-right="0"
     fit-margin-bottom="0"
     showguides="true"
     inkscape:window-width="1920"
     inkscape:window-height="1055"
     inkscape:window-x="0"
     inkscape:window-y="569"
     inkscape:window-maximized="1">
    <sodipodi:guide
       position="-6.6748425e-06,47.999999"
       orientation="47.999977,0"
       id="guide4120" />
    <sodipodi:guide
       position="47.999997,2.2810037e-05"
       orientation="-47.999977,0"
       id="guide4124" />
    <sodipodi:guide
       position="47.999997,47.999999"
       orientation="0,-48.000004"
       id="guide4126" />
    <sodipodi:guide
       position="3.9999733,44.000154"
       orientation="39.999962,0"
       id="guide4138" />
    <sodipodi:guide
       position="3.9999733,4.0001921"
       orientation="0,40.000003"
       id="guide4140" />
    <sodipodi:guide
       position="44.080033,34.526852"
       orientation="-39.999962,0"
       id="guide4142" />
    <sodipodi:guide
       position="43.999976,44.000154"
       orientation="0,-40.000003"
       id="guide4144" />
    <sodipodi:guide
       position="6.9999922,47.999999"
       orientation="39.999962,0"
       id="guide4148" />
    <sodipodi:guide
       position="6.9999922,8.0000369"
       orientation="0,34.000006"
       id="guide4150" />
    <sodipodi:guide
       position="40.999998,8.0000369"
       orientation="-39.999962,0"
       id="guide4152" />
    <sodipodi:guide
       position="40.999998,47.999999"
       orientation="0,-34.000006"
       id="guide4154" />
    <sodipodi:guide
       position="14.999993,32.999986"
       orientation="17.999951,0"
       id="guide4158" />
    <sodipodi:guide
       position="14.999993,15.000036"
       orientation="0,17.999998"
       id="guide4160" />
    <sodipodi:guide
       position="32.999991,15.000036"
       orientation="-17.999951,0"
       id="guide4162" />
    <sodipodi:guide
       position="44.080033,34.526852"
       orientation="0,-17.999998"
       id="guide4164" />
    <sodipodi:guide
       position="1.9999969,44.000046"
       orientation="39.999962,0"
       id="guide3279" />
    <sodipodi:guide
       position="1.9999969,4.0000839"
       orientation="0,44.000003"
       id="guide3281" />
    <sodipodi:guide
       position="46,4.0000839"
       orientation="-39.999962,0"
       id="guide3283" />
    <sodipodi:guide
       position="46,44.000046"
       orientation="0,-44.000003"
       id="guide3285" />
  </sodipodi:namedview>
  <metadata
     id="metadata7">
    <rdf:RDF>
      <cc:Work
         rdf:about="">
        <dc:format>image/svg+xml</dc:format>
        <dc:type
           rdf:resource="http://purl.org/dc/dcmitype/StillImage" />
        <dc:title></dc:title>
      </cc:Work>
    </rdf:RDF>
  </metadata>
  <g
     inkscape:label="Capa 1"
     inkscape:groupmode="layer"
     id="layer1"
     transform="translate(38.119153,-397.84494)">
    <path
       style="fill:#ffffff;stroke:none;fill-opacity:1"
       d="m -28.763347,398.8729 c -0.271333,-0.009 -0.544535,0.0268 -0.820208,0.097 -0.577711,0.14711 -1.08395,0.44958 -1.490487,0.89077 -0.390895,0.42422 -0.654053,0.92851 -0.78493,1.51694 -0.08691,0.39078 -0.101411,0.84584 -0.0441,1.23472 0.0051,0.0353 0.0034,0.0557 0,0.0617 -0.003,0.006 -0.08283,0.0919 -0.176389,0.18521 -0.142768,0.1424 -0.175799,0.16357 -0.185209,0.15875 -0.01291,-0.007 -0.287564,-0.29172 -1.005416,-1.02306 -0.711387,-0.72476 -1.57564,-1.59453 -1.684514,-1.70215 l -0.0882,-0.0882 -0.837847,0 -0.837848,0.009 0,0.1323 c 0,0.0735 -0.0032,0.31514 0,0.53798 0.0032,0.22283 0.01392,0.61085 0.01764,0.86431 0.0036,0.25345 0.0069,0.48961 0.0088,0.52034 l 0,0.0529 0.06174,0.0706 c 0.03441,0.0374 0.301227,0.322 0.590903,0.635 0.766597,0.82832 1.111761,1.20797 1.472847,1.61396 0.291493,0.32774 0.377487,0.42714 0.379236,0.44097 0.0013,0.01 -0.07726,0.0909 -0.335139,0.34396 -0.282075,0.2768 -0.9668,0.96307 -1.949097,1.95791 l -0.211667,0.22049 0,0.0441 c 0.0022,0.0229 0.0088,0.48342 0.0088,1.02305 l 0,0.97896 0.62618,0 c 0.605083,0.004 1.336023,-2e-5 1.419931,-0.009 0.03947,-0.004 0.04628,-0.004 0.07056,-0.0353 0.08692,-0.11196 0.236096,-0.2822 0.520347,-0.59972 0.179001,-0.19997 0.305782,-0.35587 0.396875,-0.46743 0.03334,-0.0408 0.0651,-0.0761 0.07056,-0.0794 0.0061,-0.004 0.242055,-0.008 0.608542,-0.009 l 0.590903,0 0,-0.0882 c -0.0019,-0.0463 -0.0053,-0.17909 -0.0088,-0.29986 -0.01066,-0.37637 -0.03797,-0.96057 -0.0441,-1.00542 -0.0056,-0.0408 0.0038,-0.0441 0.149931,-0.0441 l 0.123472,0 0.185208,0.19402 c 0.236423,0.24732 0.446953,0.47125 0.740834,0.78493 0.844773,0.90169 1.179853,1.25303 1.525764,1.60514 l 0.149931,0.14993 0.926041,0.009 c 0.510323,0.001 0.952793,-10e-4 0.978959,0 0.02815,9.1e-4 0.04172,0.004 0.0441,0 l 0,-0.009 c 0.0059,-0.01 0.01919,-0.37527 0.02646,-0.9525 0.0035,-0.27897 0.0068,-0.56897 0.0088,-0.64382 l 0,-0.13229 -0.0882,-0.097 c -0.715539,-0.77846 -1.122803,-1.22656 -1.905,-2.05493 -0.193683,-0.2051 -0.380276,-0.39369 -0.405694,-0.42333 -0.09546,-0.11136 -0.189181,-0.25267 -0.185209,-0.27341 0.0036,-0.0189 0.0503,-0.0348 0.149931,-0.0353 0.113996,-6.1e-4 0.164851,0.009 0.379236,0.0794 0.243447,0.0796 0.329115,0.10021 0.467431,0.097 0.03572,-8.4e-4 0.123355,0.004 0.194027,0.009 0.374075,0.0239 0.789411,-0.0476 1.172987,-0.20284 0.407473,-0.16498 0.758455,-0.40677 1.075972,-0.73202 0.208709,-0.21379 0.357745,-0.41146 0.502708,-0.67028 0.120749,-0.21558 0.18756,-0.37923 0.291042,-0.72319 0.133937,-0.44521 0.164135,-0.88464 0.09701,-1.34056 -0.137296,-0.93251 -0.670154,-1.79336 -1.419931,-2.28423 -0.230301,-0.15079 -0.430489,-0.24638 -0.723194,-0.34396 -0.261304,-0.0871 -0.531237,-0.1414 -0.80257,-0.14993 z m -0.03528,0.60854 c 0.199883,0.0121 0.402341,0.0549 0.599723,0.12347 0.46497,0.16171 0.875699,0.46788 1.164166,0.85549 0.06028,0.0809 0.16709,0.24661 0.220487,0.34396 0.146326,0.26677 0.246698,0.57969 0.291041,0.91722 0.0169,0.1286 0.02862,0.42613 0.01764,0.56444 -0.03881,0.48854 -0.19335,0.94704 -0.449792,1.33174 -0.229946,0.34496 -0.50683,0.58917 -0.908402,0.81139 -0.32531,0.18001 -0.746462,0.27061 -1.137709,0.24694 -0.231417,-0.014 -0.432712,-0.0535 -0.643819,-0.12347 -0.173854,-0.0576 -0.322658,-0.12571 -0.467431,-0.21167 -0.03433,-0.0204 -0.06944,-0.0353 -0.07056,-0.0353 -0.0011,0 -0.02311,0.0252 -0.05292,0.0617 -0.08511,0.10442 -0.15315,0.18115 -0.396875,0.44098 -0.206722,0.22038 -0.326841,0.3694 -0.423334,0.51152 l -0.06174,0.0794 0.01764,0.0353 c 0.01102,0.0349 0.04382,0.066 2.337153,2.33715 l 0.502709,0.50271 0,0.0794 c -8.8e-4,0.0425 -0.0031,0.16824 0,0.28222 0.0049,0.18529 0.0097,0.21557 0,0.27341 -0.01318,0.0787 -0.03818,0.13518 -0.05292,0.14993 -0.01385,0.0139 -0.111558,0.0275 -0.3175,0.0353 -0.160831,0.006 -0.179855,0.007 -0.388056,0 -0.198329,-0.006 -0.188825,-0.009 -0.238125,-0.0441 -0.115696,-0.0819 -0.215602,-0.1859 -0.379236,-0.37042 -0.05581,-0.063 -0.14257,-0.14798 -0.185208,-0.19403 -0.04264,-0.0461 -0.142236,-0.15163 -0.220486,-0.23812 -0.218722,-0.24176 -0.367477,-0.39963 -0.899584,-0.9525 -0.398752,-0.4143 -0.539873,-0.5715 -0.696736,-0.74083 -0.07075,-0.0764 -0.135412,-0.13729 -0.141111,-0.14112 -0.0242,-0.0163 -0.771281,0.0121 -1.067153,0.0441 l -0.03528,0.009 -0.0088,0.23813 c -0.002,0.12929 5e-4,0.41343 0,0.635 -6.75e-4,0.31392 -0.0027,0.40076 -0.0088,0.40569 -0.0089,0.007 -0.07092,0.0132 -0.335139,0.0353 -0.366702,0.0305 -0.549577,0.062 -0.723194,0.11465 -0.04935,0.015 -0.04668,0.0167 -0.09701,0.0706 -0.02834,0.0303 -0.135804,0.14035 -0.238125,0.24694 -0.102321,0.10658 -0.31362,0.33059 -0.467431,0.49389 -0.153811,0.16331 -0.282408,0.30188 -0.291041,0.30868 -0.01534,0.0121 -0.03349,0.0158 -0.493889,0.0176 -0.259163,10e-4 -0.486013,-0.005 -0.511528,-0.009 l -0.05292,0 0.0088,-0.0794 c 0.0011,-0.0408 -0.0034,-0.13717 -0.0088,-0.22048 -0.01988,-0.31053 -0.0083,-0.43568 0.05292,-0.56445 0.02859,-0.0602 0.05913,-0.0908 0.194028,-0.22048 0.224949,-0.21622 0.613644,-0.61771 1.181805,-1.21709 0.496258,-0.52353 0.495799,-0.52821 0.881945,-0.92604 0.151342,-0.15593 0.367696,-0.37098 0.485069,-0.48507 0.117373,-0.11412 0.210561,-0.21574 0.211667,-0.22048 0.002,-0.008 -0.05201,-0.0774 -0.255764,-0.29986 -0.368937,-0.40277 -0.619183,-0.6624 -1.525764,-1.57868 -0.602021,-0.60847 -0.73383,-0.74042 -0.978958,-0.9966 -0.14475,-0.15126 -0.174241,-0.18201 -0.194028,-0.22049 -0.05903,-0.11484 -0.07988,-0.28816 -0.06174,-0.55562 0.0037,-0.0545 0.0082,-0.15956 0.0088,-0.22931 5.7e-4,-0.0697 0.006,-0.12804 0.0088,-0.13229 0.0038,-0.006 0.100912,-0.009 0.449791,-0.009 l 0.440973,0 0.732014,0.74965 c 0.402344,0.4108 0.785005,0.79255 0.846666,0.85549 0.29015,0.29616 0.755742,0.78891 1.031875,1.08479 0.210585,0.22564 0.261445,0.27788 0.343959,0.34396 0.08514,0.0681 0.09063,0.0657 0.114653,0.0353 0.06149,-0.0776 0.188101,-0.22949 0.352777,-0.41452 0.279555,-0.31413 0.4157,-0.47597 0.529167,-0.64382 l 0.03528,-0.0529 -0.05292,-0.27341 c -0.08271,-0.4154 -0.09674,-0.52639 -0.09701,-0.72319 -1.97e-4,-0.14759 0.01357,-0.25138 0.0441,-0.37042 0.01173,-0.046 0.02131,-0.10502 0.02646,-0.13229 0.118834,-0.62696 0.505869,-1.22571 1.023056,-1.59632 0.268822,-0.19263 0.518667,-0.30366 0.899583,-0.39687 0.18543,-0.0454 0.382201,-0.0651 0.582083,-0.0529 z m 0.520348,1.17299 c -0.121195,0.0103 -0.241721,0.0611 -0.361598,0.14111 -0.05806,0.0388 -0.160107,0.1316 -0.202847,0.19403 -0.06685,0.0976 -0.113799,0.21581 -0.141111,0.34395 -0.02,0.0938 -0.01976,0.26447 0,0.35278 0.01969,0.0879 0.03555,0.13047 0.07056,0.20285 0.05072,0.1049 0.137704,0.20237 0.229305,0.26458 0.02054,0.0139 0.0481,0.0447 0.07056,0.0617 0.02246,0.017 0.07458,0.0377 0.105833,0.0529 0.124724,0.0603 0.241727,0.0792 0.388056,0.0529 0.145747,-0.026 0.29555,-0.10851 0.414514,-0.22048 0.114714,-0.10801 0.190284,-0.2366 0.229305,-0.38806 0.03693,-0.14334 0.0416,-0.24447 0.01764,-0.3616 -0.03615,-0.17673 -0.113484,-0.32553 -0.246944,-0.45861 -0.173833,-0.17336 -0.371273,-0.25522 -0.573264,-0.23812 z"
       id="rect3034"
       inkscape:connector-curvature="0"
       sodipodi:nodetypes="csscccccsccccssccccsscscccsccccccccccccsccsccccccccccccccccccsccccccccccsccscsccscsccccccccccccccssccccccccccccccccccccsccccscccccscccscccccccccsccccccccccscccssccc" />
    <g
       id="g3948"
       transform="translate(37.290718,-12.417779)">
      <path
         id="rect4122"
         transform="matrix(0.28222225,0,0,0.28222225,-38.119154,397.84494)"
         d="M 24,4 C 16.520992,4 10.5,10.020877 10.5,17.5 l 0,26.5 3,0 0,-26.5 C 13.5,11.682877 18.182967,7 24,7 c 5.817033,0 10.5,4.682877 10.5,10.5 l 0,26.5 3,0 0,-26.5 C 37.5,10.020877 31.479008,4 24,4 z"
         style="fill:#bdc3c7;fill-opacity:1;stroke:none"
         inkscape:connector-curvature="0" />
      <rect
         transform="scale(1,-1)"
         y="-410.2627"
         x="-36.1436"
         height="5.6444449"
         width="9.5955591"
         id="rect4118"
         style="fill:#f1c40f;fill-opacity:1;stroke:none" />
      <path
         id="path4135"
         transform="matrix(0.28222225,0,0,0.28222225,-38.119154,397.84494)"
         d="m 24,28 a 2.5,2.5 0 0 0 -2.5,2.5 2.5,2.5 0 0 0 1.5,2.289062 L 23,40 l 2,0 0,-7.210938 A 2.5,2.5 0 0 0 26.5,30.5 2.5,2.5 0 0 0 24,28 z"
         style="fill:#2c3e50;fill-opacity:1;stroke:none"
         inkscape:connector-curvature="0" />
    </g>
    <path
       inkscape:connector-curvature="0"
       id="path3028"
       d="m 6.4194283,423.53113 c -0.201337,-0.20674 -0.857166,-0.89783 -1.078055,-1.13602 -0.07641,-0.0824 -0.155117,-0.16608 -0.174901,-0.18597 -0.01978,-0.0199 -0.07539,-0.078 -0.123577,-0.12914 -0.04818,-0.0511 -0.158766,-0.16784 -0.245741,-0.25933 l -0.158136,-0.16634 -0.0017,0.0191 c -0.0018,0.0198 0.01802,0.70329 0.02195,0.7576 0.004,0.0551 0.07584,0.0493 -0.60724,0.0493 l -0.59956,0 -0.01575,0.0168 c -0.02302,0.0245 -0.641193,0.73111 -0.753619,0.86139 -0.05271,0.0611 -0.09994,0.11446 -0.104943,0.11861 -0.01357,0.0112 -0.483164,0.0163 -1.296881,0.0139 -0.55135695,-0.002 -0.69327995,-0.003 -0.79294895,-0.0103 -0.148895,-0.0103 -0.23762,-0.0183 -0.243511,-0.0219 -0.0025,-0.002 -0.0044,-0.47516 -0.0044,-1.06096 l 0,-1.0582 0.02434,-0.0302 c 0.03973,-0.0493 0.1744,-0.20458 0.252033,-0.29068 0.190909,-0.21171 0.340149,-0.36475 0.93736295,-0.96121 0.63863,-0.63782 0.775206,-0.77722 0.774979,-0.79098 -7.3e-5,-0.004 -0.01665,-0.0257 -0.03686,-0.0485 -0.215227,-0.24208 -0.327541,-0.36454 -0.724712,-0.7902 -0.336526,-0.36066 -0.48454095,-0.52152 -0.62509195,-0.67936 -0.218927,-0.24586 -0.436719,-0.50567 -0.559851,-0.66787 l -0.04222,-0.0556 0.0013,-1.08344 0.0013,-1.08344 0.204049,-0.004 c 0.112226,-0.002 0.551577,-0.009 0.97633395,-0.0146 l 0.772286,-0.011 0.185968,0.18808 c 0.102283,0.10345 0.405644,0.41003 0.674136,0.6813 0.454528,0.45924 0.843552,0.85692 1.069358,1.09317 0.06456,0.0675 0.09629,0.0973 0.09905,0.093 0.0022,-0.004 0.0041,-0.0297 0.0041,-0.0581 9.1e-5,-0.0599 0.01212,-0.22714 0.02357,-0.32803 0.0516,-0.45453 0.188143,-0.89794 0.383963,-1.24692 0.09988,-0.17799 0.243217,-0.37911 0.383354,-0.53786 0.06874,-0.0779 0.226435,-0.232 0.303017,-0.29618 0.437812,-0.36686 0.951241,-0.59901 1.522641,-0.68847 0.06622,-0.0104 0.09622,-0.0115 0.355436,-0.0136 0.24403,-0.002 0.285392,-0.001 0.299615,0.005 0.0091,0.004 0.03045,0.009 0.0475,0.0113 0.04223,0.005 0.165421,0.0303 0.253124,0.0523 0.753435,0.18847 1.42668,0.66572 1.85669,1.31618 0.07637,0.11552 0.164695,0.26966 0.197168,0.34408 0.3398657,0.77888 0.3730627,1.69414 0.08924,2.46033 -0.157172,0.42429 -0.421786,0.83361 -0.733546,1.13468 -0.476556,0.46021 -1.092783,0.74981 -1.753077,0.82385 -0.07216,0.008 -0.23517,0.0179 -0.331587,0.0199 l -0.05522,10e-4 0.15479,0.16272 c 0.08513,0.0895 0.18437,0.19471 0.220523,0.2338 0.03615,0.0391 0.123878,0.13324 0.194946,0.20922 0.07107,0.076 0.292072,0.31248 0.491122,0.52557 0.19905,0.21309 0.399652,0.42695 0.445782,0.47525 l 0.08387,0.0878 -0.0031,0.29445 c -0.0017,0.16195 -0.0053,0.45485 -0.0079,0.65089 -0.0026,0.19604 -0.0064,0.50948 -0.0083,0.69653 -0.003,0.28278 -0.0048,0.34133 -0.01087,0.3474 -0.0062,0.006 -0.145202,0.007 -0.956151,0.007 -0.521865,0 -1.006603,0.002 -1.077195,0.003 l -0.12835,0.003 -0.04987,-0.0512 z m 1.824604,-0.50192 c 0.0047,-0.14251 0.0081,-0.34284 0.0137,-0.79682 0.0027,-0.22303 0.0064,-0.43922 0.0082,-0.48043 l 0.0032,-0.0749 -0.123102,-0.1343 c -0.456934,-0.49851 -0.965209,-1.04353 -1.580225,-1.69448 -0.147742,-0.15638 -0.286256,-0.30517 -0.30781,-0.33066 -0.07488,-0.0885 -0.154528,-0.20237 -0.154528,-0.22084 0,-0.0141 0.0479,-0.0218 0.131727,-0.0213 0.09568,5.8e-4 0.125578,0.007 0.307032,0.0665 0.140236,0.0459 0.19413,0.061 0.248291,0.0695 0.04709,0.007 0.235986,0.013 0.433926,0.0129 0.176721,-1.3e-4 0.247549,-0.006 0.395183,-0.0335 0.556919,-0.10319 1.102295,-0.42656 1.485866,-0.881 0.233929,-0.27716 0.412602,-0.60449 0.507226,-0.92924 0.0099,-0.0341 0.02657,-0.0899 0.03698,-0.12398 0.106997,-0.35059 0.132249,-0.74108 0.07266,-1.12366 -0.129608,-0.83217 -0.629745,-1.5774 -1.3227,-1.97089 -0.223791,-0.12707 -0.516078,-0.23456 -0.771474,-0.28371 -0.274334,-0.0528 -0.577925,-0.0546 -0.862821,-0.005 -0.445954,0.0774 -0.850324,0.26434 -1.199141,0.55441 -0.08123,0.0675 -0.269375,0.25702 -0.338427,0.34082 -0.351636,0.42671 -0.556806,0.93673 -0.615462,1.52993 -0.01084,0.10968 -0.01234,0.38609 -0.0026,0.48817 0.0066,0.07 0.01966,0.17866 0.02494,0.20835 0.003,0.0168 -3.02e-4,0.0206 -0.14082,0.16143 -0.07913,0.0793 -0.146575,0.14422 -0.149867,0.14422 -0.0058,0 -0.331302,-0.32844 -0.929329,-0.93759 -0.524429,-0.53419 -0.886627,-0.90228 -1.141015,-1.15956 l -0.252668,-0.25554 -0.703058,0.002 c -0.38668195,8.5e-4 -0.70503695,0.003 -0.70745595,0.006 -0.0052,0.005 0.01106,1.3216 0.02035,1.65095 l 0.0032,0.11404 0.04692,0.0513 c 0.02581,0.0282 0.24484,0.26512 0.48674195,0.52651 0.775151,0.8376 1.092514,1.1866 1.450573,1.59517 0.07704,0.0879 0.110988,0.13026 0.108239,0.13504 -0.0022,0.004 -0.148131,0.14871 -0.324284,0.32195 -0.176154,0.17324 -0.477168,0.47394 -0.668922,0.66823 -0.191753,0.19429 -0.515461,0.52082 -0.719351,0.72561 l -0.37070895,0.37235 0.0013,0.86227 0.0013,0.86228 0.80586295,-6e-5 c 0.443225,0 0.837472,-0.002 0.876105,-0.004 l 0.07024,-0.004 0.04452,-0.0558 c 0.06739,-0.0845 0.156098,-0.1875 0.313219,-0.3638 0.253543,-0.28448 0.315717,-0.35542 0.387183,-0.44179 0.03865,-0.0467 0.07881,-0.0944 0.08926,-0.1059 l 0.019,-0.021 0.500163,-0.003 0.500164,-0.003 -0.0014,-0.0594 c -0.0082,-0.34731 -0.03273,-1.01509 -0.04015,-1.09296 -0.0022,-0.0227 -0.0011,-0.0329 0.0038,-0.0368 0.0066,-0.005 0.202211,-0.0131 0.213951,-0.009 0.0108,0.004 0.382794,0.39611 0.952702,1.00391 0.570007,0.60791 0.777705,0.82627 1.079815,1.13525 l 0.142687,0.14593 0.818934,0 0.818934,0 0.0032,-0.0969 z m -1.181789,-0.46174 c -0.183553,-0.005 -0.171598,-0.002 -0.248048,-0.0596 -0.0666,-0.0501 -0.164955,-0.14729 -0.2866,-0.28318 -0.0585,-0.0653 -0.12506,-0.13857 -0.147913,-0.16272 -0.02285,-0.0242 -0.08326,-0.0904 -0.134234,-0.14723 -0.17048,-0.19003 -0.339419,-0.36982 -0.686786,-0.73088 -0.473487,-0.49215 -0.567897,-0.59117 -0.725,-0.76039 -0.04921,-0.053 -0.09238,-0.0975 -0.09592,-0.0988 -0.02013,-0.008 -0.464165,0.0126 -0.718619,0.0329 -0.188853,0.0151 -0.198341,0.0161 -0.204135,0.0231 -0.0035,0.004 -0.0064,0.18652 -0.0086,0.53399 -0.0025,0.403 -0.0048,0.52885 -0.0096,0.53281 -0.0034,0.003 -0.07337,0.0109 -0.155414,0.018 -0.414913,0.0356 -0.531611,0.0517 -0.694157,0.0959 l -0.05941,0.0161 -0.08189,0.0831 c -0.08351,0.0847 -0.289533,0.3009 -0.621417,0.65201 l -0.185552,0.1963 -0.06182,0.003 c -0.08317,0.004 -0.741456,0.004 -0.777282,1.9e-4 l -0.02841,-0.003 0.0016,-0.0594 c 9e-4,-0.0327 -0.002,-0.11632 -0.0065,-0.18589 -0.01715,-0.26803 -0.007,-0.36598 0.04954,-0.47583 0.02433,-0.0473 0.04882,-0.0767 0.110254,-0.1322 0.110341,-0.0997 0.536744,-0.53758 1.020281,-1.04768 0.573289,-0.60478 0.784241,-0.82251 1.09274,-1.12788 l 0.250641,-0.24809 -0.01692,-0.0197 c -0.03613,-0.0421 -0.202321,-0.22576 -0.293338,-0.32414 -0.263344,-0.28462 -0.474662,-0.50245 -1.12039,-1.15492 -0.452037,-0.45676 -0.790487,-0.8032 -0.971471,-0.99442 -0.06747,-0.0713 -0.07633,-0.0855 -0.100327,-0.16152 -0.02976,-0.0942 -0.03473,-0.19952 -0.02094,-0.44326 0.0047,-0.0838 0.0067,-0.16565 0.0047,-0.19532 -0.0027,-0.04 -0.002,-0.052 0.0035,-0.0555 0.0038,-0.002 0.171876,-0.004 0.373488,-0.004 l 0.366568,-8e-5 0.07026,0.071 c 0.105287,0.10645 1.034914,1.05627 1.242504,1.2695 0.339282,0.3485 0.670316,0.69471 0.949663,0.99319 0.06186,0.0661 0.130861,0.13638 0.153337,0.15619 0.0517,0.0456 0.115652,0.093 0.125375,0.093 0.0041,0 0.03471,-0.0328 0.06801,-0.073 0.05733,-0.0691 0.118203,-0.13884 0.330891,-0.37901 0.168336,-0.19008 0.282916,-0.33313 0.362082,-0.45203 l 0.03475,-0.0522 -0.04751,-0.24122 c -0.07083,-0.35966 -0.08118,-0.44378 -0.07711,-0.62702 0.0027,-0.12303 0.01202,-0.19387 0.03745,-0.28575 0.0071,-0.0256 0.01997,-0.0811 0.02865,-0.12339 0.06237,-0.30387 0.198088,-0.6015 0.391313,-0.85811 0.249005,-0.33069 0.582688,-0.57681 0.951531,-0.70184 0.05898,-0.02 0.110492,-0.0346 0.229878,-0.0652 0.45802,-0.11742 0.972881,-0.0246 1.423174,0.25654 0.237556,0.14832 0.448226,0.35122 0.602455,0.58024 0.216982,0.3222 0.330525,0.62614 0.377273,1.00991 0.01341,0.11008 0.01345,0.41084 7.3e-5,0.51916 -0.04766,0.38586 -0.164019,0.71526 -0.358161,1.01394 -0.134431,0.20681 -0.311193,0.39232 -0.505215,0.53021 -0.08251,0.0586 -0.225551,0.14474 -0.312982,0.1884 -0.382704,0.19109 -0.834855,0.23314 -1.286138,0.1196 -0.184615,-0.0464 -0.388226,-0.13003 -0.540871,-0.22203 -0.02621,-0.0158 -0.04966,-0.0287 -0.05211,-0.0287 -0.0025,0 -0.01843,0.018 -0.03552,0.04 -0.04608,0.0594 -0.139986,0.16534 -0.25954,0.29279 -0.166562,0.17757 -0.239897,0.25838 -0.30191,0.33269 -0.06117,0.0733 -0.139567,0.17856 -0.168284,0.22594 l -0.01742,0.0287 0.0087,0.0275 c 0.0083,0.0264 0.03341,0.0521 0.61944,0.63387 0.567053,0.56297 1.710661,1.69565 1.739022,1.72241 0.01231,0.0116 0.01248,0.0131 0.01545,0.13737 0.0052,0.2176 0.0036,0.39114 -0.0038,0.42523 -0.01143,0.0522 -0.02658,0.0999 -0.0341,0.10745 -0.0187,0.0187 -0.310951,0.0307 -0.573226,0.0236 z m 0.741218,-5.64559 c 0.127844,-0.0261 0.24606,-0.0887 0.344017,-0.18237 0.08698,-0.0832 0.144052,-0.17144 0.179404,-0.27752 0.07441,-0.22329 0.04667,-0.42644 -0.08541,-0.62541 -0.04065,-0.0612 -0.145618,-0.16721 -0.203365,-0.20532 -0.159382,-0.10518 -0.331721,-0.1351 -0.490065,-0.0851 -0.219706,0.0694 -0.377432,0.22819 -0.45273,0.45575 -0.02815,0.0851 -0.03784,0.14736 -0.03787,0.24331 -5.5e-5,0.14932 0.03441,0.2703 0.109556,0.38475 0.02965,0.0452 0.09388,0.11276 0.135609,0.14271 0.01739,0.0125 0.05053,0.0366 0.07365,0.0537 0.07056,0.052 0.137639,0.0827 0.215009,0.0982 0.05336,0.0107 0.1526,0.009 0.212193,-0.003 z"
       style="fill:#a0a39f" />
    <g
       transform="matrix(1.1974389,0,0,1.1974389,-27.387378,-76.192114)"
       id="g3979">
      <g
         id="g3981">
        <path
           inkscape:connector-curvature="0"
           id="path3983"
           d="m -1.5945565,406.6612 c -0.03258,-0.0348 -0.112121,-0.12256 -0.176759,-0.19501 -0.1470411,-0.16481 -0.1653861,-0.18437 -0.1804431,-0.1924 -0.0067,-0.004 -0.04782,-0.0437 -0.09142,-0.0892 -0.567035,-0.59209 -0.8582561,-0.89963 -1.1225201,-1.18543 -0.05648,-0.0611 -0.104346,-0.11174 -0.106364,-0.11257 -0.007,-0.003 -0.05096,0.0901 -0.06413,0.13555 -0.02023,0.0698 -0.02794,0.14902 -0.03372,0.34637 -0.0052,0.17922 -0.01083,0.2423 -0.02246,0.25406 -0.0046,0.005 -0.07473,0.005 -0.295313,0.002 -0.159106,-0.003 -0.414975,-0.005 -0.568599,-0.005 l -0.279313,-2.2e-4 -0.0513,0.0456 c -0.09322,0.0829 -0.188782,0.18905 -0.3610991,0.40125 -0.234829,0.28917 -0.370223,0.42863 -0.5063916,0.52157 l -0.04133,0.0282 -0.167888,0.006 c -0.259651,0.009 -1.243584,0.0124 -1.5264922,0.006 -0.32153,-0.008 -0.510319,-0.0157 -0.516235,-0.0215 -0.0027,-0.003 -0.0081,-0.0948 -0.01202,-0.20498 -0.004,-0.11015 -0.008,-0.2028 -0.0089,-0.2059 -0.0011,-0.004 -0.03496,-0.007 -0.09482,-0.009 -0.0936,-0.004 -0.28186,-0.0161 -0.32757,-0.0218 l -0.02454,-0.003 0,-1.06839 c 0,-1.0502 1.83e-4,-1.0686 0.01003,-1.08046 0.17031,-0.20476 0.373164,-0.42915 0.601639,-0.66553 0.04806,-0.0497 0.363294,-0.36587 0.7005272,-0.70255 0.337231,-0.33668 0.626493,-0.62777 0.642804,-0.64686 l 0.02965,-0.0347 -0.01076,-0.0137 c -0.05138,-0.0653 -0.337188,-0.37823 -0.7262,-0.79507 -0.3571952,-0.38275 -0.4419212,-0.47452 -0.5866342,-0.63539 -0.242247,-0.26931 -0.474108,-0.54412 -0.626432,-0.74248 l -0.03463,-0.0451 0,-1.08622 c 0,-0.59742 0.0018,-1.08879 0.0039,-1.09194 0.0027,-0.004 0.09427,-0.007 0.305995,-0.009 0.166209,-0.002 0.604216,-0.008 0.9733492,-0.0134 0.369134,-0.005 0.673716,-0.008 0.676849,-0.006 0.0031,0.002 0.117219,0.11667 0.253525,0.25483 0.136306,0.13816 0.446584,0.45209 0.6895056,0.69763 0.4034711,0.4078 0.7893481,0.80263 0.9912001,1.01417 0.04338,0.0455 0.08102,0.0834 0.08366,0.0844 0.0027,9.6e-4 0.0048,-0.0151 0.0048,-0.0362 0,-0.0948 0.01853,-0.31074 0.03914,-0.45622 0.0916,-0.64663 0.328477,-1.18247 0.728218,-1.64732 0.459173,-0.53396 1.1223711,-0.90024 1.8310352,-1.01128 0.07161,-0.0112 0.08809,-0.0117 0.37452,-0.0116 0.33054204,1.8e-4 0.32827704,0 0.4959841,0.0359 0.554005,0.11858 1.07397496,0.39127 1.49791896,0.78558 0.23404634,0.21768 0.43933134,0.48072 0.59921534,0.7678 0.0235,0.0422 0.02855,0.0476 0.0772,0.0834 0.145306,0.10687 0.260516,0.25051 0.358501,0.44695 0.07789,0.15614 0.118954,0.2701 0.228224,0.63327 0.03676,0.12217 0.07504,0.24641 0.08507,0.27609 l 0.01824,0.054 0,0.34478 c 0,0.19354 -0.002,0.34603 -0.0046,0.34761 -0.0025,0.002 -0.0061,0.0185 -0.0081,0.0378 -0.0059,0.0587 -0.02336,0.17018 -0.03976,0.25449 -0.158738,0.81601 -0.593607,1.52597 -1.20852604,1.97301 -0.08361,0.0608 -0.2381553,0.15936 -0.3351093,0.21374 -0.31930996,0.17912 -0.72916296,0.29343 -1.32133706,0.36853 -0.06322,0.008 -0.11490696,0.0158 -0.11486896,0.0172 5.5e-5,10e-4 0.03531,0.0398 0.07838,0.0853 0.04307,0.0455 0.24115606,0.257 0.44018406,0.47009 0.199028,0.21309 0.421259,0.4502 0.493847,0.52691 0.28892196,0.30534 0.42604396,0.46676 0.50427796,0.59365 l 0.02523,0.0409 -2.53e-4,0.46533 c -1.46e-4,0.25593 -0.003,0.56297 -0.0064,0.6823 -0.0034,0.11933 -0.0077,0.35004 -0.0096,0.5127 l -0.0035,0.29574 -1.08356696,0 -1.0835661,0 -0.05924,-0.0633 z m 1.4145971,-0.84614 c 0.0049,-0.008 0.01167,-0.31066 0.01774,-0.79271 0.0029,-0.23297 0.0067,-0.47473 0.0084,-0.53724 l 0.0031,-0.11364 -0.0736,-0.0801 c -0.59755806,-0.6501 -0.9443861,-1.02218 -1.597611,-1.71396 -0.1617482,-0.17129 -0.3114532,-0.33169 -0.3326802,-0.35644 -0.07972,-0.093 -0.163966,-0.21454 -0.160649,-0.23186 0.003,-0.0158 0.04505,-0.0238 0.128248,-0.0242 0.0952,-5.1e-4 0.137268,0.008 0.3163042,0.067 0.2033069,0.0665 0.2758999,0.081 0.3914099,0.0783 0.02983,-7e-4 0.102528,0.002 0.161547,0.006 0.312396,0.02 0.6607711,-0.0405 0.9811011,-0.17016 0.340288,-0.13778 0.63267596,-0.33549 0.89783896,-0.60711 0.174295,-0.17854 0.3003333,-0.34697 0.4213943,-0.56311 0.10083904,-0.18004 0.15548204,-0.3164 0.24190104,-0.60365 0.111854,-0.3718 0.139173,-0.74024 0.08312,-1.12098 -0.114658,-0.77876 -0.56193614,-1.49646 -1.1880861,-1.9064 -0.192328,-0.12592 -0.362539,-0.20674 -0.606981,-0.28823 -0.43643816,-0.14548 -0.8943792,-0.1599 -1.3548181,-0.0426 -0.4824552,0.12286 -0.9065702,0.37637 -1.2460753,0.74482 -0.326444,0.35427 -0.54391,0.77633 -0.653208,1.26774 -0.07258,0.32634 -0.08688,0.70276 -0.03902,1.02752 0.0043,0.0295 0.0054,0.0518 0.0026,0.0568 -0.0025,0.005 -0.06851,0.072 -0.146644,0.14992 -0.119228,0.11892 -0.143565,0.14092 -0.151423,0.13689 -0.01078,-0.006 -0.246745,-0.24383 -0.8462351,-0.85458 -0.5940906,-0.60526 -1.3098346,-1.33157 -1.4007566,-1.42144 l -0.07664,-0.0757 -0.7012572,0.003 -0.701255,0.003 0,0.11159 c 0,0.0614 0.0023,0.26385 0.005,0.44995 0.0027,0.18609 0.0073,0.51154 0.01037,0.72321 0.003,0.21166 0.0068,0.40584 0.0084,0.4315 l 0.0029,0.0467 0.05225,0.0567 c 0.02874,0.0312 0.250177,0.27052 0.49209,0.53191 0.6401972,0.69174 0.9255362,1.00406 1.2270852,1.34311 0.24343,0.2737 0.317276,0.35972 0.318737,0.37127 0.0011,0.008 -0.06226,0.0734 -0.277615,0.28478 -0.235565,0.23116 -0.809327,0.80822 -1.6296582,1.63903 l -0.179975,0.18228 0.0033,0.0347 c 0.0018,0.0191 0.0033,0.4034 0.0033,0.85405 l 0,0.81935 0.525621,0.003 c 0.5053142,0.003 1.1193502,-0.002 1.1894232,-0.009 0.03296,-0.003 0.03396,-0.004 0.05424,-0.03 0.07259,-0.0935 0.196541,-0.23693 0.433924,-0.5021 0.149486,-0.16699 0.2596526,-0.29405 0.3357256,-0.38721 0.02784,-0.0341 0.05435,-0.0642 0.05891,-0.067 0.0051,-0.003 0.199775,-0.006 0.5058341,-0.007 l 0.497541,-0.002 -0.003,-0.0704 c -0.0016,-0.0387 -0.0053,-0.15295 -0.0082,-0.25381 -0.0089,-0.31431 -0.02825,-0.80032 -0.03337,-0.83778 -0.0047,-0.0341 -8.47e-4,-0.0352 0.121176,-0.0352 l 0.107532,0 0.154323,0.16143 c 0.197439,0.20654 0.368635,0.38764 0.614059,0.6496 0.7054831,0.75302 0.9866151,1.04906 1.2754911,1.34311 l 0.1243362,0.12656 0.7748679,0.003 c 0.4261782,10e-4 0.7927472,0.003 0.8145992,0.004 0.02351,7.6e-4 0.0411,-9.6e-4 0.04308,-0.004 z m -1.1857031,-0.54777 c -0.165628,-0.005 -0.158703,-0.004 -0.199874,-0.0334 -0.09662,-0.0684 -0.185363,-0.15297 -0.3220169,-0.30707 -0.04661,-0.0526 -0.1138842,-0.12703 -0.1494922,-0.16549 -0.03561,-0.0385 -0.118208,-0.12901 -0.183556,-0.20124 -0.182658,-0.2019 -0.307351,-0.33387 -0.7517221,-0.79558 -0.333004,-0.34599 -0.454478,-0.47359 -0.585477,-0.615 -0.05908,-0.0638 -0.11131,-0.11858 -0.116069,-0.12178 -0.02021,-0.0136 -0.642331,0.0168 -0.889418,0.0435 l -0.03358,0.004 -0.0031,0.1963 c -0.0017,0.10797 -0.0035,0.3477 -0.0039,0.53274 -5.64e-4,0.26216 -0.0021,0.3376 -0.0072,0.34172 -0.0074,0.006 -0.05701,0.0114 -0.277662,0.0298 -0.3062391,0.0255 -0.4576931,0.0489 -0.6026827,0.0929 -0.04121,0.0125 -0.0432,0.0139 -0.08524,0.0589 -0.02367,0.0253 -0.112956,0.11887 -0.198406,0.20789 -0.08545,0.089 -0.26046,0.27342 -0.38891,0.4098 -0.12845,0.13638 -0.239444,0.25261 -0.246654,0.25829 -0.01281,0.0101 -0.02214,0.0104 -0.406622,0.0119 -0.216431,8.4e-4 -0.4109482,-3.1e-4 -0.4322562,-0.003 l -0.03874,-0.004 0.0016,-0.062 c 8.97e-4,-0.0341 -0.002,-0.11891 -0.0065,-0.18848 -0.0166,-0.25933 -0.0071,-0.36087 0.04403,-0.46841 0.02388,-0.0503 0.04837,-0.0787 0.161025,-0.18699 0.1878582,-0.18057 0.5133052,-0.51525 0.9877852,-1.0158 0.414433,-0.43721 0.413842,-0.43659 0.7363186,-0.76883 0.126388,-0.13022 0.309995,-0.31472 0.408015,-0.41 0.09802,-0.0953 0.1789781,-0.17648 0.1799021,-0.18044 0.0017,-0.007 -0.04812,-0.0641 -0.2182731,-0.24988 -0.308105,-0.33636 -0.5191846,-0.55464 -1.2762846,-1.31984 -0.502757,-0.50814 -0.60894,-0.61651 -0.8136502,-0.83045 -0.120883,-0.12632 -0.144954,-0.15408 -0.161479,-0.18622 -0.0493,-0.0959 -0.06499,-0.24255 -0.04984,-0.46591 0.0031,-0.0455 0.006,-0.13031 0.0065,-0.18856 4.76e-4,-0.0582 0.0027,-0.1088 0.005,-0.11235 0.0032,-0.005 0.08405,-0.006 0.3754052,-0.006 l 0.371266,0 0.610918,0.62377 c 0.336004,0.34307 0.6530486,0.66677 0.7045426,0.71933 0.242309,0.24733 0.6316531,0.65439 0.8622571,0.90148 0.175863,0.18844 0.220426,0.23279 0.289335,0.28797 0.0711,0.0569 0.07259,0.0575 0.09265,0.0321 0.05135,-0.0648 0.160331,-0.19144 0.297854,-0.34596 0.233461,-0.26233 0.346581,-0.40106 0.441339,-0.54124 l 0.03063,-0.0453 -0.04498,-0.22589 c -0.06907,-0.34691 -0.08151,-0.43864 -0.08173,-0.60299 -1.65e-4,-0.12325 0.0095,-0.20795 0.035,-0.30736 0.0098,-0.0384 0.02143,-0.0883 0.02573,-0.11107 0.09924,-0.52359 0.419823,-1.02641 0.8517341,-1.33591 0.224497,-0.16087 0.432785,-0.2525 0.7508941,-0.33034 0.309712,-0.0758 0.65772,-0.0546 0.9873941,0.06 0.388304,0.13505 0.732281,0.38583 0.97318496,0.70953 0.05034,0.0676 0.139189,0.20703 0.183782,0.28833 0.122199,0.22278 0.206261,0.48921 0.243293,0.77108 0.01411,0.1074 0.01954,0.35298 0.01037,0.46849 -0.03241,0.40798 -0.161032,0.78839 -0.375191,1.10966 -0.19203096,0.28808 -0.42112496,0.49383 -0.75648396,0.67941 -0.27167,0.15033 -0.6234381,0.22708 -0.9501741,0.20731 -0.19326,-0.0117 -0.35869,-0.0431 -0.5349899,-0.10149 -0.1451882,-0.0481 -0.2747742,-0.1065 -0.3956762,-0.17829 -0.02867,-0.017 -0.05289,-0.031 -0.05382,-0.031 -9.31e-4,0 -0.02207,0.025 -0.04697,0.0555 -0.07108,0.0872 -0.128571,0.15084 -0.332109,0.36783 -0.1726371,0.18404 -0.2749671,0.30637 -0.3555501,0.42506 l -0.04468,0.0658 0.0086,0.0273 c 0.0092,0.0291 0.03994,0.0599 1.9551412,1.95654 l 0.4198191,0.41576 -0.0014,0.0646 c -7.34e-4,0.0355 7.34e-4,0.14248 0.0033,0.23766 0.0041,0.15474 0.0037,0.17877 -0.0044,0.22707 -0.01101,0.0657 -0.02618,0.1165 -0.03849,0.12882 -0.01157,0.0116 -0.09719,0.02 -0.269175,0.0266 -0.134313,0.005 -0.146407,0.005 -0.320279,-6.5e-4 z m 0.7466791,-5.65378 c 0.121716,-0.0217 0.249184,-0.0882 0.348532,-0.18171 0.0958,-0.0902 0.160899,-0.20005 0.193486,-0.32654 0.03084,-0.1197 0.03493,-0.20196 0.01492,-0.29978 -0.03019,-0.14759 -0.09935,-0.27394 -0.210805,-0.38508 -0.232272,-0.23164 -0.5159041,-0.26196 -0.7828661,-0.0837 -0.04849,0.0324 -0.128375,0.11259 -0.164068,0.16472 -0.05583,0.0815 -0.098,0.18267 -0.120809,0.28968 -0.0167,0.0783 -0.01687,0.21776 -3.67e-4,0.29151 0.01644,0.0734 0.02885,0.10982 0.05808,0.17027 0.04236,0.0876 0.11393,0.17164 0.190428,0.22359 0.01715,0.0116 0.04654,0.0328 0.0653,0.047 0.01876,0.0142 0.05545,0.0361 0.08155,0.0488 0.104159,0.0504 0.20441706,0.0631 0.32661806,0.0412 z"
           style="fill:#1a2414;fill-opacity:1;stroke:none" />
        <path
           d="m -1.4590187,396.43637 c -0.012023,5.3e-4 -0.016933,0.008 -0.026444,0.009 -0.009,7.2e-4 -0.018373,-9.8e-4 -0.026444,0 -0.017526,0.002 -0.035456,0.006 -0.052917,0.009 -0.00282,4.4e-4 -0.00601,-4.4e-4 -0.0088,0 -0.033539,0.005 -0.065061,0.008 -0.1146528,0.0176 -0.0037,7.4e-4 -0.00491,-7.7e-4 -0.0088,0 -0.021054,0.004 -0.040815,0.013 -0.061736,0.0176 -0.062061,0.0137 -0.1243894,0.0266 -0.1852083,0.0441 -0.0059,0.002 -0.01174,0.007 -0.017639,0.009 -0.011599,0.003 -0.023735,0.005 -0.035278,0.009 -0.075339,0.0232 -0.1474498,0.0506 -0.2204861,0.0794 -0.0037,10e-4 -0.00511,0.007 -0.00881,0.009 -0.02588,0.0103 -0.053766,0.0154 -0.079375,0.0265 -0.00861,0.004 -0.017836,0.005 -0.026444,0.009 -0.027799,0.0123 -0.051926,0.031 -0.079375,0.0441 -0.00601,0.003 -0.011628,0.006 -0.017639,0.009 -0.00821,0.004 -0.01826,0.005 -0.026444,0.009 -0.023707,0.0118 -0.047145,0.0229 -0.070556,0.0353 -0.024779,0.0131 -0.046166,0.0303 -0.070556,0.0441 -0.0035,0.002 -0.00533,0.007 -0.00881,0.009 -0.0081,0.005 -0.018429,0.004 -0.026444,0.009 -0.011599,0.007 -0.023763,0.0107 -0.035278,0.0176 -0.041611,0.0248 -0.083131,0.0526 -0.1234722,0.0794 -0.01239,0.008 -0.023029,0.018 -0.035278,0.0265 -0.00539,0.004 -0.012249,0.005 -0.017639,0.009 -0.017272,0.0121 -0.035887,0.0228 -0.052917,0.0353 -0.03028,0.0221 -0.058756,0.0473 -0.088194,0.0705 -0.016933,0.0133 -0.036285,0.0216 -0.052917,0.0353 -0.00319,0.003 -0.00573,0.006 -0.00881,0.009 -0.011515,0.01 -0.023904,0.0167 -0.035278,0.0265 -0.052951,0.0453 -0.1001522,0.10083 -0.1499306,0.14993 -0.0044,0.004 -0.013236,0.004 -0.017639,0.009 -0.00291,0.003 -0.00593,0.006 -0.00881,0.009 -0.00291,0.003 -0.00593,0.006 -0.00881,0.009 -0.00291,0.003 -0.00593,0.006 -0.00881,0.009 -0.00861,0.009 -0.017921,0.0174 -0.026444,0.0264 -0.0072,0.008 -0.010583,0.0188 -0.017639,0.0265 -0.00282,0.003 -0.00601,0.006 -0.00881,0.009 -0.007,0.008 -0.01953,0.01 -0.026444,0.0176 -0.018401,0.0203 -0.035046,0.041 -0.052917,0.0617 -0.010724,0.0125 -0.029439,0.0433 -0.044097,0.0617 -0.00254,0.003 -0.00621,0.006 -0.00881,0.009 -0.016736,0.021 -0.036886,0.0403 -0.052917,0.0617 -0.040301,0.0538 -0.071281,0.10783 -0.1058333,0.15875 -0.00198,0.003 -0.00691,0.006 -0.00881,0.009 -0.00999,0.0148 -0.016454,0.0288 -0.026444,0.0441 -0.00198,0.003 -0.00672,0.006 -0.00881,0.009 -0.0035,0.005 -0.00533,0.0121 -0.00881,0.0176 -0.012954,0.0203 -0.023086,0.0415 -0.035278,0.0617 -0.010809,0.0181 -0.024807,0.0344 -0.035278,0.0529 -0.0066,0.0116 -0.011176,0.0235 -0.017639,0.0353 -0.00401,0.007 -0.013744,0.0103 -0.017639,0.0176 -0.00421,0.008 -0.00471,0.0187 -0.00881,0.0265 -0.019784,0.0378 -0.034626,0.0756 -0.052917,0.11465 -0.0055,0.0118 -0.012248,0.0234 -0.017639,0.0353 -0.00421,0.009 -0.01349,0.017 -0.017639,0.0265 -0.019389,0.0445 -0.035077,0.0939 -0.052917,0.14111 -0.016538,0.0438 -0.037256,0.0853 -0.052917,0.13229 -0.0077,0.0231 -0.01047,0.0474 -0.017639,0.0706 -0.00381,0.0123 -0.013942,0.0229 -0.017639,0.0353 -0.010075,0.0339 -0.017357,0.0714 -0.026444,0.10583 -5.645e-4,0.003 5.644e-4,0.006 0,0.009 -0.00779,0.0299 -0.010612,0.0578 -0.017639,0.0882 -5.644e-4,0.003 5.644e-4,0.006 0,0.009 -0.00141,0.006 -0.00742,0.0113 -0.00881,0.0176 -0.01366,0.0609 -0.02461,0.12215 -0.035278,0.18521 -0.00113,0.006 -0.00782,0.0113 -0.00881,0.0176 -5.645e-4,0.003 5.644e-4,0.006 0,0.009 -8.467e-4,0.006 8.466e-4,0.0119 0,0.0176 -0.00282,0.0176 -0.00621,0.0352 -0.00881,0.0529 -0.00291,0.0206 -0.00621,0.0408 -0.00881,0.0617 -0.0046,0.0357 -0.00522,0.0697 -0.00881,0.10583 -2.822e-4,0.003 2.823e-4,0.006 0,0.009 -0.00449,0.0447 -0.014252,0.0857 -0.017639,0.13229 -0.00113,0.017 8.466e-4,0.0345 0,0.0529 -8.467e-4,0.0185 2.822e-4,0.0395 0,0.0529 -1.101e-4,0.003 1.1e-4,0.0146 0,0.0176 -1.98e-5,0.002 2.8e-6,0.007 0,0.009 -5.645e-4,0.006 -0.00833,0.0129 -0.00881,0.0176 -0.00169,0.02 -0.00573,0.0513 -0.00881,0.0529 -0.00559,-0.004 -0.0094,10e-6 -0.017639,-0.009 -0.00226,-0.002 -0.028025,-0.0366 -0.035278,-0.0441 -0.018796,-0.0191 -0.027432,-0.0175 -0.052917,-0.0441 -5.644e-4,-7.3e-4 5.645e-4,-0.0166 0,-0.0176 -0.022042,-0.023 -0.1095304,-0.10864 -0.1322916,-0.13229 -0.088649,-0.0922 -0.3893962,-0.39549 -0.5115279,-0.52035 -0.107092,-0.10954 -0.292004,-0.29845 -0.4497917,-0.45861 -0.024807,-0.0252 -0.044137,-0.0438 -0.070556,-0.0706 -0.2786183,-0.28202 -0.4477287,-0.45521 -0.5556251,-0.56444 l -0.097437,-0.097 -0.00882,-0.009 -0.026458,-0.0353 -0.026444,-0.0265 -0.035278,-0.0353 -0.00881,0 -0.1499306,0 c -0.015946,3.5e-4 -0.1090817,-5.5e-4 -0.1411111,0 l -0.493889,0.009 -0.026444,0 c -0.4471529,0.006 -0.8820631,0.0156 -0.970139,0.0176 l -0.15875,0 0,0.009 -0.00881,0 0,1.07597 0,1.07597 0,0.0176 0.035278,0.0441 c 0.00971,0.0124 0.025654,0.023 0.035278,0.0353 0.045819,0.0585 0.1038409,0.11979 0.1499306,0.17639 0.031279,0.0384 0.063754,0.0838 0.097014,0.12347 0.00929,0.0111 0.016933,0.024 0.026444,0.0353 0.019671,0.0232 0.042415,0.048 0.061736,0.0705 0.01826,0.0213 0.033697,0.0397 0.052917,0.0617 0.016792,0.0192 0.026416,0.0241 0.044097,0.0441 0.027517,0.0313 0.07589,0.0811 0.1058334,0.11465 0.00869,0.01 0.026303,0.0341 0.035278,0.0441 0.00802,0.009 0.018203,0.0261 0.026444,0.0353 0.0031,0.003 0.00573,0.005 0.00881,0.009 0.1555948,0.17277 0.3138989,0.34025 0.5644445,0.60854 0.0057,0.006 0.0031,0.0115 0.00881,0.0176 0.0037,0.004 0.00511,0.005 0.00881,0.009 0.3943463,0.42276 0.649018,0.70311 0.7231945,0.79375 0.00141,0.002 0.00731,0.007 0.00881,0.009 3.67e-5,1.3e-4 -1.69e-5,0.009 0,0.009 -0.0037,0.007 -0.01047,0.017 -0.026444,0.0353 l -0.00881,0.009 c -0.014958,0.0196 -0.027827,0.0259 -0.1146528,0.11465 -0.09387,0.0959 -0.2666549,0.27578 -0.5556251,0.56445 -0.009,0.009 -0.00861,0.009 -0.017639,0.0176 -0.022634,0.0224 -0.021167,0.0215 -0.044097,0.0441 -0.012982,0.013 -0.013039,0.0131 -0.026444,0.0265 -0.293672,0.29326 -0.4743676,0.47088 -0.6085417,0.60854 -0.019361,0.0201 -0.052036,0.0512 -0.070556,0.0706 -0.00869,0.009 -0.026868,0.0353 -0.035278,0.0441 -0.00389,0.004 -0.013829,0.0136 -0.017639,0.0176 -0.04557,0.0483 -0.073829,0.0878 -0.1146528,0.1323 -0.00849,0.009 -0.018175,0.0174 -0.026444,0.0265 -0.00841,0.009 -0.018288,0.0174 -0.026444,0.0265 -0.0077,0.008 -0.018627,0.0178 -0.026444,0.0265 -0.03357,0.0372 -0.065041,0.0678 -0.1058334,0.11465 -0.028581,0.033 -0.057824,0.07 -0.088194,0.10584 -0.00226,0.003 -0.00652,0.006 -0.00881,0.009 -0.00226,0.003 -0.00683,0.006 -0.00881,0.009 -0.00531,0.006 -0.012277,0.0113 -0.017639,0.0176 -0.00421,0.005 -0.014732,0.0227 -0.017639,0.0265 l -0.026444,0.0265 0,1.04952 0,0.009 0,1.04951 0.00881,0 c 3.67e-5,4e-5 -3.67e-5,0.009 0,0.009 5.645e-4,1.9e-4 0.016115,-2.5e-4 0.017639,0 0.00282,5.9e-4 0.029027,-7.6e-4 0.035278,0 0.011599,9.9e-4 0.041727,0.007 0.061736,0.009 0.028239,0.003 0.048553,-0.003 0.088194,0 0.023058,0.002 0.016623,0.007 0.044097,0.009 0.01699,9.9e-4 0.017921,-9.9e-4 0.035278,0 0.018824,9.9e-4 0.026783,-8.8e-4 0.044097,0 0.082161,0.004 0.3929973,0.01 1.049514,0.009 0.3169469,1.1e-4 0.671943,-0.007 0.7496529,-0.009 0.015861,-2.7e-4 0.088214,3.1e-4 0.097014,0 l 0.070555,0 0.026444,0 0,-0.009 0.052917,-0.0529 c 0.00141,-9.9e-4 0.00731,-0.007 0.00881,-0.009 l 0.00875,-0.0176 c 0.026839,-0.0312 0.062385,-0.0659 0.097014,-0.10583 0.0094,-0.0108 0.017357,-0.016 0.026444,-0.0265 0.019247,-0.0222 0.034047,-0.0312 0.052917,-0.0529 0.1434338,-0.16546 0.2759061,-0.32788 0.414514,-0.48506 l 0.2116666,-0.23813 0.5997223,0 c 0.4801758,0 0.595314,-0.003 0.5997223,-0.009 l 0.00881,0 c 2.823e-4,-8.2e-4 1.637e-4,-0.0729 0,-0.0882 -2.822e-4,-0.0239 -0.00691,-0.12586 -0.00881,-0.19403 -5.644e-4,-0.0164 5.645e-4,-0.002 0,-0.0176 -0.015071,-0.45491 -0.016341,-0.52085 -0.00881,-0.52035 0.00559,-9.9e-4 0.031931,0.0205 0.238125,0.23813 0.01064,0.0111 0.023594,0.0231 0.035278,0.0353 0.0496,0.0523 0.044571,0.0492 0.1058333,0.11465 0.022832,0.0242 0.020094,0.0185 0.044097,0.0441 0.046629,0.0497 0.083515,0.0927 0.088194,0.097 0.011825,0.012 0.072819,0.0763 0.1411111,0.14993 0.00226,0.002 0.00652,0.006 0.00881,0.009 0.00468,0.005 0.012756,0.0124 0.017639,0.0176 0.0037,0.004 0.00502,0.0135 0.00881,0.0176 0.00849,0.009 0.026868,0.0262 0.035278,0.0353 0.091169,0.0978 0.1857248,0.19704 0.2910417,0.30869 0.024553,0.026 0.057184,0.056 0.079375,0.0794 0.02334,0.0247 0.049237,0.0481 0.070556,0.0706 0.015353,0.0161 0.034016,0.0419 0.052917,0.0617 0.00226,0.002 0.00652,0.006 0.00881,0.009 0.0208,0.0218 0.038066,0.0369 0.061736,0.0617 0.06431,0.0677 0.09411,0.0989 0.1763889,0.18521 0.027658,0.0289 0.034936,0.0424 0.061736,0.0705 0.026388,0.0276 0.024525,0.0232 0.052917,0.0529 0.044631,0.0465 0.092089,0.0995 0.1322916,0.14111 l 0.026444,0.0265 c 0.00731,0.008 0.040036,0.0399 0.044097,0.0441 l 0.00881,0.009 c 0.00169,0.002 0.016567,0.0165 0.017639,0.0176 l 0.026444,0.0176 c 1.637e-4,1.3e-4 -1.101e-4,0.009 0,0.009 0.0083,0.005 0.017865,0.003 0.044097,0 0.019078,-0.002 0.4925822,-0.009 1.03187503,-0.009 0.59335817,-9e-4 1.08303353,0.002 1.08479173,0 0.00169,-0.002 -0.00141,-0.0877 0,-0.19403 8.467e-4,-0.0536 0.00762,-0.18844 0.00881,-0.28222 3.67e-5,-0.002 -3.67e-5,-0.007 0,-0.009 1.637e-4,-0.0141 -1.637e-4,-0.0122 0,-0.0265 0.00169,-0.13426 0.00683,-0.30357 0.00881,-0.47625 8.467e-4,-0.0872 -8.467e-4,-0.11029 0,-0.19402 5.644e-4,-0.0461 -5.644e-4,-0.0894 0,-0.1323 0.00226,-0.19303 0.00793,-0.42468 0.00881,-0.48506 1.7e-5,-9.9e-4 -1.69e-5,-0.008 0,-0.009 l 0,-0.17639 -0.070556,-0.0706 -0.026444,-0.0265 c -0.00169,-0.002 -0.00703,-0.0157 -0.00881,-0.0176 -0.00889,-0.009 -0.055316,-0.0543 -0.070556,-0.0706 -0.0529393,-0.056 -0.20815307,-0.21627 -0.34395841,-0.3616 -0.005306,-0.006 -0.003528,-0.0119 -0.008805,-0.0176 -0.0035,-0.004 -0.005419,-0.005 -0.008805,-0.009 -0.02032,-0.0217 -0.0242429,-0.0228 -0.0440972,-0.0441 -0.00731,-0.008 -0.0103011,-0.01 -0.0176389,-0.0176 -0.0112042,-0.012 -0.0155787,-0.0148 -0.0264442,-0.0265 -0.0259927,-0.0278 -0.0368272,-0.0439 -0.0617361,-0.0706 -0.10782301,-0.11523 -0.23201209,-0.25606 -0.27340281,-0.29986 -0.0668697,-0.0707 -0.13908194,-0.14598 -0.15875001,-0.16757 -0.00381,-0.004 -0.0349165,-0.0343 -0.0440972,-0.0441 -0.0163971,-0.0176 -0.07066,-0.0686 -0.10583333,-0.10583 -0.04548,-0.0481 -0.079149,-0.0852 -0.1322917,-0.14111 -0.00691,-0.007 -0.00226,-0.0105 -0.00881,-0.0176 -0.06387,-0.0671 -0.091488,-0.0884 -0.1234722,-0.12347 -0.03407,-0.0353 -0.058335,-0.065 -0.061736,-0.0706 -2.174e-4,-9.3e-4 0.024384,7.7e-4 0.026444,0 0.017413,-9.8e-4 0.035196,-0.009 0.079375,-0.009 0.014224,0 0.029848,2.3e-4 0.044097,0 0.012248,-2.4e-4 0.02317,3.7e-4 0.035278,0 0.00559,-1.7e-4 0.012023,2e-4 0.017639,0 0.048291,-0.002 0.09466,-0.005 0.14111111,-0.009 0.008692,-7.6e-4 0.0177236,8.5e-4 0.0264442,0 0.0348008,-0.003 0.0716393,-0.0132 0.10583335,-0.0176 0.0310698,-0.004 0.0652046,-0.003 0.0970139,-0.009 0.0294386,-0.005 0.0588349,-0.0117 0.0881945,-0.0176 0.0272062,-0.006 0.0520361,-0.0112 0.079375,-0.0176 0.0180622,-0.004 0.0349476,-0.0131 0.0529167,-0.0176 0.0710212,-0.0184 0.14592019,-0.0368 0.22048613,-0.0617 0.00254,-8.7e-4 0.006209,8.8e-4 0.008805,0 0.00254,-8.4e-4 0.006322,8.5e-4 0.008805,0 0.10619459,-0.0363 0.2064992,-0.0841 0.30868059,-0.13229 0.006011,-0.003 0.0116276,-0.006 0.0176389,-0.009 0.0263596,-0.0126 0.0533344,-0.0219 0.079375,-0.0353 0.0094,-0.005 0.017131,-0.0127 0.026444,-0.0176 0.014817,-0.008 0.029396,-0.0184 0.044097,-0.0265 0.026755,-0.0146 0.053134,-0.0286 0.079375,-0.0441 0.02001,-0.0118 0.041975,-0.023 0.061736,-0.0353 0.009,-0.006 0.017554,-0.012 0.026444,-0.0176 0.00559,-0.004 0.012023,-0.005 0.017639,-0.009 0.00339,-0.002 0.00542,-0.007 0.00881,-0.009 0.012587,-0.008 0.022803,-0.0181 0.035278,-0.0265 0.043739,-0.0295 0.090159,-0.0563 0.1322916,-0.0882 0.0031,-0.002 0.00581,-0.006 0.00881,-0.009 0.03981,-0.0304 0.076299,-0.0645 0.1146528,-0.097 0.00169,-9.9e-4 0.00722,9.9e-4 0.00881,0 0.010216,-0.009 0.031657,-0.0241 0.044097,-0.0353 0.00909,-0.008 0.017413,-0.0183 0.026444,-0.0265 0.009,-0.008 0.016905,-0.0174 0.026444,-0.0265 0.025993,-0.0242 0.054105,-0.0453 0.079375,-0.0706 0.00169,-0.002 -0.00169,-0.007 0,-0.009 0.00731,-0.007 0.019191,-0.0102 0.026444,-0.0176 0.0031,-0.003 0.00573,-0.006 0.00881,-0.009 0.033469,-0.0345 0.065433,-0.0699 0.097014,-0.10583 0.00254,-0.003 0.00621,-0.0146 0.00881,-0.0176 0.014845,-0.017 0.0298681,-0.0357 0.0440971,-0.0529 0.047631,-0.0574 0.090351,-0.11657 0.1322917,-0.17639 0.011853,-0.0169 0.023594,-0.0356 0.035278,-0.0529 0.024356,-0.0361 0.047955,-0.0695 0.070556,-0.10584 0.02334,-0.0372 0.040245,-0.0771 0.061736,-0.11465 0.00841,-0.0149 0.018316,-0.0292 0.026444,-0.0441 0.00621,-0.0115 0.011543,-0.0237 0.017639,-0.0353 0.037301,-0.0697 0.07456,-0.14021 0.1058334,-0.21167 0.00113,-0.002 -0.00113,-0.006 0,-0.009 0.00421,-0.01 0.013575,-0.0169 0.017639,-0.0265 0.0037,-0.009 0.00522,-0.0176 0.00881,-0.0265 0.013095,-0.0319 0.023312,-0.0646 0.035278,-0.097 0.018429,-0.0499 0.037138,-0.0987 0.052917,-0.14993 8.466e-4,-0.003 -8.467e-4,-0.006 0,-0.009 0.013885,-0.046 0.023509,-0.0946 0.035278,-0.14111 0.0068,-0.0267 0.020377,-0.0525 0.026444,-0.0794 5.644e-4,-0.003 -5.645e-4,-0.006 0,-0.009 0.00254,-0.0116 0.00643,-0.0236 0.00881,-0.0353 5.645e-4,-0.003 -5.644e-4,-0.006 0,-0.009 5.645e-4,-0.003 -5.644e-4,-0.006 0,-0.009 0.00169,-0.009 0.00711,-0.0178 0.00881,-0.0265 5.645e-4,-0.003 -5.644e-4,-0.006 0,-0.009 0.01493,-0.0769 0.025908,-0.15103 0.035278,-0.22931 0.00421,-0.0334 0.014224,-0.063 0.017639,-0.097 0.00339,-0.034 0.00722,-0.10351 0.00881,-0.15875 2.682e-4,-0.009 -2.173e-4,-0.0167 0,-0.0265 0.00113,-0.032 -1.834e-4,-0.065 0,-0.097 3.67e-5,-0.006 -2.8e-6,-0.0119 0,-0.0176 -5.6e-6,-0.028 2.823e-4,-0.0433 0,-0.0706 -5.644e-4,-0.0328 -0.00722,-0.0642 -0.00881,-0.097 -0.00169,-0.0421 0.00282,-0.0955 0,-0.12347 -2.822e-4,-0.003 2.822e-4,-0.006 0,-0.009 -0.00861,-0.0851 -0.021703,-0.16535 -0.035278,-0.24695 -0.0096,-0.0588 -0.023029,-0.11952 -0.035278,-0.17639 -0.00519,-0.0238 -0.01191,-0.0469 -0.017639,-0.0706 -0.012333,-0.052 -0.029317,-0.0989 -0.044097,-0.14993 -0.005,-0.0173 -0.00361,-0.0357 -0.00881,-0.0529 -8.467e-4,-0.002 8.467e-4,-0.006 0,-0.009 -0.00198,-0.006 -0.00691,-0.0114 -0.00881,-0.0176 -0.00113,-0.004 -0.00773,-0.005 -0.00881,-0.009 -0.00169,-0.005 0.00169,-0.0124 0,-0.0176 -0.00319,-0.01 -0.00562,-0.0169 -0.00881,-0.0265 -8.467e-4,-0.002 8.467e-4,-0.006 0,-0.009 -0.00319,-0.01 -0.014337,-0.0169 -0.017639,-0.0265 -0.015974,-0.0462 -0.026106,-0.0954 -0.044097,-0.14111 -0.00291,-0.007 -0.00612,-0.0108 -0.00881,-0.0176 -0.016425,-0.0411 -0.041797,-0.0819 -0.061736,-0.12347 -0.00113,-0.002 0.00113,-0.007 0,-0.009 -0.00519,-0.0106 -0.012107,-0.0246 -0.017639,-0.0353 -0.00113,-0.002 0.00113,-0.007 0,-0.009 -0.00291,-0.006 -0.00593,-0.012 -0.00881,-0.0176 -0.011853,-0.0221 -0.020348,-0.0447 -0.035278,-0.0706 -0.011289,-0.0196 -0.032388,-0.0336 -0.044097,-0.0529 -0.00667,-0.011 -0.010823,-0.0244 -0.017625,-0.0353 -0.00141,-0.002 0.00141,-0.007 0,-0.009 -0.03556,-0.0573 -0.07513,-0.11276 -0.1146528,-0.16757 -0.0059,-0.008 -0.011627,-0.0183 -0.017639,-0.0265 -0.00491,-0.007 -0.012672,-0.011 -0.017639,-0.0176 -0.03136,-0.0418 -0.063475,-0.0833 -0.097014,-0.12347 -0.00409,-0.005 -0.00471,-0.0128 -0.00881,-0.0176 -0.0081,-0.01 -0.018231,-0.0169 -0.026444,-0.0265 -0.0057,-0.007 -0.011261,-0.0194 -0.017639,-0.0265 -0.0055,-0.006 -0.012107,-0.0115 -0.017639,-0.0176 -0.015212,-0.017 -0.028538,-0.0362 -0.044097,-0.0529 -0.024215,-0.0258 -0.054285,-0.0457 -0.079375,-0.0706 -0.011769,-0.0118 -0.023312,-0.0237 -0.035278,-0.0353 -0.00601,-0.006 -0.011599,-0.0119 -0.017639,-0.0176 -0.02851,-0.0272 -0.058694,-0.0533 -0.088194,-0.0794 -0.00621,-0.005 -0.011373,-0.0122 -0.017639,-0.0176 -0.014393,-0.0126 -0.029498,-0.023 -0.044097,-0.0353 -0.015889,-0.0133 -0.02794,-0.0311 -0.044097,-0.0441 -0.021703,-0.0175 -0.048384,-0.0271 -0.070556,-0.0441 -0.03017,-0.023 -0.057215,-0.0487 -0.088194,-0.0706 -0.00339,-0.002 -0.00542,-0.006 -0.00881,-0.009 -0.0033,-0.002 -0.00553,-0.007 -0.00881,-0.009 -0.010809,-0.008 -0.024356,-0.0102 -0.035278,-0.0176 -0.022888,-0.0156 -0.047247,-0.0291 -0.070556,-0.0441 -0.032221,-0.0207 -0.064084,-0.0422 -0.097014,-0.0617 -0.018429,-0.0109 -0.034287,-0.0247 -0.052917,-0.0353 -0.011345,-0.006 -0.023848,-0.0114 -0.035278,-0.0176 -0.05194,-0.0286 -0.105331,-0.0538 -0.15874997,-0.0794 -0.005786,-0.003 -0.0118251,-0.006 -0.0176389,-0.009 -0.00254,-9.9e-4 -0.006322,10e-4 -0.008805,0 -0.005898,-0.003 -0.0117687,-0.006 -0.0176389,-0.009 -0.009596,-0.004 -0.0167922,-0.0133 -0.0264442,-0.0176 -0.0267547,-0.012 -0.0523155,-0.024 -0.079375,-0.0353 -0.008495,-0.004 -0.0179493,-0.005 -0.0264442,-0.009 -0.011938,-0.005 -0.0232833,-0.013 -0.0352778,-0.0176 -0.0132362,-0.005 -0.030147,-0.0125 -0.0440972,-0.0176 -0.008213,-0.003 -0.018034,-0.006 -0.0264442,-0.009 -0.002258,-8.7e-4 -0.006435,8.8e-4 -0.008805,0 -0.0284791,-0.0102 -0.0594558,-0.017 -0.0881945,-0.0265 -0.0327688,-0.0106 -0.0628142,-0.0254 -0.0970139,-0.0353 -0.002822,-8.1e-4 -0.006011,7.9e-4 -0.008805,0 -0.006294,-0.002 -0.0113736,-0.007 -0.0176389,-0.009 -0.0153529,-0.004 -0.0288177,-0.005 -0.0440972,-0.009 -0.009398,-0.002 -0.0171027,-0.006 -0.0264442,-0.009 -0.003189,-8.3e-4 -0.005729,8.1e-4 -0.008805,0 -0.0231422,-0.006 -0.0391047,-0.0124 -0.0617361,-0.0176 -0.0537492,-0.0122 -0.10435732,-0.0261 -0.15875001,-0.0353 -0.0127,-0.002 -0.0153529,0.002 -0.0264442,0 -0.0298309,-0.005 -0.0584172,-0.0149 -0.0617361,-0.0176 -0.003612,-0.003 -0.1146303,-9.9e-4 -0.2822223,0 -0.0068,4e-5 -0.00169,-5e-5 -0.0088,0 -0.08025,5.5e-4 -0.1064119,-6.2e-4 -0.1499306,0 -0.03328,4.8e-4 -0.094381,-8.8e-4 -0.1146528,0 z m 0.088194,0.3175 c 0.012192,-7.5e-4 0.023001,5.9e-4 0.035278,0 0.06624,-0.003 0.1351732,-0.003 0.2116667,0 0.048139,0.002 0.09512,0.005 0.14111109,0.009 0.0469195,0.004 0.0944795,0.0104 0.14111112,0.0176 0.0286597,0.005 0.0596336,0.003 0.0881945,0.009 0.0241864,0.005 0.0459345,0.0118 0.0705556,0.0176 0.0445798,0.0103 0.0877514,0.0223 0.13229168,0.0353 0.0178929,0.005 0.0350068,0.012 0.0529167,0.0176 0.0115147,0.004 0.0237913,0.005 0.0352778,0.009 0.006604,0.002 0.0111478,0.007 0.0176389,0.009 0.10575997,0.0355 0.21125465,0.0767 0.30868059,0.12348 0.0081,0.004 0.0185984,0.005 0.0264442,0.009 0.0487087,0.0242 0.094869,0.0525 0.14111113,0.0794 0.020574,0.012 0.0414753,0.0226 0.0617361,0.0353 0.012333,0.008 0.023057,0.0185 0.035278,0.0265 0.035029,0.0228 0.07189,0.0461 0.10583325,0.0706 0.033031,0.024 0.064115,0.0443 0.097014,0.0706 0.00649,0.005 0.011176,0.0124 0.017639,0.0176 0.011543,0.009 0.023819,0.0167 0.035278,0.0265 0.032769,0.0277 0.065665,0.0589 0.097014,0.0882 0.0092,0.009 0.017328,0.0177 0.026444,0.0265 0.00621,0.006 0.011486,0.0116 0.017639,0.0176 0.0059,0.006 0.011769,0.0118 0.017639,0.0176 0.0501,0.0502 0.097629,0.0931 0.1322917,0.13229 0.00691,0.008 0.010837,0.0184 0.017639,0.0265 0.00198,0.002 0.00703,0.007 0.00881,0.009 0.051221,0.061 0.1037449,0.12819 0.1499306,0.19403 0.00361,0.005 0.00522,0.0124 0.00881,0.0176 0.030511,0.0441 0.060065,0.0862 0.088194,0.13229 0.01953,0.032 0.034578,0.0641 0.052917,0.097 0.022408,0.04 0.041326,0.0826 0.061736,0.12347 0.026049,0.0524 0.047546,0.10439 0.070556,0.15875 0.00779,0.0185 0.018994,0.0342 0.026444,0.0529 0.010358,0.0258 0.016849,0.0532 0.026444,0.0794 0.014111,0.0384 0.031637,0.0756 0.044097,0.11465 0.012982,0.0407 0.02413,0.0822 0.035278,0.12348 0.00141,0.005 -0.00141,0.0123 0,0.0176 0.014224,0.0539 0.033206,0.10471 0.044097,0.15875 0.00361,0.0179 0.00553,0.0349 0.00881,0.0529 5.645e-4,0.003 -5.644e-4,0.006 0,0.009 0.00282,0.0148 0.00643,0.0293 0.00881,0.0441 0.0033,0.0204 0.00601,0.0414 0.00881,0.0617 8.466e-4,0.006 -8.467e-4,0.0119 0,0.0176 8.466e-4,0.006 -5.645e-4,0.0119 0,0.0176 0.010837,0.0858 0.015155,0.16966 0.017639,0.25577 1.637e-4,0.006 -1.27e-4,0.0118 0,0.0176 1.834e-4,0.009 0.00872,0.0174 0.00881,0.0265 3.67e-5,0.003 -1.98e-5,0.006 0,0.009 7.34e-5,0.0116 9.03e-5,0.0237 0,0.0353 -1.98e-5,0.003 3.67e-5,0.006 0,0.009 -3.67e-5,0.003 3.67e-5,0.006 0,0.009 -1.27e-4,0.009 2.201e-4,0.0176 0,0.0265 -0.00141,0.0654 -0.011063,0.12907 -0.017639,0.19403 -8.467e-4,0.009 0.00113,0.0177 0,0.0265 -8.467e-4,0.008 0.00113,0.018 0,0.0265 -0.00254,0.0206 -0.00581,0.0412 -0.00881,0.0617 -0.00299,0.0205 -0.00531,0.0413 -0.00881,0.0617 -0.00401,0.0232 -0.012982,0.0473 -0.017639,0.0706 -0.0061,0.0294 -0.01016,0.0573 -0.017639,0.0882 -0.014478,0.06 -0.026642,0.10548 -0.052917,0.19403 -0.0072,0.0245 -0.0083,0.0216 -0.017639,0.0529 -0.026077,0.0878 -0.052934,0.17166 -0.088195,0.25576 -0.00621,0.0148 -0.011176,0.0295 -0.017639,0.0441 -0.00691,0.0156 -0.019191,0.0285 -0.026444,0.0441 -0.011458,0.0244 -0.022013,0.0442 -0.035278,0.0706 -0.016341,0.0326 -0.035216,0.0652 -0.052917,0.097 -0.024017,0.0432 -0.044157,0.0906 -0.070556,0.13229 -0.0059,0.009 -0.011656,0.0173 -0.017639,0.0265 -0.00226,0.003 -0.0066,0.006 -0.00881,0.009 -0.025823,0.0393 -0.051506,0.0768 -0.079375,0.11465 -0.015184,0.0206 -0.028346,0.0416 -0.044097,0.0617 -0.014139,0.0181 -0.029467,0.0352 -0.044097,0.0529 -0.00254,0.003 -0.00621,0.006 -0.00881,0.009 -0.047769,0.0572 -0.096861,0.11369 -0.1499306,0.16757 -0.017441,0.0177 -0.034995,0.0357 -0.052917,0.0529 -0.00291,0.003 -0.00593,0.006 -0.00881,0.009 -0.012248,0.0117 -0.022888,0.0239 -0.035278,0.0353 -0.036641,0.0336 -0.076282,0.0655 -0.1146528,0.097 -0.022493,0.0185 -0.047495,0.0352 -0.070556,0.0529 -0.0066,0.005 -0.01095,0.0126 -0.017639,0.0176 -0.00519,0.004 -0.01239,0.005 -0.017639,0.009 -0.011571,0.009 -0.023594,0.018 -0.0352779,0.0265 -0.033181,0.0238 -0.062845,0.0484 -0.097014,0.0706 -0.023678,0.0154 -0.046437,0.0295 -0.070556,0.0441 -0.0035,0.002 -0.00531,0.007 -0.00881,0.009 -0.00226,9.9e-4 -0.0066,-9.8e-4 -0.00881,0 -0.00339,0.002 -0.005419,0.007 -0.008805,0.009 -0.0555611,0.0327 -0.10994532,0.0599 -0.16756946,0.0882 -0.0081,0.004 -0.0183162,0.005 -0.0264442,0.009 -0.0909913,0.0438 -0.18829304,0.0823 -0.28222225,0.11465 -0.0124178,0.004 -0.0227753,0.0136 -0.0352778,0.0176 -0.006209,0.002 -0.0114582,0.007 -0.0176389,0.009 -0.0261056,0.008 -0.0530239,0.0103 -0.079375,0.0176 -0.0117969,0.003 -0.0234527,0.006 -0.0352778,0.009 -0.0501114,0.0131 -0.0990995,0.0255 -0.14993057,0.0353 -0.0745603,0.0143 -0.13346854,0.021 -0.19402779,0.0265 -0.0332486,0.004 -0.13026819,0.008 -0.21166669,0.009 -0.086989,2e-4 -0.1280979,0.002 -0.2028472,0 -0.1010271,-0.003 -0.2131399,-0.0118 -0.2469445,-0.0176 -0.00361,-5.9e-4 -0.01397,6.5e-4 -0.017639,0 -0.049561,-0.009 -0.093941,-0.0236 -0.2116667,-0.0617 -0.00469,-0.002 -0.00432,-0.007 -0.0088,-0.009 -0.0033,-9.9e-4 -0.00562,9.9e-4 -0.00881,0 -0.07714,-0.0251 -0.1204215,-0.0352 -0.1587501,-0.0441 -0.0291,-0.007 -0.061984,-0.0161 -0.088194,-0.0176 -0.00581,-4.8e-4 -0.011684,3.7e-4 -0.017639,0 -0.00291,-9e-5 -0.00581,6e-5 -0.00881,0 -0.034279,-0.002 -0.070065,-0.003 -0.097014,0 -0.00731,7.4e-4 -0.020941,0.008 -0.026444,0.009 -0.0059,0.002 -0.015155,0.007 -0.017639,0.009 -0.00113,8.5e-4 -0.00852,-9e-4 -0.00881,0 -1.637e-4,4.2e-4 3.67e-5,0.008 0,0.009 1.298e-4,4.5e-4 0.00861,-5.9e-4 0.00881,0 2.202e-4,5.9e-4 -2.822e-4,0.008 0,0.009 0.00389,0.008 0.014111,0.0165 0.026444,0.0353 0.00282,0.004 0.00542,0.0124 0.00881,0.0176 0.00468,0.007 0.00302,0.009 0.00881,0.0176 0.024102,0.0349 0.053165,0.0648 0.079375,0.097 0.00141,0.002 -0.00141,0.007 0,0.009 0.00282,0.003 0.00621,0.006 0.00881,0.009 0.0031,0.004 0.00553,0.0136 0.00881,0.0176 0.00282,0.003 0.00593,0.005 0.00881,0.009 0.00226,0.003 0.014647,0.0142 0.017639,0.0176 0.0353,0.0399 0.1141956,0.12635 0.2028473,0.22048 0.023961,0.0256 0.028296,0.0357 0.052917,0.0617 0.016313,0.0173 0.016962,0.0159 0.035278,0.0353 0.012644,0.0134 0.012869,0.012 0.026444,0.0265 0.00861,0.009 0.00861,0.008 0.017639,0.0176 0.07703,0.0816 0.1205456,0.13362 0.1940278,0.21167 0.0033,0.003 0.00562,0.005 0.0088,0.009 0.4653478,0.49432 0.89492113,0.95186 1.24354181,1.33174 0.009793,0.0106 0.0255693,0.0247 0.0352778,0.0353 0.008297,0.009 0.0181751,0.0263 0.0264442,0.0353 0.0035,0.004 0.0324866,0.0321 0.0352778,0.0353 0.0180904,0.0197 0.054006,0.0622 0.0617361,0.0706 l 0.008805,0 0.008805,0.009 0.0264442,0.0265 0,0.009 c 5.6444e-4,7.9e-4 -2.1732e-4,0.0507 0,0.0617 8.4666e-4,0.041 0.002258,0.10877 0,0.2293 -0.001411,0.0864 0.001411,0.11944 0,0.23813 -1.6369e-4,0.0127 1.6368e-4,0.0137 0,0.0265 -5.6445e-4,0.0363 5.6444e-4,0.0349 0,0.0705 -0.001976,0.12256 -0.007225,0.22571 -0.008805,0.33514 -0.00381,0.19323 -0.0153811,0.49023 -0.0176389,0.49389 -0.001411,0.002 -0.36938659,0.009 -0.82020841,0.009 l -0.1234722,0 -0.6967362,0 -0.097014,-0.097 c -0.00381,-0.004 -0.013829,-0.0138 -0.017639,-0.0176 l -0.0088,-0.009 c -0.00254,-0.003 -0.00643,-0.006 -0.0088,-0.009 -0.0068,-0.007 -0.019558,-0.0283 -0.026444,-0.0353 -0.2886655,-0.2965 -0.5903864,-0.60518 -1.0406946,-1.08479 -0.016595,-0.0177 -0.010188,-0.0179 -0.026444,-0.0353 -0.00929,-0.01 -0.0081,-0.007 -0.017639,-0.0176 -0.068351,-0.0729 -0.07692,-0.0821 -0.1322917,-0.14111 -0.01366,-0.0146 -0.012418,-0.0115 -0.026444,-0.0265 -0.1564048,-0.16692 -0.1802667,-0.19078 -0.3086806,-0.32632 -0.085491,-0.0903 -0.2213582,-0.23497 -0.3086806,-0.32632 -0.00141,-9.8e-4 -0.00762,-0.008 -0.00881,-0.009 -0.00299,-0.003 -0.014958,-0.0149 -0.017639,-0.0176 -0.00881,-0.009 -0.055536,-0.0643 -0.061736,-0.0705 -0.00691,-0.007 -0.0031,-0.003 -0.00881,-0.009 l -0.035278,-0.0353 -0.017639,-0.0176 -0.00881,-0.009 -0.097014,0.009 c -0.00421,7e-5 -0.00452,-3e-5 -0.00881,0 l -0.00881,0 -0.088194,0 0,0.009 0,0.0265 c -5.645e-4,0.0199 -0.00282,0.051 0,0.10583 2.822e-4,0.009 -5.645e-4,0.008 0,0.0176 0.01603,0.33751 0.040268,1.02381 0.035278,1.03188 -0.00319,0.008 -0.036819,0.009 -0.493889,0.009 -0.1937004,4e-5 -0.2784517,-9.9e-4 -0.3615972,0 l -0.1411111,0 -0.00881,0 0,0.009 -0.00881,0.009 -0.00881,0.009 c -0.00113,9.8e-4 -0.00722,0.007 -0.00881,0.009 -0.015494,0.0162 -0.020602,0.0245 -0.044097,0.0529 -0.010188,0.0123 -0.015466,0.0132 -0.026444,0.0265 -0.00198,0.003 0.00198,0.006 0,0.009 -0.081921,0.0987 -0.1431968,0.16795 -0.3086806,0.35278 -0.017865,0.02 -0.014506,0.012 -0.035278,0.0353 -0.0044,0.005 -0.00432,0.004 -0.00881,0.009 -0.019558,0.0219 -0.012926,0.0191 -0.035278,0.0441 -0.02317,0.0261 -0.032416,0.0385 -0.052917,0.0617 -0.02636,0.0298 -0.039827,0.0454 -0.061736,0.0706 -0.051429,0.0593 -0.1245927,0.14186 -0.1675695,0.19403 -0.00581,0.007 -0.020743,0.0194 -0.026444,0.0265 -8.467e-4,9.9e-4 8.467e-4,0.008 0,0.009 l -0.00881,0.009 -0.044097,0.0529 c -8.466e-4,4.5e-4 -0.00813,-2.6e-4 -0.00881,0 -0.00739,0.003 -0.1265738,0.007 -0.1940278,0.009 -0.1142153,0.002 -0.3841299,-8e-5 -0.7584723,0 l -0.8025695,0 0,-0.68791 c 0,-0.078 1.27e-4,-0.10024 0,-0.17639 l 0,-0.86431 0.15875,-0.15875 c 0.020489,-0.0207 0.1178984,-0.11748 0.15875,-0.15875 0.012785,-0.0129 0.038317,-0.0471 0.052917,-0.0617 0.0208,-0.021 0.046996,-0.0467 0.070556,-0.0706 0.01239,-0.0125 0.039418,-0.0393 0.052917,-0.0529 0.1114101,-0.1125 0.099921,-0.0991 0.1940278,-0.19403 0.06582,-0.0666 0.09216,-0.0913 0.15875,-0.15875 0.03775,-0.0382 0.073999,-0.0736 0.1146528,-0.11466 0.047509,-0.048 0.088971,-0.0885 0.1322917,-0.13229 0.1387179,-0.14017 0.2575193,-0.24889 0.3968751,-0.38805 0.1326501,-0.13251 0.1390847,-0.14696 0.238125,-0.24695 0.031499,-0.0311 0.032625,-0.024 0.061736,-0.0529 0.011148,-0.0113 0.016228,-0.0249 0.026444,-0.0353 0.018937,-0.0186 0.017413,-0.0177 0.035278,-0.0353 0.1250132,-0.12247 0.2271946,-0.22589 0.2293056,-0.22931 0,-1.1e-4 5.36e-5,-0.009 0,-0.009 -0.00226,-0.006 -0.1536559,-0.17126 -0.2910417,-0.32632 -0.014845,-0.0167 -0.037256,-0.0442 -0.052917,-0.0617 -0.00198,-0.002 -0.00691,-0.007 -0.00881,-0.009 -0.005,-0.006 -0.012615,-0.0208 -0.017639,-0.0265 -0.011543,-0.0129 -0.041117,-0.0397 -0.052917,-0.0529 -0.019219,-0.0214 -0.059086,-0.0569 -0.079375,-0.0794 -0.052169,-0.0581 -0.1527867,-0.17319 -0.2116667,-0.23812 -0.00429,-0.005 -0.013321,-0.0129 -0.017639,-0.0176 -0.060881,-0.0669 -0.1274431,-0.1477 -0.1940278,-0.22049 -0.09766,-0.10649 -0.3706029,-0.40015 -0.5468056,-0.5909 -0.02827,-0.0305 -0.049225,-0.0556 -0.079375,-0.0882 -0.011769,-0.0127 -0.023142,-0.0221 -0.035278,-0.0353 -0.00409,-0.004 -0.00483,-0.004 -0.00881,-0.009 -0.020546,-0.0222 -0.032058,-0.0304 -0.052917,-0.0529 -0.1324497,-0.14308 -0.21682,-0.23798 -0.2822222,-0.30868 l -0.017822,-0.0176 c -0.0079,-0.009 -0.029467,-0.0378 -0.035278,-0.0441 l -0.052917,-0.0529 c -0.014958,-0.0161 -0.00971,-0.0169 -0.017639,-0.0265 -0.015861,-0.0191 -0.033839,-0.0412 -0.035278,-0.0529 -1.637e-4,-9.9e-4 1.919e-4,-0.0487 0,-0.0529 -2.512e-4,-0.006 2.709e-4,-0.0444 0,-0.0529 -5.36e-5,-0.002 5.36e-5,-0.0154 0,-0.0176 -5.644e-4,-0.0242 5.645e-4,-0.0819 0,-0.11465 -0.00739,-0.32996 -0.02588,-0.97154 -0.026444,-1.26118 -9.03e-5,-0.0286 -2.314e-4,-0.0619 0,-0.0794 5.644e-4,-0.0369 0.00683,-0.16507 0.00881,-0.16757 0.00198,-0.003 0.2349304,-0.007 0.2998612,-0.009 0.1094062,-7.7e-4 0.1364036,4.1e-4 0.2998611,0 0.3234295,-8.1e-4 0.6199379,-0.007 0.6879167,-0.009 l 0.1146528,0 0.00881,0 0.1411111,0.14111 c 0.013264,0.0123 0.1713145,0.18054 0.2028472,0.21167 0.1183444,0.12031 0.2222077,0.21971 0.3792362,0.37924 0.07878,0.0796 0.1196481,0.11797 0.2293056,0.2293 0.097911,0.0996 0.1396013,0.14659 0.238125,0.24695 0.089769,0.0913 0.03733,0.0354 0.1411111,0.14111 0.033141,0.0337 0.08945,0.0978 0.1146528,0.12347 0.4784881,0.48713 0.5648029,0.57489 0.6614584,0.67028 0.014986,0.0153 0.097841,0.0976 0.1058333,0.10583 0.054009,0.0556 0.098978,0.0933 0.1058334,0.097 0.0066,-0.004 0.068941,-0.0602 0.1411111,-0.13229 l 0.1499306,-0.14111 0,-0.009 0,-0.009 c -0.00113,-0.005 -0.00683,-0.0381 -0.00881,-0.0529 -2.822e-4,-0.003 2.823e-4,-0.006 0,-0.009 -0.00113,-0.009 0.00113,-0.0177 0,-0.0265 -0.00711,-0.054 -0.014591,-0.11273 -0.017639,-0.16757 -2.822e-4,-0.006 2.823e-4,-0.0114 0,-0.0176 -2.822e-4,-0.008 2.823e-4,-0.0178 0,-0.0265 -0.00319,-0.0985 -0.00361,-0.20657 0,-0.29986 2.823e-4,-0.011 -5.644e-4,-0.0261 0,-0.0353 0.00113,-0.0149 -0.00141,-0.0291 0,-0.0441 0.00141,-0.0153 0.00643,-0.0403 0.00881,-0.0617 5.644e-4,-0.006 -5.645e-4,-0.0116 0,-0.0176 2.822e-4,-0.003 -2.822e-4,-0.006 0,-0.009 2.822e-4,-0.003 -2.822e-4,-0.006 0,-0.009 0.00226,-0.0187 0.00683,-0.0375 0.00881,-0.0529 0.00282,-0.0208 0.00562,-0.041 0.00881,-0.0617 0.00531,-0.0344 0.011119,-0.0718 0.017639,-0.10583 0.00226,-0.0119 0.00643,-0.0234 0.00881,-0.0353 0.010442,-0.0505 0.022126,-0.10011 0.035278,-0.14993 0.00381,-0.0147 0.00483,-0.0294 0.00881,-0.0441 0.0083,-0.0299 0.017216,-0.0587 0.026444,-0.0882 0.00113,-0.004 0.0077,-0.005 0.00881,-0.009 0.012361,-0.039 0.021308,-0.0764 0.035278,-0.11466 0.00198,-0.005 -0.00198,-0.0125 0,-0.0176 0.007,-0.0188 0.019078,-0.0343 0.026444,-0.0529 0.019784,-0.0499 0.039206,-0.1015 0.061736,-0.14993 0.013885,-0.0298 0.029156,-0.0589 0.044097,-0.0882 0.00779,-0.0153 0.018401,-0.029 0.026444,-0.0441 0.005,-0.009 0.012587,-0.0172 0.017639,-0.0265 0.018937,-0.0344 0.032475,-0.0722 0.052917,-0.10584 0.011119,-0.0183 0.023707,-0.0349 0.035278,-0.0529 0.00909,-0.0143 0.017074,-0.0301 0.026444,-0.0441 0.0059,-0.009 0.011684,-0.0178 0.017639,-0.0265 0.00226,-0.003 0.00652,-0.005 0.00881,-0.009 0.021251,-0.0307 0.039156,-0.0583 0.061736,-0.0882 0.017667,-0.0234 0.034468,-0.0477 0.052917,-0.0706 0.00511,-0.006 0.012446,-0.0113 0.017639,-0.0176 0.00226,-0.003 0.00601,-0.0143 0.00881,-0.0176 0.0035,-0.004 0.013462,-0.0128 0.017639,-0.0176 0.00581,-0.007 0.019276,-0.0184 0.026444,-0.0265 0.05553,-0.0617 0.1785536,-0.1853 0.2469445,-0.24695 0.00629,-0.006 0.011232,-0.0121 0.017639,-0.0176 0.00491,-0.004 0.012756,-0.005 0.017639,-0.009 0.042661,-0.0361 0.087339,-0.0728 0.1322917,-0.10583 0.00881,-0.006 0.017554,-0.0113 0.026444,-0.0176 0.00341,-0.002 0.00542,-0.006 0.00881,-0.009 0.016708,-0.0117 0.035797,-0.0239 0.052917,-0.0353 0.00531,-0.004 0.012305,-0.005 0.017639,-0.009 0.0033,-0.002 0.00553,-0.0156 0.00881,-0.0176 0.0055,-0.004 0.012136,-0.005 0.017639,-0.009 0.0055,-0.004 0.012079,-0.005 0.017639,-0.009 0.00341,-0.002 0.00553,-0.007 0.00881,-0.009 0.00881,-0.005 0.017611,-0.0123 0.026444,-0.0176 0.020122,-0.0122 0.041255,-0.0236 0.061736,-0.0353 0.03749,-0.0214 0.076059,-0.0423 0.1146528,-0.0617 0.011317,-0.006 0.023876,-0.0122 0.035278,-0.0176 0.011769,-0.006 0.023396,-0.0121 0.035278,-0.0176 0.011486,-0.005 0.023707,-0.0125 0.035278,-0.0176 0.023114,-0.0103 0.047145,-0.0168 0.070556,-0.0265 0.067239,-0.0276 0.133144,-0.0487 0.2028473,-0.0706 0.049019,-0.0154 0.09985,-0.0316 0.1499305,-0.0441 0.028939,-0.007 0.059174,-0.0114 0.088194,-0.0176 0.00889,-0.002 0.017498,-0.007 0.026444,-0.009 0.0083,-0.002 0.018147,0.002 0.026444,0 0.06803,-0.0131 0.1346172,-0.028 0.2028472,-0.0353 0.032549,-0.003 0.063305,-0.007 0.097014,-0.009 z m -0.061736,0.52035 c -0.081009,0.007 -0.1599551,0.024 -0.238125,0.0441 -0.2230092,0.0572 -0.3208189,0.0941 -0.4674306,0.16757 -0.2085058,0.10452 -0.3921534,0.25749 -0.555625,0.43215 -0.1350631,0.14431 -0.2523632,0.30923 -0.3439584,0.48507 -0.080309,0.15418 -0.1466257,0.30849 -0.1852084,0.47625 -0.033881,0.14732 -0.040606,0.17735 -0.052917,0.2293 -0.00739,0.0311 -0.00452,0.0661 -0.00881,0.097 -0.00751,0.0539 -0.017611,0.10526 -0.017639,0.17639 -3.67e-5,0.0815 0.007,0.14717 0.017639,0.2293 2.823e-4,0.003 -2.822e-4,0.006 0,0.009 0.011628,0.0869 0.027065,0.19619 0.061736,0.37042 0.042249,0.2123 0.042689,0.22275 0.035278,0.23812 -0.011543,0.0239 -0.098391,0.15334 -0.15875,0.22931 -0.068981,0.0868 -0.1446643,0.17582 -0.3175,0.37042 -0.1177911,0.13262 -0.179197,0.21237 -0.2293056,0.2734 -0.01047,0.0128 -0.045395,0.0433 -0.052917,0.0529 -0.007,0.007 -0.023989,0.0263 -0.026444,0.0265 -0.00409,4.8e-4 -0.023424,-0.0103 -0.035278,-0.0176 -0.028411,-0.0172 -0.07351,-0.0501 -0.1146527,-0.0882 -0.020743,-0.0192 -0.1085935,-0.11193 -0.1940278,-0.20285 -0.1609486,-0.17128 -0.3287382,-0.33966 -0.4850695,-0.50271 -0.13878,-0.14487 -0.2625316,-0.27586 -0.4233334,-0.44097 -0.00929,-0.01 -0.016651,-0.0252 -0.026444,-0.0353 -0.1287668,-0.13211 -0.6267366,-0.63769 -0.9436807,-0.96132 -0.04918,-0.0501 -0.1848245,-0.18459 -0.2028472,-0.20284 l -0.017639,-0.0176 -0.061736,-0.0706 -0.044097,-0.0353 0,-0.009 -0.3704167,0 -0.3615972,0 0,0.009 -0.00881,0.0882 c -9.31e-5,0.0156 5.645e-4,0.0406 0,0.0617 -0.00254,0.0859 -9.31e-5,0.22457 0,0.29986 5.645e-4,0.0309 -0.00226,0.0703 0,0.097 0.00113,0.0126 0.00731,0.0237 0.00881,0.0353 2.822e-4,0.003 -2.822e-4,0.006 0,0.009 0.00519,0.0468 0.0083,0.0854 0.026444,0.13229 8.467e-4,0.002 -8.467e-4,0.007 0,0.009 0.0066,0.0172 0.01493,0.0281 0.026444,0.0441 0.020348,0.0283 0.062851,0.0741 0.2028473,0.22048 0.072401,0.0757 0.3722483,0.37805 0.5379861,0.54681 0.00429,0.004 0.00463,0.005 0.00881,0.009 0.167894,0.17091 0.1985151,0.20319 0.5379861,0.5468 0.3549622,0.35929 0.53202,0.54619 0.7231945,0.74966 0.1987918,0.21158 0.4318114,0.46809 0.4409723,0.48507 0.0033,0.006 -0.03915,0.0594 -0.2028472,0.22048 -0.024356,0.0243 -0.017385,0.0265 -0.044097,0.0529 -0.1164082,0.11527 -0.2568956,0.2634 -0.3704167,0.37923 -0.00621,0.006 -0.020179,0.0112 -0.026444,0.0176 l -0.07057,0.0794 c -0.1670247,0.17176 -0.2791008,0.27269 -0.555625,0.56444 -0.3447796,0.36377 -0.521781,0.55423 -0.7231945,0.75848 -0.04887,0.0496 -0.099991,0.1 -0.1411112,0.14111 -0.0096,0.01 -0.025654,0.0256 -0.035278,0.0353 -0.063161,0.0636 -0.07859,0.086 -0.1234723,0.1323 -0.00999,0.0103 -0.017639,0.0172 -0.026444,0.0265 -0.00531,0.005 -0.031248,0.0229 -0.035278,0.0265 -0.010611,0.0109 -0.036127,0.0444 -0.044097,0.0529 -8.467e-4,8.2e-4 -0.00813,-7.6e-4 -0.00881,0 -0.00951,0.0106 -0.018711,0.0245 -0.026444,0.0353 -0.00141,0.002 -0.017046,0.0167 -0.017639,0.0176 -0.00421,0.006 -0.00471,0.0187 -0.00881,0.0265 -0.00198,0.004 -0.00691,0.005 -0.00881,0.009 -0.00113,0.002 0.00113,0.006 0,0.009 -0.00141,0.003 -0.00742,0.006 -0.00881,0.009 -0.00361,0.008 -0.00581,0.0179 -0.00881,0.0265 -0.00282,0.007 0.00226,0.0185 0,0.0265 -0.00113,0.004 -0.0077,0.005 -0.00881,0.009 -0.00141,0.005 0.00141,0.0119 0,0.0176 -8.467e-4,0.004 -0.00802,0.005 -0.00881,0.009 -0.00113,0.006 0.00113,0.0193 0,0.0265 -0.00319,0.0186 -0.00711,0.041 -0.00881,0.0617 -0.00299,0.049 -0.00198,0.10513 0,0.16757 0.00113,0.0221 -0.00169,0.0213 0,0.0529 1.947e-4,0.003 -1.947e-4,0.005 0,0.009 1.637e-4,0.003 -1.834e-4,0.006 0,0.009 1.863e-4,0.004 -2.004e-4,0.005 0,0.009 0.00361,0.0592 -5.36e-5,0.13308 0,0.17638 3.67e-5,0.0461 0.00612,0.0719 0.00881,0.0794 l 0,0.009 0.070556,0 c 0.1104166,0.004 0.6498252,0.004 0.7231945,0 l 0.061736,0 0,-0.009 0.1852084,-0.19403 c 0.012982,-0.0137 0.012841,-0.012 0.026444,-0.0265 0.00429,-0.005 0.00463,-0.004 0.00881,-0.009 0.00802,-0.009 0.00991,-0.009 0.017639,-0.0176 0.2527301,-0.2676 0.4214143,-0.44512 0.5203473,-0.54681 0.00821,-0.008 0.036997,-0.0368 0.044097,-0.0441 l 0.079375,-0.0794 0.026444,-0.009 c 0.00429,-0.002 0.012615,-0.007 0.017639,-0.009 l 0.017639,0 c 0.071509,-0.0208 0.1387658,-0.0391 0.2293055,-0.0529 0.09512,-0.0144 0.2117203,-0.0297 0.3792362,-0.0441 0.08524,-0.007 0.1722459,-0.0158 0.1940278,-0.0176 0.0066,-7.7e-4 0.033398,3.6e-4 0.035278,0 l 0.017639,0 0,-0.009 0.00881,-0.27341 c 0.00169,-0.15471 -2.822e-4,-0.39228 0,-0.52916 5.644e-4,-0.20546 0.00291,-0.24981 0.00881,-0.25577 0.0081,-0.008 0.1121918,-0.0185 0.3615973,-0.0353 0.2275473,-0.0153 0.4910441,-0.0304 0.5644445,-0.0265 l 0.035278,0.0353 0.070556,0.0617 c 0.00226,0.002 -0.00226,0.006 0,0.009 0.015804,0.0169 0.028456,0.0273 0.044097,0.0441 0.1257639,0.13444 0.2440009,0.25394 0.4409723,0.45861 0.0059,0.006 0.00282,0.0114 0.00881,0.0176 0.0794,0.0825 0.062921,0.0605 0.1234723,0.12347 0.00739,0.008 0.00113,0.01 0.00881,0.0176 0.00711,0.007 0.010499,0.0102 0.017639,0.0176 0.2743793,0.28565 0.4595679,0.48496 0.5820834,0.61736 0.052561,0.0568 0.1369427,0.14893 0.1852083,0.20285 0.048271,0.0539 0.1092793,0.11696 0.1322917,0.14111 0.01445,0.0152 0.060373,0.0566 0.097014,0.097 0.0072,0.008 0.01064,0.0186 0.017639,0.0265 0.013377,0.0149 0.022211,0.0206 0.035278,0.0353 0.049931,0.0548 0.09972,0.10846 0.1411111,0.14993 0.00381,0.004 0.00511,0.014 0.0088,0.0176 0.012841,0.0127 0.02365,0.0154 0.035278,0.0264 0.028931,0.0271 0.053986,0.0597 0.079375,0.0794 0.024328,0.0188 0.038628,0.0173 0.052917,0.0265 0.00291,0.002 0.00601,0.007 0.00881,0.009 0.00739,0.004 0.018514,0.0152 0.026444,0.0176 0.00226,7e-4 0.00621,-5.4e-4 0.00881,0 0.00539,9.8e-4 0.020038,-9.1e-4 0.026444,0 0.019502,0.003 0.031044,0.007 0.070556,0.009 0.011825,4.2e-4 0.011684,-5.1e-4 0.026444,0 0.1879741,0.007 0.4971994,-0.003 0.58208338,-0.0176 0.005701,-9.6e-4 0.0143087,9.8e-4 0.0176389,0 5.6445e-4,-2.6e-4 0.008523,2.5e-4 0.008805,0 5.6444e-4,-6e-4 -8.4667e-4,-0.007 0,-0.009 0.003189,-0.004 0.005419,-0.009 0.008805,-0.0176 0.001693,-0.005 0.007225,-0.003 0.008805,-0.009 0.0266982,-0.0865 0.0261056,-0.1705 0.0176389,-0.37042 -0.001411,-0.0333 8.4666e-4,-0.0492 0,-0.0794 -0.001129,-0.047 -8.4667e-4,-0.10963 0,-0.12347 l 0,-0.0353 -0.008805,-0.009 -0.42333338,-0.41452 c -0.016476,-0.0164 -0.05984,-0.0689 -0.07929,-0.0882 -0.04033,-0.04 -0.1188748,-0.11049 -0.1675695,-0.15875 -0.5815246,-0.576 -0.7285596,-0.7305 -0.9789584,-0.97896 -0.2789005,-0.27638 -0.4396854,-0.43165 -0.5379862,-0.52917 -0.08242,-0.0824 -0.1089096,-0.1074 -0.1322917,-0.13229 -0.02982,-0.0298 -0.036647,-0.0469 -0.044097,-0.0706 l -0.00881,-0.0265 c -1.7e-5,-9.6e-4 0.00782,-0.0153 0.00881,-0.0176 0.00282,-0.005 0.013462,-0.02 0.017639,-0.0265 0.029021,-0.0446 0.08603,-0.11908 0.1322917,-0.17639 0.06613,-0.0819 0.1222953,-0.14674 0.2822222,-0.3175 0.1621226,-0.1731 0.2225915,-0.24229 0.2910417,-0.32632 0.026331,-0.0327 0.048937,-0.0608 0.052917,-0.0617 0.00254,0 0.030686,0.0168 0.061736,0.0353 0.073889,0.0439 0.1567152,0.0804 0.238125,0.11466 0.1339005,0.0564 0.2716023,0.0959 0.414514,0.12347 0.00909,0.002 0.017385,0.007 0.026444,0.009 0.00861,0.002 0.017893,-9.9e-4 0.026444,0 0.1210959,0.0202 0.244619,0.0295 0.3615973,0.0265 0.019953,-5.1e-4 0.042045,9.9e-4 0.061736,0 0.047529,-0.003 0.08752,-0.012 0.1322916,-0.0176 0.0638302,-0.008 0.12539703,-0.0126 0.18520839,-0.0265 0.12364721,-0.0291 0.24723798,-0.0681 0.36159726,-0.12347 0.0955097,-0.0467 0.1890635,-0.10714 0.29104169,-0.17639 0.0316512,-0.0215 0.0579656,-0.0471 0.0881945,-0.0706 0.0625912,-0.0484 0.12011373,-0.10273 0.17638883,-0.15875 0.23259629,-0.23157 0.41758169,-0.51973 0.52916669,-0.8643 0.044851,-0.13849 0.075873,-0.29629 0.097014,-0.46743 0.013208,-0.1069 0.013095,-0.40413 0,-0.51153 -0.038602,-0.31682 -0.1303302,-0.61134 -0.2733746,-0.85549 -0.049759,-0.0849 -0.1421243,-0.22626 -0.1940278,-0.29104 -0.24048992,-0.30013 -0.57701737,-0.52942 -0.94368052,-0.65264 -0.16737755,-0.0562 -0.33697054,-0.0887 -0.50270834,-0.097 -0.082869,-0.004 -0.1659383,-0.007 -0.2469445,0 z m 0.74083338,0.96132 c 0.38981667,0 0.70555563,0.33993 0.70555563,0.76729 0,0.42737 -0.31573896,0.77611 -0.70555563,0.77611 -0.38981668,0 -0.70555558,-0.34874 -0.70555558,-0.77611 0,-0.42736 0.3157389,-0.76729 0.70555558,-0.76729 z"
           style="fill:#548641;fill-opacity:1;stroke:#4d9631;stroke-width:0.04233334;stroke-miterlimit:4;stroke-opacity:1;stroke-dasharray:none"
           id="path3985"
           inkscape:connector-curvature="0" />
        <path
           style="fill:#1a2414;fill-opacity:1;stroke:none"
           d="m -1.1771951,396.4134 c -0.3136841,0.002 -0.32804,0.004 -0.5229332,0.0442 -0.4451652,0.0915 -0.8676891,0.2849 -1.2373632,0.55976 -0.425447,0.31632 -0.7740331,0.76626 -0.9795792,1.25946 -0.09341,0.22412 -0.1788666,0.51637 -0.2209577,0.78072 -0.0236,0.14823 -0.043022,0.3704 -0.044192,0.47874 -0.02082,-0.0212 -0.040997,-0.0472 -0.066287,-0.0736 -0.2344949,-0.24469 -0.5068372,-0.52125 -1.1489801,-1.17108 -0.3468172,-0.35098 -0.6571349,-0.66375 -0.684969,-0.69233 l -0.058922,-0.0589 -0.01473,-0.0147 -0.022096,0 -0.7586215,0.0147 c -0.418941,0.006 -0.8562009,0.0127 -0.9722139,0.0147 l -0.2135925,0 -0.051557,0 0,0.0516 0,1.08269 0,1.07533 0,0.0147 0.014731,0.0147 0.066287,0.0884 c 0.2755801,0.35158 0.5429611,0.65315 1.1784412,1.33311 0.210138,0.22485 0.3953394,0.42458 0.5302985,0.57449 0.06748,0.075 0.1248556,0.14112 0.1620357,0.18413 0.01549,0.0179 0.027736,0.0258 0.036826,0.0368 -0.008,0.009 -0.016951,0.0164 -0.029461,0.0295 -0.03468,0.0363 -0.09059,0.0828 -0.1546704,0.1473 -0.1281559,0.12901 -0.307361,0.30981 -0.515568,0.51557 -0.5321381,0.52584 -0.7764251,0.78103 -1.0090402,1.0385 -0.06897,0.0763 -0.1974495,0.23126 -0.2430535,0.28725 l -0.022096,0.0147 -0.014731,0.0147 0,0.0221 0,1.05323 0,1.05324 0,0.0368 0.036826,0.0147 0.029461,0.007 0.00737,0 c 0.01495,0.002 0.0805,0.01 0.1473051,0.0147 0.1102429,0.008 0.2253356,0.007 1.1342496,0.007 0.4425601,0 0.6970022,9.7e-4 0.8396393,0 0.07132,-4.8e-4 0.1121459,-0.006 0.1399399,-0.007 0.0139,-5.4e-4 0.021131,9.4e-4 0.029461,0 0.0083,-9.5e-4 0.015636,6.8e-4 0.036826,-0.0147 0.0075,-0.005 0.00577,-0.006 0.00737,-0.007 0.0016,-0.002 0.00577,0.002 0.00737,0 0.0032,-0.004 0.00277,-0.009 0.00737,-0.0147 0.0091,-0.0108 0.022246,-0.0267 0.036826,-0.0442 0.02916,-0.0351 0.06853,-0.084 0.1104789,-0.13257 0.0843,-0.0977 0.1783822,-0.20386 0.2062272,-0.23569 0.02498,-0.0285 0.1440269,-0.1573 0.257784,-0.28725 0.0565,-0.0646 0.1134343,-0.12289 0.1546704,-0.1694 0.04124,-0.0465 0.070742,-0.078 0.073652,-0.081 l 0,-0.007 0.00737,0 0.5744901,0 c 0.169477,0 0.3187339,-3.7e-4 0.4271849,0 0.05423,1.9e-4 0.1020587,1.4e-4 0.1325746,0 0.01526,-7e-5 0.020751,2.2e-4 0.029461,0 0.0044,-1.1e-4 0.011271,2.4e-4 0.014731,0 0.0017,-1.2e-4 0.00437,4.5e-4 0.00737,0 0.0015,-2.2e-4 0.00717,-0.007 0.00737,-0.007 7.59e-5,-3e-5 0.00727,2e-5 0.00737,0 l 0.00737,-0.007 c 7e-6,-10e-6 0.00417,-0.004 0.00737,-0.007 l 0.00737,0 c 0.0012,-10e-4 -1.9e-6,-0.007 0,-0.007 0.0012,-0.003 -9e-6,-0.007 0,-0.007 1.79e-5,-5e-5 0.00707,-0.006 0.00737,-0.007 3.02e-4,-0.003 -7.09e-5,-0.006 0,-0.007 1.419e-4,-0.003 -7e-6,-0.004 0,-0.007 1.51e-5,-0.007 2.859e-4,-0.0235 0,-0.0368 -5.72e-4,-0.0267 -0.00557,-0.0606 -0.00737,-0.11784 -0.0036,-0.11295 -0.006,-0.29558 -0.014731,-0.55976 0.03119,0.0315 0.06529,0.0702 0.1104788,0.11784 0.192361,0.2029 0.1958951,0.20549 0.4640112,0.49347 0.307174,0.32995 0.4886312,0.52708 0.9501182,1.00904 l 0.228323,0.23569 0.01473,0.0147 0.022096,0 0.96484866,0 c 0.531506,0 1.0143557,-0.007 1.0753275,-0.007 l 0.1178441,0 0.051557,0 0,-0.0516 0,-0.21359 c 0.0074,-0.49842 0.022152,-1.47888 0.022096,-1.62036 l 0,-0.1473 0,-0.0221 -0.01473,-0.0147 -0.058922,-0.0589 c -0.115087,-0.1206 -0.2301573,-0.2438 -0.5523943,-0.58922 -0.1802169,-0.19318 -0.3691773,-0.39603 -0.4198196,-0.44928 -0.049668,-0.0522 -0.104525,-0.11023 -0.1252094,-0.13258 -0.03165,-0.0342 -0.1380576,-0.14036 -0.23568816,-0.24305 -0.048815,-0.0514 -0.096702,-0.10245 -0.1325747,-0.13994 -0.00299,-0.003 -0.00454,-0.004 -0.00737,-0.007 0.016971,-2.2e-4 0.020188,5.4e-4 0.044192,0 0.1588722,-0.003 0.25747586,-0.0152 0.39772386,-0.0368 0.5430698,-0.0834 1.0666358,-0.32516 1.4951472,-0.68497 0.1278863,-0.10738 0.2829482,-0.27081 0.39035874,-0.40509 0.1228696,-0.1536 0.2676619,-0.36756 0.3608976,-0.5524 0.1854413,-0.36764 0.2850948,-0.73638 0.3240713,-1.17844 0.011567,-0.13124 0.014223,-0.43062 0,-0.57449 -0.032317,-0.32688 -0.1077911,-0.6256 -0.2209577,-0.92065 -0.061791,-0.1611 -0.1103976,-0.26899 -0.198862,-0.41246 -0.47811764,-0.77542 -1.29565034,-1.32232 -2.18748144,-1.46568 -0.016731,-0.003 -0.033596,8.7e-4 -0.044192,0 -0.0023,-0.001 -0.00595,4.5e-4 -0.00737,0 -0.00282,-9.1e-4 -0.00576,-0.007 -0.00737,-0.007 -0.00321,-6.8e-4 -0.00483,3.2e-4 -0.00737,0 -0.00508,-6.4e-4 -0.00776,5e-4 -0.014731,0 -0.013948,-9.9e-4 -0.033895,8e-4 -0.058922,0 -0.050054,-0.002 -0.12482776,-0.008 -0.22095766,-0.007 l 0,-0.007 z m -0.00737,0.40509 c 0.32217643,-2.6e-4 0.58485993,0.0461 0.91329193,0.17676 0.1284051,0.0511 0.2922882,0.15097 0.4198196,0.23569 0.47401623,0.31495 0.85955627,0.80975 1.05323187,1.38467 0.151388,0.44938 0.1772036,0.91375 0.088383,1.35521 -0.019163,0.0952 -0.023718,0.13871 -0.081018,0.33144 -0.1005258,0.33817 -0.26942754,0.64399 -0.50820284,0.92802 -0.067266,0.08 -0.2294531,0.24279 -0.3093408,0.30934 -0.40778823,0.33966 -0.87652073,0.5275 -1.36993783,0.57449 -0.088859,0.009 -0.21939923,0.0104 -0.48610703,0 -0.1447685,-0.006 -0.1480839,-9.5e-4 -0.3682628,-0.0737 -0.1469496,-0.0483 -0.1991965,-0.0622 -0.2798797,-0.0663 -0.03409,-0.002 -0.066388,0.004 -0.095748,0.007 -0.01468,0.002 -0.024736,0.004 -0.036826,0.007 -0.006,10e-4 -0.015266,-0.003 -0.022096,0 -0.0068,0.003 -0.018441,0.004 -0.029461,0.0221 -6.5e-5,1.1e-4 -0.00727,0.022 -0.00737,0.0221 -3e-5,1.5e-4 -7.7e-5,0.004 0,0.007 1.54e-4,0.006 0.00657,0.0118 0.00737,0.0147 0.0016,0.006 -0.0015,0.0115 0,0.0147 0.003,0.006 0.010871,0.008 0.01473,0.0147 0.0077,0.0127 0.017431,0.027 0.029461,0.0442 0.02407,0.0343 0.053468,0.0763 0.081018,0.11048 0.0533,0.066 0.06204,0.095 0.3829934,0.43455 0.5970027,0.6315 1.29879033,1.36993 1.60562593,1.70874 l 0.036826,0.0442 0,0.0516 c -0.00208,0.0421 -0.00446,0.25311 -0.00737,0.4861 -0.00288,0.23542 -0.00308,0.45961 -0.00737,0.62605 -0.00214,0.0832 -0.00557,0.15075 -0.00737,0.19886 -5.627e-4,0.015 4.954e-4,0.026 0,0.0368 -0.00788,1.8e-4 -0.011919,-2e-4 -0.022096,0 -0.041837,7.9e-4 -0.1021211,-8.1e-4 -0.1767662,0 -0.1492903,0.002 -0.3558258,10e-5 -0.5818553,0 l -0.80281303,0 -0.088383,-0.0958 c -0.2695738,-0.27242 -0.5270822,-0.5407 -1.2079022,-1.26682 -0.3844441,-0.41002 -0.6792889,-0.71326 -0.7954478,-0.83228 l -0.066287,-0.0736 -0.01473,-0.0221 -0.022096,0 -0.1031136,0 -0.1031136,0.007 -0.051557,0.007 0,0.0442 0,0.0295 c 5.18e-4,0.0147 0.00427,0.0425 0.00737,0.081 0.003,0.0385 0.00527,0.0838 0.00737,0.13258 0.0095,0.22076 0.018236,0.45482 0.022096,0.63341 0.0019,0.0893 0.00696,0.16703 0.00736,0.22096 1.2e-4,0.0203 -0.00726,0.0307 -0.00736,0.0442 -0.0093,7e-4 -0.013051,0.007 -0.029461,0.007 -0.06466,0.002 -0.1860636,-4.9e-4 -0.4198197,0 l -0.5008375,0 -0.01473,0 -0.01473,0.007 -0.022096,0.0147 -0.00737,0.007 0,0.007 c -0.07701,0.0973 -0.2889048,0.33553 -0.4787417,0.54503 -0.07526,0.0831 -0.216265,0.25949 -0.2872451,0.34617 l -0.051557,0.0589 -0.01473,0 -0.00737,0 c 0.0033,-3.3e-4 -0.0075,-3.2e-4 -0.022096,0 -0.01457,3.1e-4 -0.034052,0.007 -0.058922,0.007 -0.04974,6.4e-4 -0.11799,-6.2e-4 -0.1988619,0 -0.161743,0.001 -0.3716363,-8.6e-4 -0.5818553,0 -0.2102191,8.6e-4 -0.4241413,-1.1e-4 -0.5818554,0 -0.07886,6e-5 -0.1447797,2e-4 -0.1914966,0 -0.01669,-7e-5 -0.025386,1.1e-4 -0.036826,0 l 0,-0.81755 0,-0.83964 0.6334121,-0.64078 c 0.354724,-0.35847 0.8208583,-0.82965 1.0385013,-1.04586 0.111094,-0.11037 0.2079566,-0.20846 0.2798797,-0.27988 0.03596,-0.0357 0.068213,-0.0678 0.088383,-0.0884 0.01009,-0.0103 0.016306,-0.0159 0.022096,-0.0221 0.0029,-0.003 0.00487,-0.004 0.00737,-0.007 0.0012,-0.001 0.00527,-0.004 0.00737,-0.007 0.001,-0.002 -6.41e-5,-0.007 0,-0.007 3.21e-5,-7e-5 0.00727,-0.0147 0.00737,-0.0147 5.8e-6,-3e-5 0,-0.007 0,-0.007 0,-3e-5 -0.00737,-0.0147 -0.00737,-0.0147 -7.4e-5,-1.9e-4 0.001,-0.0131 0,-0.0147 -10e-4,-0.002 -0.00657,10e-4 -0.00737,0 -0.0015,-0.002 0.0016,-0.005 0,-0.007 -0.0032,-0.004 -0.0097,-0.009 -0.014731,-0.0147 -0.01011,-0.012 -0.026602,-0.0314 -0.044191,-0.0516 -0.03519,-0.0402 -0.08253,-0.0903 -0.1399399,-0.15467 -0.114808,-0.12872 -0.2622128,-0.29208 -0.3977239,-0.44191 -0.2480449,-0.27426 -0.4739891,-0.52523 -1.031136,-1.12689 -0.1615289,-0.17443 -0.3271482,-0.35983 -0.3756281,-0.41245 l -0.073653,-0.081 -0.00737,-0.11048 c -0.0039,-0.15442 -0.007,-0.61593 -0.014731,-1.2079 -0.0021,-0.16058 -0.00727,-0.27147 -0.00737,-0.3388 -7.1e-6,-0.0262 -3.071e-4,-0.0369 0,-0.0516 0.01699,-6.9e-4 0.037253,4.4e-4 0.073653,0 0.08737,-10e-4 0.2363189,1.2e-4 0.4861069,0 0.3292369,0 0.6383015,-0.005 0.6996995,-0.007 l 0.088383,0 0.00737,0 c -0.0024,-0.002 0.010981,0.0109 0.029461,0.0295 0.01849,0.0186 0.041023,0.0479 0.073653,0.081 0.06527,0.0662 0.1594085,0.15725 0.2725145,0.27251 0.2262119,0.23051 0.5343719,0.55006 0.8838309,0.90593 0.41421,0.42182 0.6750891,0.68188 0.8322741,0.83964 0.07859,0.0789 0.1354328,0.12882 0.1694009,0.16203 0.01698,0.0166 0.028226,0.0288 0.036826,0.0368 0.0043,0.004 0.00426,0.0121 0.00736,0.0147 0.0015,9.9e-4 0.00527,-0.002 0.00737,0 0.001,7.8e-4 -0.0021,0.006 0,0.007 0.001,6.5e-4 0.00727,-4e-5 0.00737,0 8.11e-5,4e-5 0.00726,-1e-5 0.00737,0 l 0,0.007 0.01473,0 c 3.51e-5,0 0.00727,10e-6 0.00737,0 8.69e-5,-2e-5 0.01264,-0.006 0.014731,-0.007 0.0042,-0.002 0.00567,10e-4 0.00737,0 0.0034,-0.002 0.00536,-0.006 0.00737,-0.007 0.0039,-0.003 0.00286,-0.003 0.00736,-0.007 0.0089,-0.008 0.023086,-0.0238 0.036826,-0.0368 0.02747,-0.026 0.06469,-0.0566 0.1031136,-0.0958 0.06871,-0.0701 0.0981,-0.10757 0.1178441,-0.13258 0.0099,-0.0125 0.017406,-0.0217 0.022096,-0.0368 0.0047,-0.0152 0.00807,-0.0326 0.00737,-0.0368 -0.02029,-0.11688 -0.034111,-0.35874 -0.029461,-0.50084 0.0225,-0.6915 0.2625595,-1.30841 0.6996995,-1.78239 0.330301,-0.35813 0.7372572,-0.61265 1.1931716,-0.73652 0.2299947,-0.0625 0.4098968,-0.0808 0.6481427,-0.081 z m 0.52293323,1.32575 c -0.051078,-0.004 -0.088294,-4.8e-4 -0.1252093,0.007 -0.058013,0.0129 -0.1281393,0.0383 -0.1841315,0.0663 -0.25924763,0.12939 -0.43831373,0.40251 -0.47874173,0.73652 -0.00811,0.0667 -0.00817,0.2063 0,0.27252 0.028918,0.23394 0.1230351,0.42547 0.2725145,0.57449 0.072391,0.0722 0.1269103,0.1089 0.24305353,0.1694 0.1140151,0.0594 0.1761739,0.0859 0.2725145,0.10311 0.077297,0.0137 0.2217216,0.01 0.3019756,-0.007 0.1675394,-0.0362 0.3363916,-0.12772 0.4566459,-0.23569 0.17608273,-0.15811 0.28088403,-0.35589 0.27987983,-0.56713 -2.227e-4,-0.0402 -0.00407,-0.0769 -0.00737,-0.0957 -9.265e-4,-0.005 -0.00325,-0.04 0,-0.0737 0.03041,-0.31669 -0.17161633,-0.62355 -0.52293323,-0.80281 -0.1602826,-0.0818 -0.3598863,-0.13647 -0.5082028,-0.1473 z m -0.044192,0.16203 c 0.059023,-0.006 0.1103367,-0.005 0.1767662,0.0147 0.1527736,0.0443 0.3076357,0.16597 0.3977238,0.32407 0.081909,0.14373 0.1017029,0.31119 0.066287,0.45665 -0.036273,0.14898 -0.085026,0.24106 -0.1841315,0.3388 -0.092305,0.091 -0.2018403,0.15189 -0.3240713,0.17677 -0.037145,0.007 -0.071323,0.015 -0.1104788,0.0147 -0.084382,-6.3e-4 -0.1347884,-0.0155 -0.2062272,-0.0516 -0.040381,-0.0204 -0.17990773,-0.12126 -0.21359253,-0.15467 -0.1495482,-0.14831 -0.206159,-0.38561 -0.1473051,-0.61868 0.054097,-0.21424 0.1705423,-0.36364 0.35353233,-0.44928 0.068447,-0.032 0.1316791,-0.0459 0.1914967,-0.0516 z"
           id="path3987"
           inkscape:connector-curvature="0" />
      </g>
    </g>
  </g>
</svg>
