<?xml version="1.0" encoding="UTF-8" standalone="no"?>
<!-- Created using Karbon, part of Calligra: http://www.calligra.org/karbon -->

<svg
   xmlns:dc="http://purl.org/dc/elements/1.1/"
   xmlns:cc="http://creativecommons.org/ns#"
   xmlns:rdf="http://www.w3.org/1999/02/22-rdf-syntax-ns#"
   xmlns:svg="http://www.w3.org/2000/svg"
   xmlns="http://www.w3.org/2000/svg"
   xmlns:sodipodi="http://sodipodi.sourceforge.net/DTD/sodipodi-0.dtd"
   xmlns:inkscape="http://www.inkscape.org/namespaces/inkscape"
   width="38.4pt"
   height="38.4pt"
   id="svg2"
   version="1.1"
   inkscape:version="0.48.5 r10040"
   sodipodi:docname="pandora.svg">
  <metadata
     id="metadata16">
    <rdf:RDF>
      <cc:Work
         rdf:about="">
        <dc:format>image/svg+xml</dc:format>
        <dc:type
           rdf:resource="http://purl.org/dc/dcmitype/StillImage" />
        <dc:title />
      </cc:Work>
    </rdf:RDF>
  </metadata>
  <sodipodi:namedview
     pagecolor="#ffffff"
     bordercolor="#666666"
     borderopacity="1"
     objecttolerance="10"
     gridtolerance="10"
     guidetolerance="10"
     inkscape:pageopacity="0"
     inkscape:pageshadow="2"
     inkscape:window-width="1537"
     inkscape:window-height="876"
     id="namedview14"
     showgrid="false"
     inkscape:showpageshadow="false"
     borderlayer="true"
     inkscape:zoom="14.020493"
     inkscape:cx="39.464759"
     inkscape:cy="6.4368012"
     inkscape:window-x="63"
     inkscape:window-y="24"
     inkscape:window-maximized="1"
     inkscape:current-layer="svg2">
    <sodipodi:guide
       position="9.5367432e-07,48.000001"
       orientation="47.999999,0"
       id="guide4074" />
    <sodipodi:guide
       position="48,1.9073486e-06"
       orientation="-47.999999,0"
       id="guide4078" />
    <sodipodi:guide
       position="48,48.000001"
       orientation="0,-47.999999"
       id="guide4080" />
    <sodipodi:guide
       position="4.000001,44.000001"
       orientation="39.999999,0"
       id="guide4082" />
    <sodipodi:guide
       position="77.131867,4.0350675"
       orientation="0,39.999999"
       id="guide4084" />
    <sodipodi:guide
       position="44,4.0000019"
       orientation="-39.999999,0"
       id="guide4086" />
    <sodipodi:guide
       position="44,44.000001"
       orientation="0,-39.999999"
       id="guide4088" />
    <sodipodi:guide
       position="12,26.847458"
       orientation="31.999999,0"
       id="guide4094" />
    <sodipodi:guide
       position="50.135593,12"
       orientation="0,31.999999"
       id="guide4096" />
    <sodipodi:guide
       position="25.923254,36.026491"
       orientation="0,-17.999999"
       id="guide4110" />
    <sodipodi:guide
       position="36,26.288136"
       orientation="-9,0"
       id="guide4124" />
  </sodipodi:namedview>
  <defs
     id="defs4" />
  <path
     style="fill:#f1cb6d;fill-opacity:1;stroke:none"
     d="m 42.96884,17.84375 c 0.166247,0.510462 0.314166,1.046145 0.4375,1.5625 -0.124142,-0.519351 -0.269873,-1.04901 -0.4375,-1.5625 z m 0.78125,3.375 c 0.04467,0.313238 0.06422,0.623837 0.09375,0.9375 -0.02931,-0.313992 -0.04931,-0.623944 -0.09375,-0.9375 z m 0.1875,2.375 c 0.01078,0.519669 -0.0016,1.045708 -0.03125,1.5625 0.03005,-0.519547 0.0422,-1.040045 0.03125,-1.5625 z m -3.96875,6.15625 -1.75,1 2.4375,4.21875 c 0.424763,-0.646697 0.811573,-1.313027 1.15625,-2 L 39.96884,29.75 z m 1.84375,3.21875 c 0.119043,-0.237265 0.234426,-0.477302 0.34375,-0.71875 -0.109939,0.24199 -0.224026,0.480922 -0.34375,0.71875 z M 42.15634,32.25 c 0.174808,-0.384778 0.350211,-0.761986 0.5,-1.15625 -0.147864,0.389842 -0.327727,0.775775 -0.5,1.15625 z m -4.78125,-1 -1.75,1 3.0625,5.28125 c 0.486532,-0.52794 0.921576,-1.085438 1.34375,-1.65625 L 37.37509,31.25 z m -2.59375,1.5 -1.75,1 3.40625,5.875 c 0.5365,-0.427018 1.017602,-0.903182 1.5,-1.375 l -3.15625,-5.5 z m 3.15625,5.5 0.03125,0.03125 c 0.237718,-0.232371 0.46287,-0.476034 0.6875,-0.71875 -0.222956,0.24085 -0.482599,0.456528 -0.71875,0.6875 z m -5.78125,-4 -1.71875,1 3.5,6.03125 0.65625,-0.375 c 0.60117,-0.378194 1.17169,-0.789292 1.71875,-1.21875 -0.232016,0.174459 -0.479994,0.360684 -0.71875,0.53125 L 32.15634,34.25 z m -2.59375,1.5 -1.71875,1 3.375,5.875 c 0.624971,-0.245871 1.234603,-0.53022 1.84375,-0.84375 l -3.5,-6.03125 z M 8.4063414,36.59375 c 0.1912806,0.236845 0.3933833,0.461344 0.59375,0.6875 -0.2010138,-0.227143 -0.4018595,-0.44964 -0.59375,-0.6875 z m 0.59375,0.6875 c 0.4260454,0.480881 0.8483892,0.943199 1.3124986,1.375 -0.4586672,-0.428356 -0.8910322,-0.898749 -1.3124986,-1.375 z M 26.96884,37.25 l -1.71875,1 3.03125,5.28125 c 0.663247,-0.149474 1.346377,-0.34244 2,-0.5625 L 26.96884,37.25 z m -2.59375,1.5 -1.71875,1 2.4375,4.21875 c 0.722887,-0.04224 1.435454,-0.127604 2.15625,-0.25 L 24.37509,38.75 z m 2.875,4.96875 0,0.03125 c 0.28422,-0.04818 0.560526,-0.127204 0.84375,-0.1875 -0.283898,0.06109 -0.558833,0.107869 -0.84375,0.15625 z m -16.75,-4.90625 c 0.407815,0.370221 0.816663,0.730259 1.25,1.0625 -0.432778,-0.333176 -0.842727,-0.691428 -1.25,-1.0625 z m 11.28125,1.4375 -1.75,1 1.5,2.59375 c 0.795351,0.09619 1.600926,0.156567 2.40625,0.15625 l -2.15625,-3.75 z m -0.25,3.59375 c -0.376502,-0.04541 -0.752109,-0.08971 -1.125,-0.15625 0.373371,0.06691 0.747925,0.110645 1.125,0.15625 z m -8.46875,-3.0625 c 0.319096,0.207004 0.639528,0.406013 0.96875,0.59375 -0.331343,-0.188364 -0.647646,-0.385903 -0.96875,-0.59375 z m 1.96875,1.125 c 0.216865,0.107863 0.435913,0.212735 0.65625,0.3125 -0.219457,-0.09895 -0.440219,-0.205544 -0.65625,-0.3125 z m 0.65625,0.3125 c 0.33133,0.149388 0.661552,0.306536 1,0.4375 -0.336748,-0.130955 -0.670347,-0.288238 -1,-0.4375 z m 2.53125,0.9375 c 0.355024,0.105977 0.702144,0.226392 1.0625,0.3125 -0.358475,-0.08565 -0.709255,-0.207271 -1.0625,-0.3125 z"
     id="rect4090"
     inkscape:connector-curvature="0" />
  <path
     id="path3104"
     d="M 13.935007,6.6794916 C 4.3394449,12.219492 1.0744989,24.404438 6.6144989,34 c 3.281706,5.684081 8.9041701,9.129882 14.9282031,9.856406 l -1.5,-2.598076 1.732051,-1 2.15625,3.734734 c 0.385096,-2.7e-5 0.761363,0.0096 1.147275,-0.01286 l -2.4375,-4.221874 1.732051,-1 2.875,4.979646 c 0.346669,-0.05877 0.692802,-0.124701 1.0379,-0.202304 l -3.046875,-5.277342 1.732051,-1 3.296875,5.710355 c 0.321335,-0.108227 0.641658,-0.212076 0.959776,-0.33762 l -3.390625,-5.872735 1.73205,-1 3.484375,6.035114 c 0.295285,-0.151776 0.590868,-0.305053 0.881651,-0.472936 0.226443,-0.130737 0.442535,-0.280659 0.660957,-0.417689 l -0.676582,0.390625 -3.484375,-6.035114 1.732051,-1 3.4375,5.953924 c 0.275682,-0.196946 0.554953,-0.371244 0.81915,-0.581189 l -3.390625,-5.872735 1.732051,-1 3.1875,5.520912 c 0.248278,-0.242694 0.491591,-0.489451 0.7254,-0.74357 l -3.046875,-5.277342 1.732051,-1 2.671875,4.627823 c 0.220276,-0.297406 0.429218,-0.598388 0.63165,-0.905949 l -2.4375,-4.221874 1.732051,-1 1.859375,3.220532 C 44.744234,27.171266 44.763091,20.0753 41.255515,14 35.715515,4.4044382 23.530568,1.1394916 13.935007,6.6794916 z"
     style="fill:#333333;fill-opacity:1;stroke:none"
     inkscape:connector-curvature="0" />
  <path
     style="fill:#686868;fill-opacity:1;stroke:none"
     d="m 30.120213,6.5794979 2.763245,4.7860821 -4.330127,2.5 0.5,0.866025 4.330127,-2.5 0.866026,-0.5 -0.5,-0.866025 -2.763246,-4.7860821 z m -1.468805,1.4559546 1.5,2.5980765 -2.598077,1.5 0.5,0.866025 3.464102,-2 -0.5,-0.866025 -1.5,-2.5980765 z m -2.098077,2.3660255 0.5,0.866025 1.732051,-1 -0.5,-0.8660251 z m 3,5.196152 0.5,0.866026 0.794985,-0.458985 0.001,0.0017 2.669117,-1.541015 1.499023,2.596385 0.866026,-0.5 -2,-3.464102 -0.866026,0.5 -0.977661,0.564453 -0.754389,0.435547 -0.937067,0.541016 z m 1,1.732051 0.5,0.866025 1.732051,-1 -0.5,-0.866025 z m 1,1.732051 0.5,0.866025 1.732051,-1 -0.5,-0.866025 z m 1,1.732051 0.5,0.866025 8.649563,-4.993827 -0.5,-0.866026 z m 1,1.73205 0.5,0.866026 7.619598,-4.399177 -0.5,-0.866026 z m 1,1.732051 0.5,0.866026 1.429281,-0.825196 2.810873,1.622482 1.844727,3.19516 0.867717,-0.500977 -0.976563,-1.691456 -1.000976,-1.733742 -1.735881,-1.002727 -0.808555,-0.466865 -1.000671,-0.576963 -1.001342,0.578125 z"
     id="rect3397"
     inkscape:connector-curvature="0"
     sodipodi:nodetypes="cccccccccccccccccccccccccccccccccccccccccccccccccccccccccccccccccccc" />
  <ellipse
     sodipodi:ry="1.0000308"
     sodipodi:rx="1.0006928"
     sodipodi:cy="705.81293"
     sodipodi:cx="214.23593"
     style="fill:none;stroke:none"
     id="ellipse3282-5"
     cx="214.23593"
     cy="705.81293"
     rx="1.0006928"
     ry="1.0000308"
     d="m 215.23662,705.81293 c 0,0.5523 -0.44802,1.00003 -1.00069,1.00003 -0.55267,0 -1.00069,-0.44773 -1.00069,-1.00003 0,-0.5523 0.44802,-1.00003 1.00069,-1.00003 0.55267,0 1.00069,0.44773 1.00069,1.00003 z"
     transform="matrix(0.8660254,-0.5,0.5,0.8660254,-510.77124,-493.79876)" />
  <rect
     style="fill:#2f619d;fill-opacity:1;stroke:none"
     id="rect3347"
     width="18"
     height="17.999996"
     x="-0.20486845"
     y="21.785038"
     transform="matrix(0.8660254,-0.5,0.5,0.8660254,0,0)" />
  <path
     sodipodi:nodetypes="ccccccccccccccccccccccccccccccccccccccccccccccccccccccccccccccccccc"
     inkscape:connector-curvature="0"
     id="path3587"
     d="m 17.134756,40.088006 -4,-6.928203 4.330127,-2.5 -0.5,-0.866025 -4.330127,2.5 -0.866026,0.5 0.5,0.866025 4,6.928203 z m 0.232051,-3.598076 -1.5,-2.598076 2.598076,-1.5 -0.5,-0.866026 -3.464102,2.000001 0.5,0.866025 1.5,2.598076 z m 2.098076,-2.366025 -0.5,-0.866026 -1.732051,1 0.5,0.866026 z m -3,-5.196153 -0.5,-0.866025 -0.794985,0.458985 -10e-4,-0.0017 -7.1524913,4.129492 -1.499025,-2.596387 -0.8660254,0.5 2,3.464101 5.3493997,-3.088477 0.977665,-0.564455 0.754386,-0.435545 0.937066,-0.541015 z m -1,-1.732051 -0.5,-0.866025 -6.942459,4.008231 0.5,0.866025 z m -1,-1.73205 -0.5,-0.866026 -1.732051,1 0.5,0.866026 z m -1,-1.732051 -0.5,-0.866026 -5.1961525,3 0.5,0.866026 z m -1,-1.732051 -0.5,-0.866025 -7.1954952,4.154321 0.5,0.866025 z m -1,-1.732051 -0.5,-0.866025 -1.4292798,0.825195 -2.8108775,-1.622483 -0.6090733,-1.054946 -0.8677141,0.500975 c 0.6591797,1.141733 0.082708,0.143255 0.7418882,1.284989 l 1.7358792,1.00273 0.8085556,0.46686 1.0006666,0.576965 1.0013421,-0.578125 z"
     style="fill:#686868;fill-opacity:1;stroke:none" />
  <ellipse
     sodipodi:ry="0.50001532"
     sodipodi:rx="0.50034642"
     sodipodi:cy="731.31274"
     sodipodi:cx="191.73625"
     style="fill:none;stroke:none"
     id="ellipse3591"
     cx="191.73625"
     cy="731.31274"
     rx="0.50034642"
     ry="0.50001532"
     d="m 192.2366,731.31274 c 0,0.27615 -0.22401,0.50002 -0.50035,0.50002 -0.27633,0 -0.50034,-0.22387 -0.50034,-0.50002 0,-0.27615 0.22401,-0.50001 0.50034,-0.50001 0.27634,0 0.50035,0.22386 0.50035,0.50001 z"
     transform="matrix(0.8660254,-0.5,0.5,0.8660254,-510.77124,-493.79876)" />
  <ellipse
     sodipodi:ry="0.50001532"
     sodipodi:rx="0.50034642"
     sodipodi:cy="731.31274"
     sodipodi:cx="194.73625"
     ry="0.50001532"
     rx="0.50034642"
     cy="731.31274"
     cx="194.73625"
     id="ellipse3607"
     style="fill:none;stroke:none"
     d="m 195.2366,731.31274 c 0,0.27615 -0.22401,0.50002 -0.50035,0.50002 -0.27633,0 -0.50034,-0.22387 -0.50034,-0.50002 0,-0.27615 0.22401,-0.50001 0.50034,-0.50001 0.27634,0 0.50035,0.22386 0.50035,0.50001 z"
     transform="matrix(0.8660254,-0.5,0.5,0.8660254,-510.77124,-493.79876)" />
  <ellipse
     sodipodi:ry="0.50001532"
     sodipodi:rx="0.50034642"
     sodipodi:cy="731.31274"
     sodipodi:cx="197.73625"
     style="fill:none;stroke:none"
     id="ellipse3613"
     cx="197.73625"
     cy="731.31274"
     rx="0.50034642"
     ry="0.50001532"
     d="m 198.2366,731.31274 c 0,0.27615 -0.22401,0.50002 -0.50035,0.50002 -0.27633,0 -0.50034,-0.22387 -0.50034,-0.50002 0,-0.27615 0.22401,-0.50001 0.50034,-0.50001 0.27634,0 0.50035,0.22386 0.50035,0.50001 z"
     transform="matrix(0.8660254,-0.5,0.5,0.8660254,-510.77124,-493.79876)" />
  <ellipse
     sodipodi:ry="0.50001532"
     sodipodi:rx="0.50034642"
     sodipodi:cy="731.31274"
     sodipodi:cx="200.73627"
     style="fill:none;stroke:none"
     id="ellipse3630"
     cx="200.73627"
     cy="731.31274"
     rx="0.50034642"
     ry="0.50001532"
     d="m 201.23661,731.31274 c 0,0.27615 -0.22401,0.50002 -0.50034,0.50002 -0.27634,0 -0.50035,-0.22387 -0.50035,-0.50002 0,-0.27615 0.22401,-0.50001 0.50035,-0.50001 0.27633,0 0.50034,0.22386 0.50034,0.50001 z"
     transform="matrix(0.8660254,-0.5,0.5,0.8660254,-510.77124,-493.79876)" />
  <ellipse
     sodipodi:ry="0.50001532"
     sodipodi:rx="0.50034642"
     sodipodi:cy="731.31274"
     sodipodi:cx="209.73628"
     ry="0.50001532"
     rx="0.50034642"
     cy="731.31274"
     cx="209.73628"
     id="ellipse3648"
     style="fill:none;stroke:none"
     d="m 210.23663,731.31274 c 0,0.27615 -0.22401,0.50002 -0.50035,0.50002 -0.27633,0 -0.50034,-0.22387 -0.50034,-0.50002 0,-0.27615 0.22401,-0.50001 0.50034,-0.50001 0.27634,0 0.50035,0.22386 0.50035,0.50001 z"
     transform="matrix(0.8660254,-0.5,0.5,0.8660254,-510.77124,-493.79876)" />
  <ellipse
     sodipodi:ry="0.50001532"
     sodipodi:rx="0.50034642"
     sodipodi:cy="731.31274"
     sodipodi:cx="212.73628"
     ry="0.50001532"
     rx="0.50034642"
     cy="731.31274"
     cx="212.73628"
     id="ellipse3654"
     style="fill:none;stroke:none"
     d="m 213.23663,731.31274 c 0,0.27615 -0.22401,0.50002 -0.50035,0.50002 -0.27633,0 -0.50034,-0.22387 -0.50034,-0.50002 0,-0.27615 0.22401,-0.50001 0.50034,-0.50001 0.27634,0 0.50035,0.22386 0.50035,0.50001 z"
     transform="matrix(0.8660254,-0.5,0.5,0.8660254,-510.77124,-493.79876)" />
  <path
     inkscape:connector-curvature="0"
     id="path2997"
     d="m 26.383811,16.488796 c 0.191438,0.331601 0.337256,0.672524 0.437456,1.022768 0.10019,0.350274 0.134911,0.763841 0.104161,1.240704 -0.01801,0.469526 -0.138301,0.938582 -0.360878,1.407168 -0.229953,0.455855 -0.615899,0.950752 -1.157841,1.484693 -0.541949,0.533959 -1.233782,1.043918 -2.0755,1.529876 -0.382601,0.220903 -0.833635,0.455804 -1.353105,0.704694 l 2.010138,3.481662 c 0.40497,0.701437 0.778446,1.09797 1.12043,1.189601 0.347367,0.07152 0.904638,-0.09718 1.671816,-0.506102 l 0.209849,0.36347 -5.356403,3.092519 -0.20985,-0.36347 c 0.690125,-0.483464 1.059179,-0.875085 1.107163,-1.17486 0.05337,-0.319888 -0.151881,-0.881564 -0.615757,-1.685026 l -4.782365,-8.283295 c -0.397606,-0.688667 -0.740909,-1.077116 -1.029906,-1.165344 -0.288983,-0.0882 -0.812667,0.03559 -1.571038,0.3714 l -0.209849,-0.363471 5.050322,-2.915805 c 0.573902,-0.331326 1.161805,-0.594235 1.763714,-0.78872 0.594545,-0.207208 1.22321,-0.340608 1.885998,-0.400201 0.675538,-0.06692 1.308943,0.0435 1.900215,0.331284 0.591265,0.287812 1.078343,0.763295 1.461229,1.426453 m -7.71912,1.650904 2.871625,4.973801 c 0.468458,-0.219438 0.842973,-0.410157 1.123545,-0.572157 2.219078,-1.281176 2.787427,-2.85914 1.705048,-4.733892 -0.566964,-0.981993 -1.289061,-1.52584 -2.166292,-1.631545 -0.884597,-0.118426 -1.970938,0.194191 -3.259027,0.937853 -0.255063,0.147278 -0.40146,0.29132 -0.439196,0.432117 -0.03773,0.140829 0.01703,0.33877 0.164297,0.593823"
     style="font-size:33px;font-style:normal;font-variant:normal;font-weight:normal;font-stretch:normal;text-align:start;line-height:125%;letter-spacing:0px;word-spacing:0px;writing-mode:lr-tb;text-anchor:start;fill:#ffffff;fill-opacity:1;stroke:none;font-family:FreeSerif;-inkscape-font-specification:FreeSerif" />
</svg>
