<?xml version="1.0" encoding="UTF-8" standalone="no"?>
<!-- Created using Karbon, part of Calligra: http://www.calligra.org/karbon -->
<svg id="svg2" xmlns:rdf="http://www.w3.org/1999/02/22-rdf-syntax-ns#" xmlns="http://www.w3.org/2000/svg" height="38.4pt" width="38.4pt" version="1.1" xmlns:cc="http://creativecommons.org/ns#" xmlns:dc="http://purl.org/dc/elements/1.1/">
 <metadata id="metadata11">
  <rdf:RDF>
   <cc:Work rdf:about="">
    <dc:format>image/svg+xml</dc:format>
    <dc:type rdf:resource="http://purl.org/dc/dcmitype/StillImage"/>
    <dc:title/>
   </cc:Work>
  </rdf:RDF>
 </metadata>
 <rect id="rect853" height="40" width="32" y="3.9996" x="8" fill="#2c3e50"/>
 <path id="rect853-9" fill="#ecf0f1" d="m11,6,25.5,0v30h-25.5z"/>
 <path id="rect853-9-0-7-8" fill="#979797" d="m16,38,4,0,0,4-4,0z"/>
 <path id="rect853-9-0-7-8-6" fill="#979797" d="m10,38,4,0,0,4-4,0z"/>
 <path id="rect853-9-0-7-8-0" fill="#979797" d="m34,38,4,0,0,4-4,0z"/>
 <path id="rect853-9-0-7-8-6-6" fill="#979797" d="m28,38,4,0,0,4-4,0z"/>
 <g id="text4040" style="letter-spacing:0px;word-spacing:0px;" font-weight="normal" transform="matrix(0.13535195,0,0,0.13535195,19.518617,9.1853327)" font-size="40px" font-stretch="normal" line-height="125%" font-variant="normal" font-family="Ubuntu" font-style="normal" fill="#2c3e50">
  <path id="path4045" fill="#2c3e50" d="m28.537,11.398c-0.27344,0-0.41016-0.13672-0.41016-0.41016-0.000007-0.3125,0.32551-0.58594,0.97656-0.82031,0.65103-0.23437,0.97655-0.77474,0.97656-1.6211v-21.602h-3.9648v-0.91797l7.5-3.2031v25.723c-0.000013,0.85938,0.319,1.3997,0.95703,1.6211,0.65103,0.22136,0.97655,0.49479,0.97656,0.82031-0.000015,0.27344-0.13022,0.41016-0.39062,0.41016h-6.6211"/>
 </g>
 <path id="rect853-9-0-7-8-6-63-4" fill="#425c76" d="m12,17.45,23,0,0,1-23,0z"/>
 <path id="rect853-9-0-7-8-6-63-53" fill="#425c76" d="m12,21.441,9,0,0,1-9,0z"/>
 <path id="rect853-9-0-7-8-6-63-4-6" fill="#425c76" d="m12,15,23,0,0,1-23,0z"/>
 <path id="rect853-9-0-7-8-6-63-4-6-0" fill="#425c76" d="m12,12.455,23,0,0,1-23,0z"/>
 <path id="rect853-9-0-7-8-6-63-4-0" fill="#425c76" d="m12,29.334,23,0,0,1-23,0z"/>
 <path id="rect853-9-0-7-8-6-63-53-0" fill="#425c76" d="m12,31.988,15,0,0,1-15,0z"/>
 <path id="rect853-9-0-7-8-6-63-4-6-08" fill="#425c76" d="m12,26.727,23,0,0,1-23,0z"/>
 <path id="rect853-9-0-7-8-6-63-4-6-0-9" fill="#425c76" d="m12,24.28,23,0,0,1-23,0z"/>
 <path id="rect853-9-0-7-8-6-6-0" fill="#ecf0f1" d="m22,37.864,4,0,0,4-4,0z"/>
 <text id="text3027" style="letter-spacing:0px;word-spacing:0px;" font-weight="normal" xml:space="preserve" font-size="40px" font-style="normal" y="16.351389" x="28.399914" font-family="Sans" line-height="125%" fill="#000000"><tspan id="tspan3029"/></text>
</svg>
