<?xml version="1.0" encoding="UTF-8" standalone="no"?>
<!-- Created with Inkscape (http://www.inkscape.org/) -->

<svg
   xmlns:dc="http://purl.org/dc/elements/1.1/"
   xmlns:cc="http://creativecommons.org/ns#"
   xmlns:rdf="http://www.w3.org/1999/02/22-rdf-syntax-ns#"
   xmlns:svg="http://www.w3.org/2000/svg"
   xmlns="http://www.w3.org/2000/svg"
   xmlns:sodipodi="http://sodipodi.sourceforge.net/DTD/sodipodi-0.dtd"
   xmlns:inkscape="http://www.inkscape.org/namespaces/inkscape"
   id="svg2"
   version="1.1"
   inkscape:version="0.48.4 r9939"
   width="48"
   height="48"
   sodipodi:docname="Ripple.svg">
  <metadata
     id="metadata8">
    <rdf:RDF>
      <cc:Work
         rdf:about="">
        <dc:format>image/svg+xml</dc:format>
        <dc:type
           rdf:resource="http://purl.org/dc/dcmitype/StillImage" />
        <dc:title />
      </cc:Work>
    </rdf:RDF>
  </metadata>
  <defs
     id="defs6" />
  <sodipodi:namedview
     pagecolor="#ffffff"
     bordercolor="#666666"
     borderopacity="1"
     objecttolerance="10"
     gridtolerance="10"
     guidetolerance="10"
     inkscape:pageopacity="0"
     inkscape:pageshadow="2"
     inkscape:window-width="1545"
     inkscape:window-height="876"
     id="namedview4"
     showgrid="false"
     inkscape:zoom="7.3596155"
     inkscape:cx="19.750835"
     inkscape:cy="21.001884"
     inkscape:window-x="55"
     inkscape:window-y="24"
     inkscape:window-maximized="1"
     inkscape:current-layer="g2987" />
  <g
     id="g2987"
     transform="translate(198.9002,-116)">
    <path
       style="fill:#2980b9;fill-opacity:1"
       d="m -172.41302,160.00778 c -1.30155,-0.65644 -2.14798,-1.43034 -3.15641,-2.88589 -2.1846,-3.15323 -1.96313,-7.45737 0.53679,-10.4327 1.7502,-2.08303 1.59534,-4.37226 -0.37551,-5.55091 -1.09527,-0.65501 -2.63076,-0.56342 -3.55857,0.21232 -0.37309,0.31194 -1.23668,1.03906 -1.91908,1.61583 -0.83779,0.70813 -1.82592,1.21477 -3.04266,1.5601 -1.67662,0.47583 -1.95911,0.47623 -4.06168,0.006 -1.96099,-0.43893 -2.42646,-0.63966 -3.52055,-1.51848 -1.39856,-1.12333 -2.61906,-3.02693 -3.13428,-4.88852 -0.28914,-1.04475 -0.44852,-1.63052 0.0319,-3.77624 0.50012,-2.23361 0.8591,-2.59105 1.70517,-3.58386 1.15965,-1.36078 3.33011,-2.65584 5.07061,-3.02551 0.99565,-0.21147 1.78793,-0.1656 3.43335,0.19874 1.92244,0.42543 2.29266,0.59726 3.65633,1.69388 1.14646,0.92199 1.67509,1.57901 2.16287,2.68813 1.34319,3.05422 1.70569,3.4932 3.15189,3.8169 1.14399,0.25606 1.432,0.2121 2.32616,-0.355 1.5478,-0.98164 1.86735,-1.99142 1.35599,-4.28497 -0.5231,-2.34617 -0.43531,-4.25331 0.27107,-5.88922 1.13184,-2.62117 3.14821,-4.35838 5.93229,-5.111 1.31965,-0.35672 1.77347,-0.59496 3.89606,-0.11987 2.12264,0.47511 2.48639,0.89633 3.52809,1.78164 4.76505,4.04962 4.11649,11.18658 -1.29289,14.22737 -1.77118,0.99565 -4.22966,1.33469 -6.3068,0.86977 -1.12712,-0.25228 -1.38305,-0.2027 -2.45149,0.47491 -1.0355,0.65673 -1.22666,0.90712 -1.44818,1.89675 -0.19302,0.86242 -0.13811,1.36541 0.22543,2.06489 0.6771,1.30279 1.15038,1.63945 3.31608,2.35874 3.33498,1.10767 5.4572,3.45731 6.11621,6.77168 0.34929,1.75671 -0.18502,4.406 -1.23095,6.10345 -0.97401,1.58074 -3.39867,3.28299 -5.33659,3.7466 -1.65963,0.39704 -4.3861,0.0886 -5.88069,-0.66515 z"
       id="path2993"
       inkscape:connector-curvature="0"
       sodipodi:nodetypes="sssssssssssssssssssssssssssssssss" />
  </g>
</svg>
