<?xml version="1.0" encoding="UTF-8" standalone="no"?>
<!-- Created with Inkscape (http://www.inkscape.org/) -->

<svg
   xmlns:dc="http://purl.org/dc/elements/1.1/"
   xmlns:cc="http://creativecommons.org/ns#"
   xmlns:rdf="http://www.w3.org/1999/02/22-rdf-syntax-ns#"
   xmlns:svg="http://www.w3.org/2000/svg"
   xmlns="http://www.w3.org/2000/svg"
   xmlns:xlink="http://www.w3.org/1999/xlink"
   xmlns:sodipodi="http://sodipodi.sourceforge.net/DTD/sodipodi-0.dtd"
   xmlns:inkscape="http://www.inkscape.org/namespaces/inkscape"
   version="1.0"
   width="96"
   height="96"
   id="svg2408"
   inkscape:version="0.48.4 r9939"
   sodipodi:docname="toad-amazon.svg">
  <sodipodi:namedview
     pagecolor="#ffffff"
     bordercolor="#666666"
     borderopacity="1"
     objecttolerance="10"
     gridtolerance="10"
     guidetolerance="10"
     inkscape:pageopacity="0"
     inkscape:pageshadow="2"
     inkscape:window-width="1845"
     inkscape:window-height="1056"
     id="namedview73"
     showgrid="false"
     inkscape:zoom="3.9038541"
     inkscape:cx="43.788502"
     inkscape:cy="7.9931393"
     inkscape:window-x="75"
     inkscape:window-y="24"
     inkscape:window-maximized="1"
     inkscape:current-layer="g3923" />
  <defs
     id="defs2410">
    <linearGradient
       id="linearGradient4384">
      <stop
         id="stop4386"
         style="stop-color:#ffffff;stop-opacity:1"
         offset="0" />
      <stop
         id="stop4388"
         style="stop-color:#ffffff;stop-opacity:0"
         offset="1" />
    </linearGradient>
    <linearGradient
       id="linearGradient4367">
      <stop
         id="stop4369"
         style="stop-color:#ffffff;stop-opacity:0.71755725"
         offset="0" />
      <stop
         id="stop4371"
         style="stop-color:#ffffff;stop-opacity:1"
         offset="1" />
    </linearGradient>
    <linearGradient
       x1="45.447727"
       y1="92.539597"
       x2="45.447727"
       y2="7.0165396"
       id="ButtonShadow"
       gradientUnits="userSpaceOnUse"
       gradientTransform="scale(1.0058652,0.994169)">
      <stop
         id="stop3750"
         style="stop-color:#000000;stop-opacity:1"
         offset="0" />
      <stop
         id="stop3752"
         style="stop-color:#000000;stop-opacity:0.58823532"
         offset="1" />
    </linearGradient>
    <linearGradient
       id="linearGradient3737">
      <stop
         id="stop3739"
         style="stop-color:#ffffff;stop-opacity:1"
         offset="0" />
      <stop
         id="stop3741"
         style="stop-color:#ffffff;stop-opacity:0"
         offset="1" />
    </linearGradient>
    <filter
       color-interpolation-filters="sRGB"
       id="filter3174">
      <feGaussianBlur
         id="feGaussianBlur3176"
         stdDeviation="1.71" />
    </filter>
    <filter
       x="-0.192"
       y="-0.192"
       width="1.3839999"
       height="1.3839999"
       color-interpolation-filters="sRGB"
       id="filter3794">
      <feGaussianBlur
         id="feGaussianBlur3796"
         stdDeviation="5.28" />
    </filter>
    <linearGradient
       x1="48"
       y1="20.220806"
       x2="48"
       y2="138.66119"
       id="linearGradient3613"
       xlink:href="#linearGradient3737"
       gradientUnits="userSpaceOnUse" />
    <linearGradient
       x1="48"
       y1="90"
       x2="48"
       y2="5.9877172"
       id="linearGradient3617"
       xlink:href="#linearGradient3805"
       gradientUnits="userSpaceOnUse" />
    <linearGradient
       x1="45.447727"
       y1="92.539597"
       x2="45.447727"
       y2="7.0165396"
       id="ButtonShadow-0"
       gradientUnits="userSpaceOnUse"
       gradientTransform="matrix(1.0058652,0,0,0.994169,100,0)">
      <stop
         id="stop3750-8"
         style="stop-color:#000000;stop-opacity:1"
         offset="0" />
      <stop
         id="stop3752-5"
         style="stop-color:#000000;stop-opacity:0.58823532"
         offset="1" />
    </linearGradient>
    <linearGradient
       x1="32.251034"
       y1="6.1317081"
       x2="32.251034"
       y2="90.238609"
       id="linearGradient3780"
       xlink:href="#ButtonShadow-0"
       gradientUnits="userSpaceOnUse"
       gradientTransform="matrix(1.0238095,0,0,1.0119048,-1.1428571,-98.071429)" />
    <linearGradient
       x1="32.251034"
       y1="6.1317081"
       x2="32.251034"
       y2="90.238609"
       id="linearGradient3772"
       xlink:href="#ButtonShadow-0"
       gradientUnits="userSpaceOnUse"
       gradientTransform="matrix(1.0238095,0,0,1.0119048,-1.1428571,-98.071429)" />
    <linearGradient
       x1="32.251034"
       y1="6.1317081"
       x2="32.251034"
       y2="90.238609"
       id="linearGradient3725"
       xlink:href="#ButtonShadow-0"
       gradientUnits="userSpaceOnUse"
       gradientTransform="matrix(1.0238095,0,0,1.0119048,-1.1428571,-98.071429)" />
    <linearGradient
       x1="32.251034"
       y1="6.1317081"
       x2="32.251034"
       y2="90.238609"
       id="linearGradient3721"
       xlink:href="#ButtonShadow-0"
       gradientUnits="userSpaceOnUse"
       gradientTransform="translate(0,-97)" />
    <linearGradient
       x1="32.251034"
       y1="6.1317081"
       x2="32.251034"
       y2="90.238609"
       id="linearGradient3026"
       xlink:href="#ButtonShadow-0"
       gradientUnits="userSpaceOnUse"
       gradientTransform="matrix(1.0238095,0,0,1.0119048,-1.1428571,-98.071429)" />
    <clipPath
       id="clipPath4355">
      <rect
         width="84"
         height="80"
         rx="6"
         ry="6"
         x="6"
         y="6"
         id="rect4357"
         style="fill:#ffffff;fill-opacity:1;fill-rule:nonzero;stroke:none" />
    </clipPath>
    <radialGradient
       cx="48"
       cy="87.792389"
       r="42"
       fx="48"
       fy="87.792389"
       id="radialGradient4375"
       xlink:href="#linearGradient4367"
       gradientUnits="userSpaceOnUse"
       gradientTransform="matrix(1,-6.7114942e-8,8.4282233e-8,1.2557894,109.99999,-24.505592)" />
    <linearGradient
       x1="48"
       y1="88"
       x2="48"
       y2="-40"
       id="linearGradient4390"
       xlink:href="#linearGradient4384"
       gradientUnits="userSpaceOnUse"
       gradientTransform="matrix(1,0,0,-1,0,92)" />
    <linearGradient
       x1="48"
       y1="82"
       x2="112.12357"
       y2="82.454597"
       id="linearGradient4429"
       xlink:href="#linearGradient4384"
       gradientUnits="userSpaceOnUse"
       spreadMethod="reflect" />
    <linearGradient
       id="linearGradient3843">
      <stop
         id="stop3845"
         style="stop-color:#523823;stop-opacity:1"
         offset="0" />
      <stop
         id="stop3847"
         style="stop-color:#79563a;stop-opacity:1"
         offset="0.11780351" />
      <stop
         id="stop3849"
         style="stop-color:#875c38;stop-opacity:1"
         offset="0.23809524" />
      <stop
         id="stop3851"
         style="stop-color:#a66e40;stop-opacity:1"
         offset="1" />
    </linearGradient>
    <linearGradient
       x1="8"
       y1="1033.3622"
       x2="50"
       y2="1033.3622"
       id="linearGradient3870"
       xlink:href="#linearGradient3843"
       gradientUnits="userSpaceOnUse"
       gradientTransform="translate(-2,-956.3622)"
       spreadMethod="reflect" />
    <linearGradient
       id="linearGradient3805">
      <stop
         id="stop3807"
         style="stop-color:#d2d2d2;stop-opacity:1"
         offset="0" />
      <stop
         id="stop3809"
         style="stop-color:#f5f5f5;stop-opacity:1"
         offset="1" />
    </linearGradient>
    <linearGradient
       inkscape:collect="always"
       xlink:href="#linearGradient3805"
       id="linearGradient3836"
       gradientUnits="userSpaceOnUse"
       x1="48"
       y1="90"
       x2="48"
       y2="5.9877172" />
    <linearGradient
       inkscape:collect="always"
       xlink:href="#linearGradient4384"
       id="linearGradient3838"
       gradientUnits="userSpaceOnUse"
       gradientTransform="matrix(1,0,0,-1,0,92)"
       x1="48"
       y1="88"
       x2="48"
       y2="-40" />
    <linearGradient
       inkscape:collect="always"
       xlink:href="#linearGradient4384"
       id="linearGradient3840"
       gradientUnits="userSpaceOnUse"
       spreadMethod="reflect"
       x1="48"
       y1="82"
       x2="112.12357"
       y2="82.454597" />
    <linearGradient
       inkscape:collect="always"
       xlink:href="#linearGradient3805"
       id="linearGradient3849"
       gradientUnits="userSpaceOnUse"
       x1="48"
       y1="90"
       x2="48"
       y2="5.9877172" />
    <linearGradient
       inkscape:collect="always"
       xlink:href="#linearGradient4384"
       id="linearGradient3851"
       gradientUnits="userSpaceOnUse"
       gradientTransform="matrix(1,0,0,-1,0,92)"
       x1="48"
       y1="88"
       x2="48"
       y2="-40" />
    <linearGradient
       inkscape:collect="always"
       xlink:href="#linearGradient4384"
       id="linearGradient3853"
       gradientUnits="userSpaceOnUse"
       spreadMethod="reflect"
       x1="48"
       y1="82"
       x2="112.12357"
       y2="82.454597" />
    <filter
       id="filter3174-8"
       color-interpolation-filters="sRGB">
      <feGaussianBlur
         stdDeviation="1.71"
         id="feGaussianBlur3176-3" />
    </filter>
    <linearGradient
       gradientTransform="scale(1.0058652,0.994169)"
       gradientUnits="userSpaceOnUse"
       id="ButtonShadow-4"
       y2="7.0165396"
       x2="45.447727"
       y1="92.539597"
       x1="45.447727">
      <stop
         offset="0"
         style="stop-color:#000000;stop-opacity:1"
         id="stop3750-2" />
      <stop
         offset="1"
         style="stop-color:#000000;stop-opacity:0.58823532"
         id="stop3752-4" />
    </linearGradient>
    <clipPath
       id="clipPath4355-4">
      <rect
         width="84"
         height="80"
         rx="6"
         ry="6"
         x="6"
         y="6"
         id="rect4357-1"
         style="fill:#ffffff;fill-opacity:1;fill-rule:nonzero;stroke:none" />
    </clipPath>
    <filter
       x="-0.192"
       y="-0.192"
       width="1.3839999"
       height="1.3839999"
       color-interpolation-filters="sRGB"
       id="filter3794-4">
      <feGaussianBlur
         id="feGaussianBlur3796-6"
         stdDeviation="5.28" />
    </filter>
  </defs>
  <metadata
     id="metadata2413">
    <rdf:RDF>
      <cc:Work
         rdf:about="">
        <dc:format>image/svg+xml</dc:format>
        <dc:type
           rdf:resource="http://purl.org/dc/dcmitype/StillImage" />
        <dc:title />
      </cc:Work>
    </rdf:RDF>
  </metadata>
  <g
     id="layer2"
     style="display:none">
    <rect
       width="86"
       height="85"
       rx="6"
       ry="6"
       x="5"
       y="7"
       id="rect3745"
       style="opacity:0.9;fill:url(#ButtonShadow);fill-opacity:1;fill-rule:nonzero;stroke:none;filter:url(#filter3174)" />
  </g>
  <g
     id="g3923"
     transform="matrix(1.1648664,0,0,1.1648664,142.27621,-19.302062)">
    <g
       style="display:none"
       id="layer2-4">
      <path
         style="opacity:0.9;fill:url(#ButtonShadow-4);fill-opacity:1;fill-rule:nonzero;stroke:none;filter:url(#filter3174-8)"
         id="rect3745-2"
         inkscape:connector-curvature="0"
         d="M 11,7 C 7.676,7 5,9.676 5,13 l 0,33.6875 c 2.2377507,0.124029 4.660506,0.235683 5.875,0.4375 0.66093,0.10983 -0.08406,0.240848 -1.125,0.34375 C 8.7090622,47.571654 7.3545491,47.665119 6.84375,47.75 6.2216014,47.853382 5.6264179,47.903999 5,48 l 0,1.0625 c 0.3803657,0.03607 0.7183843,0.03125 0.9375,0.03125 0.80883,10e-7 1.1599727,0.215701 1.3125,0.5625 0.1525272,0.346797 0.09375,0.839723 0.09375,1.40625 0,0.424828 -0.9420178,0.663014 -1.15625,1.375 C 6.110939,52.691968 5.5510552,52.945524 5,53.1875 l 0,2.21875 c 0.7355867,0.02497 1.4332639,0.05671 1.84375,0.3125 C 7.1254716,55.894306 6.0687957,56.124098 5,56.3125 l 0,7.5625 c 1.1379643,0.180337 3.3100715,0.925679 3.96875,1.0625 1.090152,0.226446 1.224723,0.33476 0.875,0.4375 -0.3497231,0.102744 -1.173581,0.175172 -2,0.3125 C 6.8656638,65.850029 5.90816,66.141998 5,66.34375 L 5,86 c 0,3.324 2.676,6 6,6 l 13,0 c 0.0954,-0.438237 0.150955,-0.931178 0.25,-1.4375 0.140364,-0.717512 0.25498,-1.34159 0.375,-1.59375 0.03001,-0.06304 0.05815,-0.114053 0.09375,-0.125 0.106804,-0.03285 0.238198,0.191956 0.46875,0.78125 0.304338,0.777871 0.540174,1.646782 0.6875,2.375 l 0.75,0 c 0.276152,-0.493694 0.578538,-1.138496 0.8125,-1.4375 0.09907,-0.126629 0.275237,0.131501 0.53125,0.375 0.256014,0.2435 0.588904,0.486378 0.9375,0.375 0.648614,-0.207227 1.602807,-0.726227 2.03125,-1 0.139883,-0.08938 0.300164,-0.157976 0.40625,-0.1875 0.106087,-0.02952 0.174331,-0.01774 0.25,0 0.151339,0.03548 0.232196,0.144559 0.34375,0.28125 0.223098,0.27338 0.466785,0.656251 1.0625,0.65625 0.478344,0 0.657185,-0.0325 0.78125,0.0625 0.124065,0.095 0.197087,0.314551 0.40625,0.875 l 8.875,0 c -0.04778,-0.593879 1.040547,-2.151517 1.21875,-3.0625 0.19092,-0.975995 0.214078,-1.242419 0.28125,-1.0625 0.06717,0.179919 0.192504,0.793906 0.46875,1.5 0.110448,0.282298 0.213887,0.358235 0.3125,0.28125 0.09861,-0.07699 0.168895,-0.293948 0.25,-0.5625 0.162213,-0.537107 0.285649,-1.296709 0.34375,-1.59375 0.131129,-0.670335 0.128655,-1.786501 0.125,-2.28125 -9.11e-4,-0.123687 -0.0059,-0.217815 0,-0.25 0.01779,-0.09656 0.08067,0.312079 0.28125,1.59375 0.163819,1.046767 0.54767,2.687946 0.71875,3.5625 0.169798,0.867992 0.298106,1.322124 0.40625,1.875 l 28.21875,0 c 0.03877,-0.494956 0.03519,-1.098589 0.0625,-1.5 0.02049,-0.301057 0.06649,-0.487005 0.15625,-0.46875 0.02992,0.0061 0.05077,0.03882 0.09375,0.09375 0.233449,0.298339 0.630596,1.164908 0.96875,1.875 L 85,92 c 3.324,0 6,-2.676 6,-6 l 0,-7.21875 c -0.16942,0.0045 -0.290112,-4e-6 -0.5,0 -1.330307,0 -2.638456,-4e-6 -3.96875,0 -1.226564,0 -2.05394,-9.64e-4 -2.25,-0.0625 -0.19606,-0.06154 0.232972,-0.183183 1.46875,-0.5 C 86.405034,78.050819 89.092469,77.290673 91,76.875 L 91,38.46875 C 90.34725,38.202412 89.792969,37.980093 89.25,37.5625 89.107486,37.452886 88.801155,37.170028 88.28125,37 87.761349,36.829972 87.007124,36.743855 86,36.9375 c -1.533473,0.294852 -1.685602,0.283469 -1.25,0.15625 0.4356,-0.127221 1.468635,-0.381012 2.25,-0.53125 1.152717,-0.221645 2.722214,-1.204246 4,-1.84375 l 0,-4.5625 c -0.69831,-0.257978 -1.422206,-0.558272 -1.75,-1.0625 -0.209707,-0.322576 -0.321618,-0.513018 -0.3125,-0.625 0.0091,-0.111981 0.13299,-0.149124 0.25,-0.1875 0.117011,-0.03837 0.261032,-0.05449 0.375,-0.15625 0.11397,-0.101759 0.187497,-0.291619 0.1875,-0.59375 0,-0.32292 0.08246,-0.887065 0.0625,-1.40625 -0.01,-0.259593 -0.03562,-0.49724 -0.125,-0.6875 -0.08939,-0.19026 -0.219089,-0.333004 -0.4375,-0.375 -0.574572,-0.110478 -0.848143,-0.233682 -0.90625,-0.34375 -0.05811,-0.110067 0.07208,-0.18937 0.28125,-0.28125 0.418339,-0.18376 1.132532,-0.339398 1.125,-0.34375 -0.668701,-0.385725 -5.247169,-0.921226 -5,-0.96875 0.332574,-0.06395 0.667437,-0.123553 1,-0.1875 1.047644,-0.201439 2.43278,-0.309227 3.75,-0.5625 0.573261,-0.110227 0.911769,-0.250569 1.125,-0.4375 0.213229,-0.18693 0.294201,-0.423258 0.375,-0.625 L 91,13 C 91,9.676 88.324,7 85,7 L 33.625,7 C 33.72158,8.3975706 33.82658,9.959362 33.53125,9.1875 33.320827,8.6375466 33.210422,8.0499534 33,7.5 32.946762,7.3608606 32.903941,7.1705291 32.84375,7 L 30.8125,7 C 30.571803,7.4923127 30.362863,7.9708281 30.03125,8.1875 29.524321,8.5187294 29.245447,8.6821159 29,8.59375 28.754552,8.5053839 28.523162,8.1669814 28.15625,7.6875 27.992502,7.4735174 27.721718,7.2560338 27.40625,7 l -6.8125,0 -1.3125,5.5625 L 17.53125,7 17.3125,7 15.5625,15.9375 14.15625,7 11,7 z" />
    </g>
    <path
       style="opacity:0.3183857;fill:#333333;fill-opacity:1;stroke:none"
       d="m -92.700653,30.964388 c -18.273147,3.447728 -29.715687,20.69739 -25.535797,38.541031 0.71115,3.035748 1.86451,5.887262 3.31772,8.521681 l 5.09031,-0.960426 c 1.19456,0.605219 2.47324,1.046047 3.8034,1.318371 l 2.6633,11.369383 c 1.10995,4.738224 5.894766,7.806044 10.747034,6.890523 l 29.304421,-5.529091 c 4.852275,-0.915513 7.855583,-5.452769 6.745647,-10.190992 l -2.663295,-11.36938 c 1.095379,-0.729972 2.068031,-1.595578 2.889918,-2.581256 l 5.090311,-0.960426 c 0.149089,-2.936832 -0.103601,-5.958184 -0.814727,-8.993934 -4.179902,-17.84364 -22.365111,-29.503214 -40.638242,-26.055484 z"
       id="rect4533"
       inkscape:connector-curvature="0" />
    <g
       id="g3196"
       transform="translate(2.0883893,1.1933653)">
      <rect
         style="fill:#f4e3d7;fill-opacity:1;stroke:none"
         id="rect3164"
         width="44.658882"
         height="28.927309"
         x="-102.06143"
         y="58.917671"
         ry="8.3549433" />
      <rect
         ry="13.464342"
         y="40.523834"
         x="-110.23647"
         height="28.927309"
         width="61.008961"
         id="rect3166"
         style="fill:#e9c6af;fill-opacity:1;stroke:none" />
      <path
         transform="matrix(0.53674556,0,0,0.53674556,-96.852397,33.516247)"
         d="m 22,77 c 0,4.556349 -3.693651,8.25 -8.25,8.25 -4.5563492,0 -8.25,-3.693651 -8.25,-8.25 0,-4.556349 3.6936508,-8.25 8.25,-8.25 4.556349,0 8.25,3.693651 8.25,8.25 z"
         sodipodi:ry="8.25"
         sodipodi:rx="8.25"
         sodipodi:cy="77"
         sodipodi:cx="13.75"
         id="path3168"
         style="fill:#333333;fill-opacity:1;stroke:none"
         sodipodi:type="arc" />
      <path
         sodipodi:type="arc"
         style="fill:#333333;fill-opacity:1;stroke:none"
         id="path3170"
         sodipodi:cx="13.75"
         sodipodi:cy="77"
         sodipodi:rx="8.25"
         sodipodi:ry="8.25"
         d="m 22,77 c 0,4.556349 -3.693651,8.25 -8.25,8.25 -4.5563492,0 -8.25,-3.693651 -8.25,-8.25 0,-4.556349 3.6936508,-8.25 8.25,-8.25 4.556349,0 8.25,3.693651 8.25,8.25 z"
         transform="matrix(0.53674556,0,0,0.53674556,-77.576468,33.516247)" />
      <path
         id="path3172"
         d="m -79.73174,26.369543 c -17.430957,0 -31.56154,14.130583 -31.56154,31.56154 0,2.965539 0.43604,5.826764 1.20071,8.547917 l 60.721659,0 c 0.764671,-2.721153 1.20071,-5.582378 1.20071,-8.547917 0,-17.430957 -14.130582,-31.56154 -31.561539,-31.56154 z"
         style="fill:#333333;fill-opacity:1;stroke:none"
         inkscape:connector-curvature="0" />
      <path
         id="path3174"
         d="m -108.0628,45.781034 c -0.27982,0 -0.55832,0.0522 -0.82906,0.08577 -1.53762,3.715631 -2.40142,7.792948 -2.40142,12.064284 0,0.105751 -8.2e-4,0.208986 0,0.314471 0.95546,0.531293 2.05971,0.857651 3.23048,0.857651 3.67183,0 6.6325,-2.989257 6.6325,-6.661086 0,-3.671829 -2.96067,-6.661085 -6.6325,-6.661085 z"
         style="fill:#f9f9f9;fill-opacity:1;stroke:none"
         inkscape:connector-curvature="0" />
      <path
         id="path3176"
         d="m -50.714564,45.781034 c -3.671829,0 -6.632497,2.989256 -6.632497,6.661085 0,3.671829 2.960668,6.661086 6.632497,6.661086 0.885693,0 1.743002,-0.200229 2.515775,-0.51459 0.0048,-0.220313 0.02859,-0.43604 0.02859,-0.657532 0,-4.303268 -0.870524,-8.412034 -2.43001,-12.150049 -0.03783,-6.36e-4 -0.07637,0 -0.114353,0 z"
         style="fill:#f9f9f9;fill-opacity:1;stroke:none"
         inkscape:connector-curvature="0" />
      <path
         sodipodi:type="arc"
         style="fill:#f9f9f9;fill-opacity:1"
         id="path3178"
         sodipodi:cx="37.625"
         sodipodi:cy="66.875"
         sodipodi:rx="1.25"
         sodipodi:ry="1.25"
         d="m 38.875,66.875 c 0,0.690356 -0.559644,1.25 -1.25,1.25 -0.690356,0 -1.25,-0.559644 -1.25,-1.25 0,-0.690356 0.559644,-1.25 1.25,-1.25 0.690356,0 1.25,0.559644 1.25,1.25 z"
         transform="matrix(0.51861311,-0.27076472,0.27076472,0.51861311,-107.23169,48.046302)" />
      <path
         sodipodi:type="arc"
         style="fill:#f9f9f9;fill-opacity:1"
         id="path3180"
         sodipodi:cx="37.625"
         sodipodi:cy="66.875"
         sodipodi:rx="1.25"
         sodipodi:ry="1.25"
         d="m 38.875,66.875 c 0,0.690356 -0.559644,1.25 -1.25,1.25 -0.690356,0 -1.25,-0.559644 -1.25,-1.25 0,-0.690356 0.559644,-1.25 1.25,-1.25 0.690356,0 1.25,0.559644 1.25,1.25 z"
         transform="matrix(0.51861311,-0.27076472,0.27076472,0.51861311,-126.13647,48.046302)" />
      <path
         sodipodi:type="arc"
         style="fill:#f9f9f9;fill-opacity:1"
         id="path3182"
         sodipodi:cx="37.520855"
         sodipodi:cy="70.411575"
         sodipodi:rx="2.0771263"
         sodipodi:ry="2.0771263"
         d="m 39.597981,70.411575 c 0,1.147165 -0.929961,2.077127 -2.077126,2.077127 -1.147165,0 -2.077126,-0.929962 -2.077126,-2.077127 0,-1.147165 0.929961,-2.077126 2.077126,-2.077126 1.147165,0 2.077126,0.929961 2.077126,2.077126 z"
         transform="matrix(0.51861311,-0.27076472,0.27076472,0.51861311,-106.8237,47.234998)" />
      <path
         sodipodi:type="arc"
         style="fill:#f9f9f9;fill-opacity:1"
         id="path3184"
         sodipodi:cx="37.520855"
         sodipodi:cy="70.411575"
         sodipodi:rx="2.0771263"
         sodipodi:ry="2.0771263"
         d="m 39.597981,70.411575 c 0,1.147165 -0.929961,2.077127 -2.077126,2.077127 -1.147165,0 -2.077126,-0.929962 -2.077126,-2.077127 0,-1.147165 0.929961,-2.077126 2.077126,-2.077126 1.147165,0 2.077126,0.929961 2.077126,2.077126 z"
         transform="matrix(0.51861311,-0.27076472,0.27076472,0.51861311,-126.03503,47.234998)" />
      <path
         d="m -77.908864,44.302276 c 0,1.372022 0.03335,2.515059 -0.665388,3.736333 -0.565742,0.992921 -1.465143,1.601016 -2.464188,1.601016 -1.363564,0 -2.163959,-1.030452 -2.163959,-2.553864 0,-2.998485 2.720699,-3.543604 5.292893,-3.543604 v 0.760119 z m 3.586662,8.584539 c -0.234673,0.211186 -0.576025,0.223917 -0.84025,0.08396 -1.181627,-0.971932 -1.393136,-1.419094 -2.040522,-2.347136 -1.951166,1.968033 -3.3353,2.55895 -5.865058,2.55895 -2.997784,0 -5.325673,-1.829366 -5.325673,-5.488736 0,-2.856002 1.564142,-4.798588 3.792385,-5.753346 1.931875,-0.837702 4.630071,-0.989728 6.692456,-1.217442 v -0.459891 c 0,-0.835174 0.06686,-1.828729 -0.43138,-2.551955 -0.433304,-0.649436 -1.2652,-0.914047 -1.996804,-0.914047 -1.357138,0 -2.565123,0.685697 -2.860848,2.112425 -0.06235,0.316759 -0.295747,0.630353 -0.618456,0.646894 l -3.448443,-0.369548 c -0.293172,-0.06488 -0.615885,-0.294483 -0.532313,-0.73467 0.792682,-4.141518 4.570281,-5.390779 7.957652,-5.390779 1.731296,0 3.995543,0.457339 5.358465,1.753671 1.731291,1.599739 1.563496,3.733155 1.563496,6.058025 v 5.484922 c 0,1.651265 0.694965,2.373852 1.34428,3.26182 0.2276,0.319944 0.279021,0.701597 -0.01158,0.936945 -0.727103,0.60364 -2.018018,1.712968 -2.728404,2.338234 l -0.0087,-0.0084 z"
         inkscape:connector-curvature="0"
         id="path3186"
         style="fill:#f9f9f9;fill-opacity:1;fill-rule:evenodd;display:inline" />
      <g
         transform="matrix(2.0506345,0,0,2.0506345,-50.842639,-5.9981996)"
         id="g3188"
         style="fill:#ff9201;fill-opacity:1;display:inline">
        <path
           d="m -8.0352193,30.04091 c -1.6612348,1.225818 -4.0701767,1.877903 -6.1447617,1.877903 -2.906561,0 -5.524657,-1.07423 -7.505698,-2.862748 -0.155426,-0.140714 -0.01663,-0.332918 0.169977,-0.223704 2.137746,1.244047 4.780787,1.992714 7.510655,1.992714 1.841766,0 3.865821,-0.382009 5.7285337,-1.172251 0.28095,-0.118808 0.5163275,0.185328 0.241294,0.388086 z"
           inkscape:connector-curvature="0"
           id="path3190"
           style="fill:#ff9201;fill-opacity:1;fill-rule:evenodd" />
        <path
           d="m -7.3439576,29.251627 c -0.2121916,-0.271835 -1.4049099,-0.128882 -1.9399461,-0.06428 -0.1626216,0.01871 -0.1875665,-0.122326 -0.041415,-0.225783 0.9511045,-0.668076 2.5095215,-0.474753 2.6908517,-0.251368 0.1824496,0.226263 -0.047811,1.788518 -0.9392716,2.533507 -0.1370371,0.11513 -0.2675181,0.05453 -0.2069148,-0.09722 0.2003588,-0.501457 0.6496869,-1.622858 0.4366958,-1.894854 z"
           inkscape:connector-curvature="0"
           id="path3192"
           style="fill:#ff9201;fill-opacity:1;fill-rule:evenodd" />
      </g>
    </g>
  </g>
</svg>
