<?xml version="1.0" encoding="UTF-8" standalone="no"?>
<!-- Created with Inkscape (http://www.inkscape.org/) -->

<svg
   xmlns:dc="http://purl.org/dc/elements/1.1/"
   xmlns:cc="http://creativecommons.org/ns#"
   xmlns:rdf="http://www.w3.org/1999/02/22-rdf-syntax-ns#"
   xmlns:svg="http://www.w3.org/2000/svg"
   xmlns="http://www.w3.org/2000/svg"
   xmlns:sodipodi="http://sodipodi.sourceforge.net/DTD/sodipodi-0.dtd"
   xmlns:inkscape="http://www.inkscape.org/namespaces/inkscape"
   width="48"
   height="48"
   id="svg2"
   version="1.1"
   inkscape:version="0.48.5 r10040"
   sodipodi:docname="virtualbox.svg"
   enable-background="new">
  <defs
     id="defs4">
    <filter
       inkscape:collect="always"
       id="filter4088">
      <feBlend
         inkscape:collect="always"
         mode="darken"
         in2="BackgroundImage"
         id="feBlend4090" />
    </filter>
  </defs>
  <sodipodi:namedview
     id="base"
     pagecolor="#ffffff"
     bordercolor="#666666"
     borderopacity="1.0"
     inkscape:pageopacity="0.0"
     inkscape:pageshadow="2"
     inkscape:zoom="9.9206856"
     inkscape:cx="20.509183"
     inkscape:cy="27.46157"
     inkscape:document-units="px"
     inkscape:current-layer="layer1"
     showgrid="false"
     fit-margin-top="0"
     fit-margin-left="0"
     fit-margin-right="0"
     fit-margin-bottom="0"
     inkscape:window-width="1535"
     inkscape:window-height="876"
     inkscape:window-x="65"
     inkscape:window-y="24"
     inkscape:window-maximized="1"
     showguides="true">
    <sodipodi:guide
       position="8.9999928,39"
       orientation="30,0"
       id="guide3292" />
    <sodipodi:guide
       position="8.9999928,9"
       orientation="0,30"
       id="guide3294" />
    <sodipodi:guide
       position="38.999993,39"
       orientation="0,-30"
       id="guide3298" />
    <sodipodi:guide
       position="1.9999928,43.999573"
       orientation="40,0"
       id="guide3304" />
    <sodipodi:guide
       position="1.9999928,3.9995728"
       orientation="0,43.999985"
       id="guide3306" />
    <sodipodi:guide
       position="45.999978,3.9995728"
       orientation="-40,0"
       id="guide3308" />
    <sodipodi:guide
       position="45.999978,43.999573"
       orientation="0,-43.999985"
       id="guide3310" />
    <sodipodi:guide
       position="4.000008,43.999573"
       orientation="40,0"
       id="guide3351" />
    <sodipodi:guide
       position="44.000008,3.9995728"
       orientation="-40,0"
       id="guide3355" />
    <sodipodi:guide
       position="44.000008,43.999573"
       orientation="0,-40"
       id="guide3357" />
  </sodipodi:namedview>
  <metadata
     id="metadata7">
    <rdf:RDF>
      <cc:Work
         rdf:about="">
        <dc:format>image/svg+xml</dc:format>
        <dc:type
           rdf:resource="http://purl.org/dc/dcmitype/StillImage" />
        <dc:title />
      </cc:Work>
    </rdf:RDF>
  </metadata>
  <g
     inkscape:label="Capa 1"
     inkscape:groupmode="layer"
     id="layer1"
     transform="translate(-180.23661,-689.8125)">
    <rect
       style="fill:none;stroke:none"
       id="rect3361"
       width="5.0004272"
       height="5.0004272"
       x="184.23662"
       y="728.8125" />
    <rect
       style="fill:none;stroke:none"
       id="rect3379"
       width="5.0000148"
       height="5.0004272"
       x="219.2366"
       y="728.8125" />
    <path
       style="fill:#333333;fill-opacity:1;stroke:none"
       d="M 4 4 L 4 44 L 36 44 L 36 42 L 38 42 L 38 44 L 44 44 L 44 6.625 L 39 6.625 L 39 4 L 25.34375 4 L 25.34375 5.5 L 12.0625 5.5 L 9.1875 4 L 4 4 z M 28.25 6.8125 C 28.571447 6.8125 28.84375 7.084803 28.84375 7.40625 C 28.84375 7.727697 28.571447 8 28.25 8 C 27.928553 8 27.6875 7.727697 27.6875 7.40625 C 27.6875 7.084803 27.928553 6.8125 28.25 6.8125 z M 32.40625 6.8125 C 32.727697 6.8125 33 7.084803 33 7.40625 C 33 7.727697 32.727697 8 32.40625 8 C 32.084803 8 31.84375 7.727697 31.84375 7.40625 C 31.84375 7.084803 32.084803 6.8125 32.40625 6.8125 z M 36.53125 6.8125 C 36.852697 6.8125 37.09375 7.084803 37.09375 7.40625 C 37.09375 7.727697 36.852697 8 36.53125 8 C 36.209803 8 35.9375 7.727697 35.9375 7.40625 C 35.9375 7.084803 36.209803 6.8125 36.53125 6.8125 z M 6.5 40.5 C 7.0236351 40.499969 7.5 40.976385 7.5 41.5 C 7.5 42.023615 7.0236351 42.500031 6.5 42.5 C 5.9763649 42.499969 5.5 42.023556 5.5 41.5 C 5.5 40.976444 5.9763649 40.500031 6.5 40.5 z M 41.5 40.5 C 42.023635 40.499969 42.5 40.976385 42.5 41.5 C 42.5 42.023615 42.023635 42.500031 41.5 42.5 C 40.976365 42.499969 40.5 42.023556 40.5 41.5 C 40.5 40.976444 40.976365 40.500031 41.5 40.5 z "
       transform="translate(180.23661,689.8125)"
       id="rect3300" />
    <ellipse
       style="fill:none;stroke:none"
       id="path3278"
       cx="182.2366"
       cy="713.8125"
       rx="2"
       ry="2.0000615"
       d="m 184.2366,713.8125 c 0,1.1046 -0.89543,2.00006 -2,2.00006 -1.10457,0 -2,-0.89546 -2,-2.00006 0,-1.1046 0.89543,-2.00006 2,-2.00006 1.10457,0 2,0.89546 2,2.00006 z"
       sodipodi:cx="182.2366"
       sodipodi:cy="713.8125"
       sodipodi:rx="2"
       sodipodi:ry="2.0000615" />
    <ellipse
       ry="2.0000615"
       rx="2"
       cy="713.8125"
       cx="226.2366"
       id="ellipse3280"
       style="fill:none;stroke:none"
       d="m 228.2366,713.8125 c 0,1.1046 -0.89543,2.00006 -2,2.00006 -1.10457,0 -2,-0.89546 -2,-2.00006 0,-1.1046 0.89543,-2.00006 2,-2.00006 1.10457,0 2,0.89546 2,2.00006 z"
       sodipodi:cx="226.2366"
       sodipodi:cy="713.8125"
       sodipodi:rx="2"
       sodipodi:ry="2.0000615" />
    <ellipse
       style="fill:none;stroke:none"
       id="ellipse3282"
       cx="204.23523"
       cy="691.8125"
       rx="2.0013857"
       ry="2.0000615"
       d="m 206.23662,691.8125 c 0,1.1046 -0.89606,2.00006 -2.00139,2.00006 -1.10534,0 -2.00139,-0.89546 -2.00139,-2.00006 0,-1.1046 0.89605,-2.00006 2.00139,-2.00006 1.10533,0 2.00139,0.89546 2.00139,2.00006 z"
       sodipodi:cx="204.23523"
       sodipodi:cy="691.8125"
       sodipodi:rx="2.0013857"
       sodipodi:ry="2.0000615" />
    <ellipse
       ry="2.0000615"
       rx="2.0013857"
       cy="735.8125"
       cx="204.23523"
       id="ellipse3284"
       style="fill:none;stroke:none"
       d="m 206.23662,735.8125 c 0,1.1046 -0.89606,2.00006 -2.00139,2.00006 -1.10534,0 -2.00139,-0.89546 -2.00139,-2.00006 0,-1.1046 0.89605,-2.00006 2.00139,-2.00006 1.10533,0 2.00139,0.89546 2.00139,2.00006 z"
       sodipodi:cx="204.23523"
       sodipodi:cy="735.8125"
       sodipodi:rx="2.0013857"
       sodipodi:ry="2.0000615" />
    <rect
       style="fill:#f1cb6d;fill-opacity:1;fill-rule:evenodd;stroke:none"
       id="rect3345"
       width="2"
       height="2"
       x="189.2366"
       y="731.81293" />
    <path
       style="fill:#5a5a5a;fill-opacity:1;stroke:none"
       d="m 218.0366,701.92333 0,8.06039 -4.79999,0 0,1.2 4.79999,0 1.2,0 0,-1.2 0,-8.06039 z m -2.39999,3.38285 0,2.27754 -2.4,0 0,1.2 3.59999,0 0,-1.2 0,-2.27754 z m -2.4,7.07754 0,1.19999 1.10156,0 0,0.002 0.69618,0 0,2.39257 1.2,0 0,-3.59491 m -2.99774,2.40034 0,1.2 1.00765,0 0,-1.2 z m 0,2.38904 0,1.2 9.64652,0 0,-1.2 z m 0,2.4 0,1.2 1.98047,0 1.94765,3.37265 0,1.81672 1.20234,0 c 0,-1.06883 0,-1.06664 0,-2.13547 l -1.20234,-2.08359 -0.56015,-0.97031 -0.69375,-1.2 -1.3875,0 z"
       id="path3816"
       inkscape:connector-curvature="0"
       sodipodi:nodetypes="ccccccccccccccccccccccccccccccccccccccccccccccc" />
    <path
       sodipodi:nodetypes="cccccccccccccccccccccc"
       inkscape:connector-curvature="0"
       id="path3805"
       d="m 193.28212,698.8125 4.14976,0 0,5.99999 1.20001,0 0,-5.99999 0,-1.2 -1.20001,0 -4.14976,0 z m 17.47121,5.99999 1.20001,0 0,-2.4 -1.20001,0 z m -11.00154,-0.64952 c 0,0.56813 0,0.0814 0,0.64952 l 1.20001,0 0,-0.27139 1.73714,-1.63203 1.81672,0 0,-1.20234 c -1.06883,0 -1.06664,0 -2.13547,0"
       style="fill:#5a5a5a;fill-opacity:1;stroke:none" />
    <path
       style="fill:#5a5a5a;fill-opacity:1;stroke:none"
       d="m 187.3392,719.97287 0,-1.57388 7.91754,0 0,-1.2 -7.91754,0 -1.2,0 0,1.2 0,1.57388 z m 6.7728,5.34239 0,-4.86702 1.14474,0 0,-1.2 -2.34473,0 0,1.2 0,4.86702 z m 1.14474,-12.98075 0,-1.2 -2.4,0 0,1.2 z m 0,-2.07538 0,-1.2 -6.02014,0 0,1.2 z m 0,-2.11454 0,-1.2 -2.86534,0 -1.94765,-3.37265 0,-7.07791 -1.20234,0 0,1.08742 0,6.30924 1.20234,2.08359 0.56015,0.97031 0.69375,1.2 2.27237,0 z"
       id="rect3397"
       inkscape:connector-curvature="0"
       sodipodi:nodetypes="cccccccccccccccccccccccccccccccccccccccc" />
    <ellipse
       style="fill:none;stroke:none"
       id="ellipse3282-5"
       cx="214.23593"
       cy="705.81293"
       rx="1.0006928"
       ry="1.0000308"
       d="m 215.23662,705.81293 c 0,0.5523 -0.44802,1.00003 -1.00069,1.00003 -0.55267,0 -1.00069,-0.44773 -1.00069,-1.00003 0,-0.5523 0.44802,-1.00003 1.00069,-1.00003 0.55267,0 1.00069,0.44773 1.00069,1.00003 z"
       sodipodi:cx="214.23593"
       sodipodi:cy="705.81293"
       sodipodi:rx="1.0006928"
       sodipodi:ry="1.0000308" />
    <rect
       style="fill:#7aa665;fill-opacity:1;stroke:none"
       id="rect3347"
       width="18"
       height="17.999996"
       x="195.23662"
       y="704.81293" />
    <ellipse
       ry="1.0000308"
       rx="1.0006928"
       cy="707.3125"
       cx="216.23593"
       id="ellipse3529"
       style="fill:none;stroke:none"
       d="m 217.23662,707.3125 c 0,0.5523 -0.44802,1.00003 -1.00069,1.00003 -0.55267,0 -1.00069,-0.44773 -1.00069,-1.00003 0,-0.5523 0.44802,-1.00003 1.00069,-1.00003 0.55267,0 1.00069,0.44773 1.00069,1.00003 z"
       sodipodi:cx="216.23593"
       sodipodi:cy="707.3125"
       sodipodi:rx="1.0006928"
       sodipodi:ry="1.0000308" />
    <ellipse
       style="fill:none;stroke:none"
       id="ellipse3533"
       cx="216.23593"
       cy="711.3125"
       rx="1.0006928"
       ry="1.0000308"
       d="m 217.23662,711.3125 c 0,0.5523 -0.44802,1.00003 -1.00069,1.00003 -0.55267,0 -1.00069,-0.44773 -1.00069,-1.00003 0,-0.5523 0.44802,-1.00003 1.00069,-1.00003 0.55267,0 1.00069,0.44773 1.00069,1.00003 z"
       sodipodi:cx="216.23593"
       sodipodi:cy="711.3125"
       sodipodi:rx="1.0006928"
       sodipodi:ry="1.0000308" />
    <ellipse
       ry="1.0000308"
       rx="1.0006928"
       cy="713.3125"
       cx="216.23593"
       id="ellipse3568"
       style="fill:none;stroke:none"
       d="m 217.23662,713.3125 c 0,0.5523 -0.44802,1.00003 -1.00069,1.00003 -0.55267,0 -1.00069,-0.44773 -1.00069,-1.00003 0,-0.5523 0.44802,-1.00003 1.00069,-1.00003 0.55267,0 1.00069,0.44773 1.00069,1.00003 z"
       sodipodi:cx="216.23593"
       sodipodi:cy="713.3125"
       sodipodi:rx="1.0006928"
       sodipodi:ry="1.0000308" />
    <rect
       y="728.8125"
       x="192.2366"
       height="5.0004272"
       width="2"
       id="rect3589"
       style="fill:#f1cb6d;fill-opacity:1;fill-rule:evenodd;stroke:none" />
    <ellipse
       style="fill:none;stroke:none"
       id="ellipse3591"
       cx="191.73625"
       cy="731.31274"
       rx="0.50034642"
       ry="0.50001532"
       d="m 192.2366,731.31274 c 0,0.27615 -0.22401,0.50002 -0.50035,0.50002 -0.27633,0 -0.50034,-0.22387 -0.50034,-0.50002 0,-0.27615 0.22401,-0.50001 0.50034,-0.50001 0.27634,0 0.50035,0.22386 0.50035,0.50001 z"
       sodipodi:cx="191.73625"
       sodipodi:cy="731.31274"
       sodipodi:rx="0.50034642"
       sodipodi:ry="0.50001532" />
    <rect
       style="fill:#f1cb6d;fill-opacity:1;fill-rule:evenodd;stroke:none"
       id="rect3595"
       width="2"
       height="5.0004272"
       x="195.2366"
       y="728.8125" />
    <ellipse
       ry="0.50001532"
       rx="0.50034642"
       cy="731.31274"
       cx="194.73625"
       id="ellipse3607"
       style="fill:none;stroke:none"
       d="m 195.2366,731.31274 c 0,0.27615 -0.22401,0.50002 -0.50035,0.50002 -0.27633,0 -0.50034,-0.22387 -0.50034,-0.50002 0,-0.27615 0.22401,-0.50001 0.50034,-0.50001 0.27634,0 0.50035,0.22386 0.50035,0.50001 z"
       sodipodi:cx="194.73625"
       sodipodi:cy="731.31274"
       sodipodi:rx="0.50034642"
       sodipodi:ry="0.50001532" />
    <rect
       y="728.8125"
       x="198.2366"
       height="5.0004272"
       width="2"
       id="rect3611"
       style="fill:#f1cb6d;fill-opacity:1;fill-rule:evenodd;stroke:none" />
    <ellipse
       style="fill:none;stroke:none"
       id="ellipse3613"
       cx="197.73625"
       cy="731.31274"
       rx="0.50034642"
       ry="0.50001532"
       d="m 198.2366,731.31274 c 0,0.27615 -0.22401,0.50002 -0.50035,0.50002 -0.27633,0 -0.50034,-0.22387 -0.50034,-0.50002 0,-0.27615 0.22401,-0.50001 0.50034,-0.50001 0.27634,0 0.50035,0.22386 0.50035,0.50001 z"
       sodipodi:cx="197.73625"
       sodipodi:cy="731.31274"
       sodipodi:rx="0.50034642"
       sodipodi:ry="0.50001532" />
    <rect
       y="728.8125"
       x="201.23662"
       height="5.0004272"
       width="2"
       id="rect3628"
       style="fill:#f1cb6d;fill-opacity:1;fill-rule:evenodd;stroke:none" />
    <ellipse
       style="fill:none;stroke:none"
       id="ellipse3630"
       cx="200.73627"
       cy="731.31274"
       rx="0.50034642"
       ry="0.50001532"
       d="m 201.23661,731.31274 c 0,0.27615 -0.22401,0.50002 -0.50034,0.50002 -0.27634,0 -0.50035,-0.22387 -0.50035,-0.50002 0,-0.27615 0.22401,-0.50001 0.50035,-0.50001 0.27633,0 0.50034,0.22386 0.50034,0.50001 z"
       sodipodi:cx="200.73627"
       sodipodi:cy="731.31274"
       sodipodi:rx="0.50034642"
       sodipodi:ry="0.50001532" />
    <rect
       style="fill:#f1cb6d;fill-opacity:1;fill-rule:evenodd;stroke:none"
       id="rect3634"
       width="2"
       height="5.0004272"
       x="204.23662"
       y="728.8125" />
    <ellipse
       ry="0.50001532"
       rx="0.50034642"
       cy="731.31274"
       cx="203.73627"
       id="ellipse3636"
       style="fill:none;stroke:none"
       d="m 204.23661,731.31274 c 0,0.27615 -0.22401,0.50002 -0.50034,0.50002 -0.27634,0 -0.50035,-0.22387 -0.50035,-0.50002 0,-0.27615 0.22401,-0.50001 0.50035,-0.50001 0.27633,0 0.50034,0.22386 0.50034,0.50001 z"
       sodipodi:cx="203.73627"
       sodipodi:cy="731.31274"
       sodipodi:rx="0.50034642"
       sodipodi:ry="0.50001532" />
    <rect
       y="728.8125"
       x="207.23662"
       height="5.0004272"
       width="2"
       id="rect3640"
       style="fill:#f1cb6d;fill-opacity:1;fill-rule:evenodd;stroke:none" />
    <ellipse
       style="fill:none;stroke:none"
       id="ellipse3642"
       cx="206.73627"
       cy="731.31274"
       rx="0.50034642"
       ry="0.50001532"
       d="m 207.23661,731.31274 c 0,0.27615 -0.22401,0.50002 -0.50034,0.50002 -0.27634,0 -0.50035,-0.22387 -0.50035,-0.50002 0,-0.27615 0.22401,-0.50001 0.50035,-0.50001 0.27633,0 0.50034,0.22386 0.50034,0.50001 z"
       sodipodi:cx="206.73627"
       sodipodi:cy="731.31274"
       sodipodi:rx="0.50034642"
       sodipodi:ry="0.50001532" />
    <rect
       style="fill:#f1cb6d;fill-opacity:1;fill-rule:evenodd;stroke:none"
       id="rect3646"
       width="2"
       height="5.0004272"
       x="210.23663"
       y="728.8125" />
    <ellipse
       ry="0.50001532"
       rx="0.50034642"
       cy="731.31274"
       cx="209.73628"
       id="ellipse3648"
       style="fill:none;stroke:none"
       d="m 210.23663,731.31274 c 0,0.27615 -0.22401,0.50002 -0.50035,0.50002 -0.27633,0 -0.50034,-0.22387 -0.50034,-0.50002 0,-0.27615 0.22401,-0.50001 0.50034,-0.50001 0.27634,0 0.50035,0.22386 0.50035,0.50001 z"
       sodipodi:cx="209.73628"
       sodipodi:cy="731.31274"
       sodipodi:rx="0.50034642"
       sodipodi:ry="0.50001532" />
    <rect
       style="fill:#f1cb6d;fill-opacity:1;fill-rule:evenodd;stroke:none"
       id="rect3652"
       width="2"
       height="5.0004272"
       x="213.23663"
       y="728.8125" />
    <ellipse
       ry="0.50001532"
       rx="0.50034642"
       cy="731.31274"
       cx="212.73628"
       id="ellipse3654"
       style="fill:none;stroke:none"
       d="m 213.23663,731.31274 c 0,0.27615 -0.22401,0.50002 -0.50035,0.50002 -0.27633,0 -0.50034,-0.22387 -0.50034,-0.50002 0,-0.27615 0.22401,-0.50001 0.50034,-0.50001 0.27634,0 0.50035,0.22386 0.50035,0.50001 z"
       sodipodi:cx="212.73628"
       sodipodi:cy="731.31274"
       sodipodi:rx="0.50034642"
       sodipodi:ry="0.50001532" />
    <ellipse
       style="fill:none;stroke:none"
       id="ellipse3660"
       cx="215.73628"
       cy="731.31274"
       rx="0.50034642"
       ry="0.50001532"
       d="m 216.23663,731.31274 c 0,0.27615 -0.22401,0.50002 -0.50035,0.50002 -0.27633,0 -0.50034,-0.22387 -0.50034,-0.50002 0,-0.27615 0.22401,-0.50001 0.50034,-0.50001 0.27634,0 0.50035,0.22386 0.50035,0.50001 z"
       sodipodi:cx="215.73628"
       sodipodi:cy="731.31274"
       sodipodi:rx="0.50034642"
       sodipodi:ry="0.50001532" />
    <ellipse
       ry="0.50001532"
       rx="0.50034642"
       cy="731.31274"
       cx="218.73416"
       id="ellipse3717"
       style="fill:none;stroke:none"
       d="m 219.23451,731.31274 c 0,0.27615 -0.22401,0.50002 -0.50035,0.50002 -0.27633,0 -0.50035,-0.22387 -0.50035,-0.50002 0,-0.27615 0.22402,-0.50001 0.50035,-0.50001 0.27634,0 0.50035,0.22386 0.50035,0.50001 z"
       sodipodi:cx="218.73416"
       sodipodi:cy="731.31274"
       sodipodi:rx="0.50034642"
       sodipodi:ry="0.50001532" />
    <path
       inkscape:connector-curvature="0"
       id="path3643-9-1"
       d="m 207.32487,707.31292 c -0.0395,0 -0.0709,0.0105 -0.10863,0.0155 -0.22622,0.031 -0.4342,0.19815 -0.49661,0.4217 l -1.67604,5.46635 -0.41901,0 -0.1707,0 -0.41901,0 -0.15519,0 -0.86906,0 c -0.24026,0.005 -0.46807,0.1762 -0.54316,0.40605 l -1.24151,4.06075 -1.76915,-6.34095 c -0.12511,-0.40775 -0.76663,-0.5265 -1.02424,-0.1874 l -1.50533,2.06155 -0.46557,0 -0.37245,0 -0.0465,0 c -0.0224,0 -0.031,0.0245 -0.031,0.047 l 0,1.0933 c 0,0.0225 0.009,0.031 0.031,0.031 l 0.0465,0 0.37245,0 0.74491,0 c 0.18575,-0.005 0.36108,-0.0951 0.46556,-0.24985 l 1.00873,-1.39005 1.97089,7.13755 c 0.0539,0.1903 0.21439,0.35165 0.4035,0.40605 0.29467,0.0888 0.64617,-0.108 0.72938,-0.40605 l 1.66052,-5.49765 0.43453,0 0.15519,0 0.41901,0 0.1707,0 0.85354,0 c 0.24027,-0.005 0.48359,-0.16055 0.55868,-0.3904 l 1.22599,-4.04515 1.78467,6.34095 c 0.12511,0.40795 0.76664,0.52665 1.02425,0.18745 l 1.50533,-2.09285 0.46557,0 0.34141,0 0.031,0 c 0.0225,0 0.0465,-0.009 0.0465,-0.031 l 0,-1.0933 c 0,-0.0225 -0.0241,-0.047 -0.0465,-0.047 l -0.031,0 -0.34141,0 -0.76043,0 c -0.18575,0.005 -0.34556,0.11085 -0.45005,0.2655 l -1.02424,1.39 -1.95538,-7.12185 c -0.0539,-0.19025 -0.21438,-0.35175 -0.40349,-0.40605 -0.0368,-0.011 -0.0847,-0.029 -0.12415,-0.031 z"
       style="font-style:normal;font-variant:normal;font-weight:normal;font-stretch:normal;text-indent:0;text-align:start;text-decoration:none;line-height:normal;letter-spacing:normal;word-spacing:normal;text-transform:none;direction:ltr;block-progression:tb;writing-mode:lr-tb;text-anchor:start;color:#000000;fill:#538338;fill-opacity:1;stroke:none;stroke-width:1;marker:none;visibility:visible;display:inline;overflow:visible;enable-background:accumulate;font-family:Bitstream Vera Sans;-inkscape-font-specification:Bitstream Vera Sans" />
    <path
       id="path3104"
       d="m 116.31816,697.95635 c -9.59556,5.54 -12.86051,17.72495 -7.32051,27.32051 3.28171,5.68408 8.90417,9.12988 14.92821,9.85641 l -1.5,-2.59808 1.73205,-1 2.15625,3.73474 c 0.38509,-3e-5 0.76136,0.01 1.14727,-0.0129 l -2.4375,-4.22188 1.73206,-1 2.875,4.97965 c 0.34666,-0.0588 0.6928,-0.1247 1.0379,-0.2023 l -3.04688,-5.27735 1.73205,-1 3.29688,5.71036 c 0.32133,-0.10823 0.64165,-0.21208 0.95977,-0.33762 l -3.39062,-5.87274 1.73205,-1 3.48437,6.03512 c 0.29529,-0.15178 0.59087,-0.30506 0.88165,-0.47294 0.22645,-0.13074 0.44254,-0.28066 0.66096,-0.41769 l -0.67658,0.39063 -3.48438,-6.03512 1.73205,-1 3.4375,5.95393 c 0.27569,-0.19695 0.55496,-0.37125 0.81915,-0.58119 l -3.39062,-5.87274 1.73205,-1 3.1875,5.52091 c 0.24828,-0.24269 0.49159,-0.48945 0.7254,-0.74356 l -3.04687,-5.27735 1.73205,-1 2.67187,4.62783 c 0.22028,-0.29741 0.42922,-0.59839 0.63165,-0.90595 l -2.4375,-4.22188 1.73205,-1 1.85938,3.22053 c 2.92357,-5.80759 2.94243,-12.90356 -0.56515,-18.97886 -5.54,-9.59556 -17.72495,-12.86051 -27.32051,-7.32051 z"
       style="fill:#333333;fill-opacity:1;stroke:none"
       inkscape:connector-curvature="0" />
    <path
       style="fill:#5a5a5a;fill-opacity:1;stroke:none"
       d="m 189.2366,716.60355 1.2,0 0,-3.55048 -1.2,0 z"
       id="rect3397-5"
       inkscape:connector-curvature="0"
       sodipodi:nodetypes="ccccc" />
    <path
       style="fill:#f1cb6d;fill-opacity:1"
       d="m 208.47031,695.625 c -0.87905,0 -1.59375,0.7147 -1.59375,1.59375 0,0.87905 0.7147,1.59375 1.59375,1.59375 0.87904,0 1.59375,-0.7147 1.59375,-1.59375 0,-0.87905 -0.71471,-1.59375 -1.59375,-1.59375 z m 0,1 c 0.32144,0 0.59375,0.2723 0.59375,0.59375 0,0.32145 -0.27231,0.59375 -0.59375,0.59375 -0.32145,0 -0.5625,-0.2723 -0.5625,-0.59375 0,-0.32145 0.24105,-0.59375 0.5625,-0.59375 z"
       id="path3838"
       inkscape:connector-curvature="0" />
    <path
       style="fill:#f1cb6d;fill-opacity:1"
       d="m 212.65646,695.625 c -0.87905,0 -1.59375,0.7147 -1.59375,1.59375 0,0.87905 0.7147,1.59375 1.59375,1.59375 0.87905,0 1.59375,-0.7147 1.59375,-1.59375 0,-0.87905 -0.7147,-1.59375 -1.59375,-1.59375 z m 0,1 c 0.32145,0 0.59375,0.2723 0.59375,0.59375 0,0.32145 -0.2723,0.59375 -0.59375,0.59375 -0.32145,0 -0.59375,-0.2723 -0.59375,-0.59375 0,-0.32145 0.2723,-0.59375 0.59375,-0.59375 z"
       id="path3840"
       inkscape:connector-curvature="0" />
    <path
       style="fill:#f1cb6d;fill-opacity:1"
       d="M 36.53125 5.8125 C 35.652202 5.8125 34.9375 6.5272018 34.9375 7.40625 C 34.9375 8.2852982 35.652202 9 36.53125 9 C 37.410298 9 38.125 8.2852982 38.125 7.40625 C 38.125 6.5272018 37.410298 5.8125 36.53125 5.8125 z M 36.53125 6.8125 C 36.852697 6.8125 37.09375 7.084803 37.09375 7.40625 C 37.09375 7.727697 36.852697 8 36.53125 8 C 36.209803 8 35.9375 7.727697 35.9375 7.40625 C 35.9375 7.084803 36.209803 6.8125 36.53125 6.8125 z "
       transform="translate(180.23661,689.8125)"
       id="path3836" />
  </g>
  <g
     inkscape:groupmode="layer"
     id="layer2"
     inkscape:label="overlay"
     style="filter:url(#filter4088)" />
</svg>
