<?xml version="1.0" encoding="UTF-8" standalone="no"?>
<!-- Created with Inkscape (http://www.inkscape.org/) -->

<svg
   xmlns:dc="http://purl.org/dc/elements/1.1/"
   xmlns:cc="http://creativecommons.org/ns#"
   xmlns:rdf="http://www.w3.org/1999/02/22-rdf-syntax-ns#"
   xmlns:svg="http://www.w3.org/2000/svg"
   xmlns="http://www.w3.org/2000/svg"
   xmlns:sodipodi="http://sodipodi.sourceforge.net/DTD/sodipodi-0.dtd"
   xmlns:inkscape="http://www.inkscape.org/namespaces/inkscape"
   width="48"
   height="48"
   id="svg2"
   version="1.1"
   inkscape:version="0.48.5 r10040"
   viewBox="0 0 13.546666 13.546668"
   sodipodi:docname="wickr.svg">
  <defs
     id="defs4" />
  <sodipodi:namedview
     id="base"
     pagecolor="#ffffff"
     bordercolor="#666666"
     borderopacity="1.0"
     inkscape:pageopacity="0"
     inkscape:pageshadow="2"
     inkscape:zoom="21.000126"
     inkscape:cx="15.423507"
     inkscape:cy="21.257397"
     inkscape:document-units="px"
     inkscape:current-layer="g3803"
     showgrid="false"
     inkscape:showpageshadow="false"
     borderlayer="true"
     units="px"
     fit-margin-top="0"
     fit-margin-left="0"
     fit-margin-right="0"
     fit-margin-bottom="0"
     showguides="true"
     inkscape:window-width="1535"
     inkscape:window-height="876"
     inkscape:window-x="65"
     inkscape:window-y="24"
     inkscape:window-maximized="1">
    <sodipodi:guide
       position="-6.6748425e-06,47.999999"
       orientation="47.999977,0"
       id="guide4120" />
    <sodipodi:guide
       position="-6.6748425e-06,2.2810037e-05"
       orientation="0,48.000004"
       id="guide4122" />
    <sodipodi:guide
       position="47.999997,2.2810037e-05"
       orientation="-47.999977,0"
       id="guide4124" />
    <sodipodi:guide
       position="47.999997,47.999999"
       orientation="0,-48.000004"
       id="guide4126" />
    <sodipodi:guide
       position="3.9999733,44.000154"
       orientation="39.999962,0"
       id="guide4138" />
    <sodipodi:guide
       position="3.9999733,4.0001921"
       orientation="0,40.000003"
       id="guide4140" />
    <sodipodi:guide
       position="43.999976,4.0001921"
       orientation="-39.999962,0"
       id="guide4142" />
    <sodipodi:guide
       position="43.999976,44.000154"
       orientation="0,-40.000003"
       id="guide4144" />
    <sodipodi:guide
       position="6.9999922,47.999999"
       orientation="39.999962,0"
       id="guide4148" />
    <sodipodi:guide
       position="55.55393,8.359212"
       orientation="0,34.000006"
       id="guide4150" />
    <sodipodi:guide
       position="40.999998,8.0000369"
       orientation="-39.999962,0"
       id="guide4152" />
    <sodipodi:guide
       position="40.999998,47.999999"
       orientation="0,-34.000006"
       id="guide4154" />
    <sodipodi:guide
       position="14.999993,32.999986"
       orientation="17.999951,0"
       id="guide4158" />
    <sodipodi:guide
       position="14.999993,15.000036"
       orientation="0,17.999998"
       id="guide4160" />
    <sodipodi:guide
       position="32.999991,15.000036"
       orientation="-17.999951,0"
       id="guide4162" />
    <sodipodi:guide
       position="32.999991,32.999986"
       orientation="0,-17.999998"
       id="guide4164" />
    <sodipodi:guide
       position="1.9999969,44.000046"
       orientation="39.999962,0"
       id="guide3279" />
    <sodipodi:guide
       position="1.9999969,4.0000839"
       orientation="0,44.000003"
       id="guide3281" />
    <sodipodi:guide
       position="46,4.0000839"
       orientation="-39.999962,0"
       id="guide3283" />
    <sodipodi:guide
       position="46,44.000046"
       orientation="0,-44.000003"
       id="guide3285" />
  </sodipodi:namedview>
  <metadata
     id="metadata7">
    <rdf:RDF>
      <cc:Work
         rdf:about="">
        <dc:format>image/svg+xml</dc:format>
        <dc:type
           rdf:resource="http://purl.org/dc/dcmitype/StillImage" />
        <dc:title />
      </cc:Work>
    </rdf:RDF>
  </metadata>
  <g
     inkscape:label="Capa 1"
     inkscape:groupmode="layer"
     id="layer1"
     transform="translate(38.119153,-397.84494)">
    <rect
       style="fill:#776d63;fill-opacity:1"
       id="rect3026"
       width="11.288886"
       height="11.288903"
       x="-36.990269"
       y="398.97379" />
    <g
       id="g5475"
       transform="matrix(0.16537962,-0.00189584,0.00189584,0.16537962,-23.285942,373.22014)">
      <path
         sodipodi:nodetypes="cccc"
         inkscape:connector-curvature="0"
         id="path5465"
         d="m -23.517611,182.87796 -35.132982,35.43978 -13.216999,-48.42622 c 11.355137,3.21707 48.349993,12.9864 48.349993,12.9864 z"
         style="fill:#811111;fill-opacity:1;fill-rule:evenodd" />
      <path
         sodipodi:nodetypes="cccc"
         inkscape:connector-curvature="0"
         id="path5473"
         d="m -34.892335,214.01429 -43.325291,-24.76337 43.355327,-25.30027 c -0.168532,11.80087 -0.03,50.06364 -0.03,50.06364 z"
         style="fill:#680f0f;fill-opacity:1;fill-rule:evenodd" />
      <path
         style="fill:#951515;fill-opacity:1;fill-rule:evenodd"
         d="m -71.875358,208.45506 12.70616,-48.25825 35.659365,35.32984 c -11.442375,2.8915 -48.365525,12.92845 -48.365525,12.92845 z"
         id="path5463"
         inkscape:connector-curvature="0"
         sodipodi:nodetypes="cccc" />
    </g>
    <g
       id="g3915"
       transform="translate(20.703402,23.983149)">
      <rect
         style="fill:#dd1d08;fill-opacity:1"
         id="rect3069"
         width="34.776592"
         height="34.776592"
         x="-8.7823839"
         y="410.26266" />
      <path
         inkscape:connector-curvature="0"
         id="path2987"
         d="m 8.4098232,411.3916 -0.261696,3.09417 -0.22321,2.85557 -0.246304,2.93254 -0.107758,0.85436 -0.284785,0.62345 -0.531091,-0.61575 -0.361756,-0.61576 0.138543,0.86206 0.13085,0.86206 -0.738909,-1.47782 c -0.409431,-0.81279 -1.085054,-2.19825 -1.493207,-3.07878 -0.876139,-1.89015 -0.766642,-1.50992 0.546484,1.93194 0.954688,2.50234 1.116398,3.47564 0.346363,2.09357 l -0.392546,-0.70042 0.153938,0.67733 0.153941,0.67733 -0.254,0 c -0.488188,0 -3.186275,-2.22406 -7.065801,-5.81889 -3.745512,-3.44464 -4.835943,-4.60278 -0.723513,-0.20782 1.771662,1.89337 3.905259,4.2617 4.741323,5.26471 l 1.523994,1.82418 0,0.36176 0,0.36175 -0.55418,-0.14624 -0.55418,-0.13854 0.615755,0.47721 c 0.864309,0.66994 0.538652,0.60671 -2.00890303,-0.37715 -1.22768397,-0.47414 -2.30574697,-0.8603 -2.39375297,-0.85437 -0.088,0.006 0.954422,0.56003 2.30908597,1.23152 l 2.46302503,1.22381 -0.738906,-0.13854 -0.738909,-0.13855 0.492605,0.36946 0.492605,0.36175 -0.700422,0.26939 -0.692726,0.2617 -4.479626,0.32327 -4.471928,0.32328 2.463025,0.16933 c 4.195987,0.29119 7.230017,0.6118 7.535314,0.80048 l 0.292484,0.18473 -0.469514,0.36175 -0.461817,0.36176 0.692726,-0.16164 0.700422,-0.16933 -0.138546,0.22321 c -0.07455,0.12063 -0.969995,0.58514 -1.993511,1.0314 -2.318588,0.99489 -2.048078,1.08422 -0.115454,0.39254 0.875566,-0.3151 1.87036,-0.65134 2.209027,-0.74661 l 0.615755,-0.17703 -0.600363,0.56958 -0.469513,0.4926 c 0.52094,-0.0913 1.377755,-0.60036 1.377755,-0.60036 0.61104,-0.25668 -2.971622,4.00299 -7.081196,8.30501 l -2.586174,2.70933 3.694534,-3.40205 c 3.694863,-3.401 6.355572,-5.57259 6.827197,-5.57259 l 0.246303,0 -0.138545,0.55418 -0.146242,0.55418 0.477209,-0.61576 0.477213,-0.61576 0.0077,0.29249 c 0.003,0.1607 -0.324812,1.15362 -0.731209,2.20902 -0.4064,1.0554 -0.738133,1.97657 -0.731213,2.04739 0.0069,0.0708 0.505791,-0.86667 1.108363,-2.08587 l 1.100664,-2.21672 -0.100062,0.73121 -0.100059,0.7389 0.338667,-0.46181 0.338664,-0.46182 0.254,0.67733 0.261696,0.68503 0.246304,3.10957 c 0.133886,1.71041 0.274904,3.77458 0.315575,4.58738 0.04067,0.8128 0.09475,1.20073 0.123151,0.86206 0.02841,-0.33867 0.162433,-2.25634 0.292484,-4.26411 l 0.230908,-3.65605 0.277089,-1.016 0.2770913,-1.0237 0.377151,0.48491 0.3694535,0.48491 -0.161637,-0.70042 -0.1616335,-0.69273 0.2232085,0.13085 c 0.120628,0.0745 0.577438,0.97769 1.023697,2.00121 0.446261,1.02351 0.851027,1.82751 0.892846,1.78569 0.04182,-0.0418 -0.1852,-0.79467 -0.500304,-1.67024 -0.315101,-0.87556 -0.65134,-1.87036 -0.746604,-2.20902 l -0.169331,-0.61576 0.531089,0.73891 0.523392,0.73891 -0.153938,-0.55418 -0.161637,-0.55418 0.230909,0 c 0.668059,0 3.61786,2.42923 7.920163,6.52701 l 2.586178,2.46303 -3.402054,-3.69454 c -3.401018,-3.69429 -5.572594,-6.35538 -5.572594,-6.8272 l 0,-0.2463 0.55418,0.13854 0.554183,0.13855 -0.615758,-0.47721 c -0.827541,-0.64145 -0.617237,-0.60874 1.639452,0.23091 3.029895,1.12733 3.068134,1.1144 0.454121,-0.20782 l -2.463025,-1.24691 0.738906,0.13855 0.738909,0.13854 -0.484909,-0.35406 -0.484908,-0.36175 2.209024,-0.2617 c 3.731706,-0.34135 5.105476,-0.66962 7.573801,-0.81588 0.03909,-0.0391 -0.842583,-0.21384 -2.709325,-0.30787 -3.335523,-0.16803 -6.456046,-0.5371 -6.711742,-0.79279 -0.07143,-0.0714 0.206251,-0.23003 0.500301,-0.40024 l 0.708118,-0.40794 -1.216118,0.15394 -0.862057,0.0847 0.615756,-0.36176 c 0.338666,-0.20002 1.581494,-0.77678 2.763204,-1.28539 1.18171,-0.50862 2.111553,-0.95954 2.070481,-1.00061 -0.04107,-0.0411 -1.265276,0.37367 -2.72472,0.92364 -2.598669,0.97927 -3.58385,1.14402 -2.193632,0.36945 l 0.700422,-0.38485 -0.677331,0.14625 -0.677333,0.15393 0,-0.20781 c 0.0057,-0.5103 2.733475,-3.76696 5.911261,-7.05811 1.895918,-1.96355 3.448234,-3.64865 3.448234,-3.74071 0,-0.0921 -1.579415,1.3371 -3.509809,3.17114 -2.780643,2.64185 -3.94783,3.74735 -4.695143,4.27181 -0.373657,0.26223 -2.216034,1.84973 -2.478416,2.04739 -0.295609,0.22268 0.26123,-1.06721 0.284784,-1.2777 0,0 -0.626008,0.61166 -0.754301,0.73121 l -0.708118,0.65424 0.17703,-0.61575 c 0.0939,-0.33867 0.595966,-1.71569 1.116059,-3.06339 0.52009,-1.34769 0.915518,-2.48654 0.877451,-2.5246 -0.03806,-0.0381 -0.659663,1.26353 -1.377755,2.88636 -0.718089,1.62282 -1.3608465,2.94793 -1.4239345,2.94793 -0.06309,0 -0.0378,-0.36022 0.05388,-0.80048 l 0.1693325,-0.80049 -0.3617575,0.47721 -0.6234523,0.53109 -0.123153,-0.88514 c -0.03944,-0.27843 -0.120715,-0.47691 -0.192422,-1.49321 l -0.12315,-1.74721 -0.123154,-1.90885 -0.06927,-1.2546 -0.13085,-3.09417 z m -0.153938,9.02082 0.05388,1.32388 0.03079,0.53878 0.05388,0.81588 0.04618,0.74661 c 0.01132,0.15877 0.02718,0.23164 0.03849,0.31557 0.281661,0.0286 0.553271,0.0949 0.80818,0.19243 0.07729,-0.1661 0.1509863,-0.30394 0.2386053,-0.50031 0.309166,-0.69287 0.5685725,-1.24775 0.5849675,-1.23151 0.0164,0.0163 -0.1532435,0.50218 -0.3771505,1.07757 -0.100389,0.25798 -0.194931,0.50903 -0.277089,0.73122 0.244718,0.11075 0.47828,0.24917 0.6850265,0.41563 0.25687,-0.21425 0.525512,-0.4375 0.615756,-0.5003 0.321826,-0.22396 0.819192,-0.69613 2.016602,-1.82418 0.831274,-0.78312 1.516281,-1.39396 1.516301,-1.35466 6e-6,0.0393 -0.669098,0.76255 -1.485514,1.60096 -0.947772,0.97331 -1.795506,1.92719 -2.232115,2.50151 0.167451,0.1974 0.307868,0.41195 0.423333,0.64655 0.150281,-0.0513 0.291358,-0.097 0.484909,-0.16934 0.628523,-0.23489 1.15993,-0.41007 1.177631,-0.39254 0.0177,0.0175 -0.383935,0.20612 -0.892846,0.42333 -0.241272,0.10298 -0.483805,0.21176 -0.692726,0.30788 0.04107,0.0977 0.08419,0.19779 0.115454,0.30018 l 0.01541,0 -0.01541,0.008 c 0.04611,0.15235 0.07726,0.30842 0.100062,0.46952 0.545815,0.0799 1.377781,0.15491 2.285995,0.20012 0.803983,0.04 1.186775,0.11416 1.169935,0.13085 -1.063061,0.0626 -1.65634,0.20808 -3.263505,0.35406 l -0.177033,0.0231 c -0.02009,0.24506 -0.05808,0.48207 -0.130846,0.70812 l 0.200121,0.10006 c 1.125903,0.56432 1.112579,0.56576 -0.192425,0.0847 -0.02939,-0.0108 -0.04148,-0.0129 -0.06927,-0.0231 -0.107299,0.27978 -0.253078,0.54236 -0.43103,0.7774 0.40925,0.52189 1.094249,1.30379 1.978115,2.2552 l 1.462423,1.57788 -1.108363,-1.05448 c -1.164512,-1.09914 -2.096943,-1.91457 -2.701629,-2.37066 -0.226602,0.21074 -0.4887585,0.38588 -0.7696965,0.52339 0.01569,0.0439 0.02283,0.0647 0.03849,0.10776 0.135766,0.37377 0.22582,0.69796 0.207817,0.71581 -0.01801,0.0179 -0.184886,-0.32506 -0.37715,-0.762 -0.3022523,0.13104 -0.6273783,0.21562 -0.9698183,0.24631 l -0.09236,1.45472 c -0.05588,0.85717 -0.110939,1.67959 -0.123151,1.82418 -0.01222,0.14458 -0.03631,-0.0225 -0.05388,-0.36946 -0.01758,-0.347 -0.08077,-1.23251 -0.138546,-1.96272 l -0.06927,-0.93903 c -0.33773,-0.0203 -0.661154,-0.0897 -0.962118,-0.20781 -0.247066,0.49373 -0.45124,0.87583 -0.454121,0.84666 -0.003,-0.0302 0.140614,-0.42685 0.315575,-0.87745 0.0032,-0.008 0.0045,-0.0147 0.0077,-0.0231 -0.268476,-0.11948 -0.516086,-0.27599 -0.738909,-0.46181 -0.493711,0.47088 -1.21714,1.20097 -2.178237,2.07817 l -1.593268,1.44703 1.116059,-1.15454 c 0.929194,-0.96452 1.7554,-1.97937 2.301387,-2.71703 -0.23291,-0.26602 -0.420266,-0.57477 -0.55418,-0.90824 -0.06505,0.0227 -0.09788,0.0311 -0.161637,0.0539 -0.832308,0.29542 -0.944638,0.25556 0.05388,-0.16933 0.02354,-0.0102 0.03838,-0.0206 0.06157,-0.0308 -0.09546,-0.2756 -0.161561,-0.56551 -0.177027,-0.86975 -0.578378,-0.0694 -1.448322,-0.14829 -2.539995,-0.22322 l -1.06218,-0.077 1.931936,-0.13084 1.693328,-0.12315 c 0.03642,-0.29362 0.112028,-0.57599 0.223212,-0.83897 8.47e-4,-0.002 -8.47e-4,-0.006 0,-0.008 l -0.238605,-0.11545 c -0.583477,-0.28659 -1.030811,-0.52086 -0.992908,-0.52339 0.0379,-0.003 0.502615,0.15942 1.031392,0.36175 0.120726,0.0462 0.186682,0.071 0.284788,0.10776 0.128524,-0.25776 0.286331,-0.49629 0.477209,-0.70812 l -0.346363,-0.40794 c -0.360143,-0.42815 -1.276539,-1.4393 -2.03969,-2.24751 -1.771447,-1.87604 -1.305481,-1.37798 0.307879,0.0924 1.106458,1.01599 1.984626,1.76553 2.516903,2.16284 0.212827,-0.16183 0.442516,-0.30366 0.692726,-0.40794 -0.04901,-0.13923 -0.09365,-0.26986 -0.161637,-0.44642 -0.565768,-1.46933 -0.616069,-1.63047 -0.238605,-0.82358 0.161363,0.34494 0.407602,0.85594 0.584968,1.20842 0.261179,-0.0903 0.536431,-0.15057 0.823572,-0.16933 l 0.100062,-1.19303 0.09236,-1.21611 0.115454,-1.32388 z"
         style="fill:#ffffff;fill-opacity:1" />
    </g>
    <path
       style="fill:#000000;fill-opacity:1"
       d="m 58.690526,431.32345 3.02507,11.90625 -7.866943,-8.37847 5.485693,10.60979 -10.318749,-5.97076 8.889998,5.87375 -10.230553,-1.88736 9.48972,4.68312 -11.668123,-0.0706 12.576526,0.8202 -10.512776,4.93889 12.100276,-1.99319 -0.749653,1.37583 -8.38729,7.54063 7.584721,-6.04132 -4.198054,7.76993 6.905623,-7.09965 -3.457222,10.40694 4.639028,-11.62403 0.211667,-0.22048 1.472847,11.73868 1.843264,-12.065 0.123472,0.12347 -0.855486,-2.23132 c -0.234086,0.0764 -0.475863,0.12736 -0.732014,0.14111 l -0.582083,2.82222 -0.202847,-2.88396 c -0.187927,-0.0416 -0.365828,-0.10008 -0.537987,-0.17638 l -1.375833,2.98097 1.199445,-3.06917 c -0.05121,-0.0272 -0.100616,-0.0581 -0.149931,-0.0882 l -2.143125,1.99319 1.525764,-2.4959 c -0.117345,-0.12634 -0.224133,-0.25985 -0.3175,-0.4057 l -1.27882,0.52917 c 0.63447,-0.4677 0.921024,-0.68646 1.11125,-0.82903 -0.04093,-0.0846 -0.07319,-0.17558 -0.105833,-0.26458 l -0.829028,0.13229 -2.081389,0.3175 2.742847,-1.11125 c -0.01168,-0.10545 -0.0088,-0.21775 -0.0088,-0.32632 0,-0.0452 -0.002,-0.0876 0,-0.13229 l -3.316111,-0.38806 3.33375,0.19403 c 0.0097,-0.0847 0.01846,-0.17351 0.03528,-0.25576 5.64e-4,-0.003 -5.65e-4,-0.006 0,-0.009 l -2.557639,-1.43757 2.839861,0.68792 c 0.03485,-0.0657 0.06618,-0.13151 0.105833,-0.19403 l -2.425347,-1.79917 2.531181,1.64924 c 0.112827,-0.15536 0.238297,-0.30238 0.379236,-0.43216 l -1.208264,-2.68111 1.878542,2.2225 c 0.1369,-0.0683 0.275099,-0.13028 0.423333,-0.17639 l -0.617361,-3.13972 0.802569,3.09563 c 0.111487,-0.0266 0.227861,-0.0485 0.343959,-0.0617 l 0.564444,-2.82222 0.229306,2.83986 c 0.152533,0.0248 0.297471,0.0581 0.440972,0.10583 l 0.987778,-2.92805 -0.811389,2.99861 c 0.120136,0.049 0.241385,0.10342 0.352778,0.16757 l 2.099028,-1.905 -1.481667,2.38125 c 0.132382,0.13469 0.248748,0.29126 0.352778,0.44979 l 2.681111,-1.49931 -2.584097,1.64924 c 0.05315,0.0929 0.09838,0.18316 0.141111,0.28222 l 2.813403,-0.32632 -2.610556,1.07598 c 0.01739,0.12799 0.03528,0.25528 0.03528,0.38805 0,0.003 8e-6,0.006 0,0.009 l 3.316111,0.0353 -3.324931,0.16757 c -0.01197,0.16718 -0.0401,0.32699 -0.07938,0.48507 l 2.425348,1.38465 -2.70757,-0.67028 c -0.105729,0.1878 -0.235636,0.36166 -0.379236,0.52035 l 2.293056,2.11667 -2.416528,-1.98438 c -0.04805,0.0468 -0.09871,0.0889 -0.149931,0.13229 l 1.199445,2.60174 -1.860903,-2.1784 c -0.03809,0.0175 -0.07569,0.0371 -0.114653,0.0529 l 0.749653,2.39889 0.282222,0.29104 5.212292,11.74751 -3.862917,-10.33639 6.544029,6.88798 -4.61257,-8.76653 8.58132,6.31473 -9.348612,-7.77875 -0.229305,-0.43216 11.632848,2.23132 -9.842501,-4.93889 12.417779,-1.28764 -12.779376,0.56445 10.32757,-4.94771 -10.433404,1.79917 9.084029,-6.51757 -10.592154,6.68514 5.750279,-10.41577 -7.443612,7.52299 2.354792,-11.00667 -3.307292,11.96799 -0.05292,0.0529 -1.578681,-11.81805 -1.569861,10.88319 -3.580695,-11.24479 z"
       id="path3861-0"
       inkscape:connector-curvature="0" />
    <g
       id="g3919"
       transform="matrix(6.3918956,0,0,6.3918956,-504.53945,-2318.0377)">
      <g
         transform="translate(133.54719,29.706356)"
         id="g3911">
        <path
           id="rect4122"
           d="m -39.701308,403.15794 c -0.444402,0 -0.802169,0.35776 -0.802169,0.80217 l 0,1.57463 0.17826,0 0,-1.57463 c 0,-0.34565 0.278261,-0.62391 0.623909,-0.62391 0.345648,0 0.623909,0.27826 0.623909,0.62391 l 0,1.57463 0.17826,0 0,-1.57463 c 0,-0.44441 -0.357767,-0.80217 -0.802169,-0.80217 z"
           style="fill:#ef9292;fill-opacity:1;stroke:none"
           inkscape:connector-curvature="0" />
        <rect
           transform="scale(1,-1)"
           y="-405.80667"
           x="-40.711449"
           height="1.1883988"
           width="2.0202785"
           id="rect4118"
           style="fill:#dd1d08;fill-opacity:1;stroke:none" />
      </g>
    </g>
    <g
       id="g3803"
       transform="matrix(0.71896856,0,0,0.71896856,-8.5585938,113.95222)">
      <path
         sodipodi:type="arc"
         style="fill:#dd1d08;fill-opacity:1;fill-rule:evenodd"
         id="path5471"
         sodipodi:cx="-241.20715"
         sodipodi:cy="186.20636"
         sodipodi:rx="23.282543"
         sodipodi:ry="23.282543"
         d="m -217.92461,186.20636 c 0,12.85859 -10.42395,23.28254 -23.28254,23.28254 -12.8586,0 -23.28255,-10.42395 -23.28255,-23.28254 0,-12.85859 10.42395,-23.28254 23.28255,-23.28254 12.85859,0 23.28254,10.42395 23.28254,23.28254 z"
         transform="matrix(0.09489021,0,0,0.09489021,-8.7883394,386.63072)" />
      <path
         sodipodi:nodetypes="cccccccccccccccccccc"
         inkscape:connector-curvature="0"
         id="path4135"
         d="m -31.675095,402.6545 c -0.386827,-9.9e-4 -0.739555,0.35051 -0.739976,0.73733 -0.0046,0.28769 0.230995,0.57005 0.493916,0.68681 l -0.0219,1.86575 0.524292,9.6e-4 c 0.06501,-0.12083 0.145639,-0.24502 0.169738,-0.27754 l 9.42e-4,-0.32353 -0.275377,-5.3e-4 3.29e-4,-0.21588 0.275379,5.4e-4 2.31e-4,-0.20048 -0.275368,-4e-4 3.62e-4,-0.20045 0.275379,5.2e-4 5.72e-4,-0.33924 -0.275379,-5.2e-4 -0.0023,-0.27672 c 0.402123,-0.0828 0.589943,-0.42906 0.586266,-0.71674 9.5e-4,-0.38684 -0.35052,-0.73956 -0.737365,-0.73996 z"
         style="fill:#680f0f;fill-opacity:1;stroke:none" />
    </g>
  </g>
</svg>
