<?xml version="1.0" encoding="UTF-8" standalone="no"?>
<!-- Created using Karbon, part of Calligra: http://www.calligra.org/karbon -->

<svg
   xmlns:dc="http://purl.org/dc/elements/1.1/"
   xmlns:cc="http://creativecommons.org/ns#"
   xmlns:rdf="http://www.w3.org/1999/02/22-rdf-syntax-ns#"
   xmlns:svg="http://www.w3.org/2000/svg"
   xmlns="http://www.w3.org/2000/svg"
   xmlns:sodipodi="http://sodipodi.sourceforge.net/DTD/sodipodi-0.dtd"
   xmlns:inkscape="http://www.inkscape.org/namespaces/inkscape"
   width="38.4pt"
   height="38.4pt"
   id="svg2"
   version="1.1"
   inkscape:version="0.48.5 r10040"
   sodipodi:docname="wickr.svg">
  <metadata
     id="metadata16">
    <rdf:RDF>
      <cc:Work
         rdf:about="">
        <dc:format>image/svg+xml</dc:format>
        <dc:type
           rdf:resource="http://purl.org/dc/dcmitype/StillImage" />
        <dc:title />
      </cc:Work>
    </rdf:RDF>
  </metadata>
  <sodipodi:namedview
     pagecolor="#ffffff"
     bordercolor="#666666"
     borderopacity="1"
     objecttolerance="10"
     gridtolerance="10"
     guidetolerance="10"
     inkscape:pageopacity="0"
     inkscape:pageshadow="2"
     inkscape:window-width="1535"
     inkscape:window-height="876"
     id="namedview14"
     showgrid="false"
     inkscape:showpageshadow="false"
     borderlayer="true"
     inkscape:zoom="6.1753835"
     inkscape:cx="32.566824"
     inkscape:cy="11.125313"
     inkscape:window-x="65"
     inkscape:window-y="24"
     inkscape:window-maximized="1"
     inkscape:current-layer="svg2">
    <sodipodi:guide
       position="9.5367432e-07,48.000001"
       orientation="47.999999,0"
       id="guide4074" />
    <sodipodi:guide
       position="9.5367432e-07,1.9073486e-06"
       orientation="0,47.999999"
       id="guide4076" />
    <sodipodi:guide
       position="48,1.9073486e-06"
       orientation="-47.999999,0"
       id="guide4078" />
    <sodipodi:guide
       position="48,48.000001"
       orientation="0,-47.999999"
       id="guide4080" />
    <sodipodi:guide
       position="4.000001,44.000001"
       orientation="39.999999,0"
       id="guide4082" />
    <sodipodi:guide
       position="4.000001,4.0000019"
       orientation="0,39.999999"
       id="guide4084" />
    <sodipodi:guide
       position="44,4.0000019"
       orientation="-39.999999,0"
       id="guide4086" />
    <sodipodi:guide
       position="44,44.000001"
       orientation="0,-39.999999"
       id="guide4088" />
    <sodipodi:guide
       position="12,26.847458"
       orientation="31.999999,0"
       id="guide4094" />
    <sodipodi:guide
       position="50.135593,12"
       orientation="0,31.999999"
       id="guide4096" />
    <sodipodi:guide
       position="25.923254,36.026491"
       orientation="0,-17.999999"
       id="guide4110" />
    <sodipodi:guide
       position="36,26.288136"
       orientation="-9,0"
       id="guide4124" />
  </sodipodi:namedview>
  <defs
     id="defs4" />
  <g
     id="g3022"
     transform="translate(-50.278638,-48.242012)">
    <path
       inkscape:connector-curvature="0"
       style="fill:#333333;fill-opacity:1;stroke:none"
       d="m 64.296092,54.938957 c -9.595563,5.54 -12.860509,17.724946 -7.320509,27.320508 3.281706,5.684081 8.904171,9.129882 14.928204,9.856406 l -1.5,-2.598076 1.732051,-1 2.15625,3.734734 c 0.385096,-2.7e-5 0.761363,0.0096 1.147275,-0.01286 l -2.4375,-4.221874 1.732051,-1 2.875,4.979646 c 0.346669,-0.05877 0.692802,-0.124701 1.0379,-0.202304 l -3.046875,-5.277342 1.732051,-1 3.296875,5.710355 c 0.321335,-0.108227 0.641658,-0.212076 0.959776,-0.33762 l -3.390625,-5.872735 1.73205,-1 3.484375,6.035114 c 0.295285,-0.151776 0.590865,-0.305053 0.881655,-0.472936 0.22644,-0.130737 0.44253,-0.280659 0.66095,-0.417689 l -0.67658,0.390625 -3.484374,-6.035114 1.732051,-1 3.437503,5.953924 c 0.27568,-0.196946 0.55495,-0.371244 0.81915,-0.581189 l -3.390628,-5.872735 1.732048,-1 3.1875,5.520912 c 0.24828,-0.242694 0.49159,-0.489451 0.7254,-0.74357 l -3.04687,-5.277342 1.73205,-1 2.67187,4.627823 c 0.22028,-0.297406 0.42922,-0.598388 0.63165,-0.905949 l -2.4375,-4.221874 1.73205,-1 1.85938,3.220532 c 2.92357,-5.807596 2.94243,-12.903562 -0.56515,-18.978862 -5.54,-9.595561 -17.724943,-12.860508 -27.320504,-7.320508 z"
       id="path3104" />
    <g
       transform="translate(-16.323719,0.15170881)"
       id="g3008">
      <path
         style="fill:#f1cb6d;fill-opacity:1;stroke:none"
         d="m 109.63855,65.929603 c 0.16625,0.510462 0.31416,1.046145 0.4375,1.5625 -0.12414,-0.519351 -0.26987,-1.04901 -0.4375,-1.5625 z m 0.78125,3.375 c 0.0447,0.313238 0.0642,0.623837 0.0937,0.9375 -0.0293,-0.313992 -0.0493,-0.623944 -0.0937,-0.9375 z m 0.1875,2.375 c 0.0108,0.519669 -0.002,1.045708 -0.0312,1.5625 0.0301,-0.519547 0.0422,-1.040045 0.0312,-1.5625 z m -3.96875,6.15625 -1.75,1 2.4375,4.21875 c 0.42476,-0.646697 0.81157,-1.313027 1.15625,-2 l -1.84375,-3.21875 z m 1.84375,3.21875 c 0.11904,-0.237265 0.23442,-0.477302 0.34375,-0.71875 -0.10994,0.24199 -0.22403,0.480922 -0.34375,0.71875 z m 0.34375,-0.71875 c 0.17481,-0.384778 0.35021,-0.761986 0.5,-1.15625 -0.14787,0.389842 -0.32773,0.775775 -0.5,1.15625 z m -4.78125,-1 -1.75,1 3.0625,5.28125 c 0.48653,-0.52794 0.92157,-1.085438 1.34375,-1.65625 l -2.65625,-4.625 z m -2.59375,1.5 -1.750001,1 3.406251,5.875 c 0.5365,-0.427018 1.0176,-0.903182 1.5,-1.375 l -3.15625,-5.5 z m 3.15625,5.5 0.0312,0.03125 c 0.23772,-0.232371 0.46287,-0.476034 0.6875,-0.71875 -0.22296,0.24085 -0.4826,0.456528 -0.71875,0.6875 z m -5.781251,-4 -1.71875,1 3.500001,6.03125 0.65625,-0.375 c 0.60117,-0.378194 1.17169,-0.789292 1.71875,-1.21875 -0.23202,0.174459 -0.48,0.360684 -0.71875,0.53125 l -3.437501,-5.96875 z m -2.59375,1.5 -1.71875,1 3.375,5.875 c 0.624971,-0.245871 1.234603,-0.53022 1.84375,-0.84375 l -3.5,-6.03125 z m -21.15625,0.84375 c 0.191281,0.236845 0.393384,0.461344 0.59375,0.6875 -0.201013,-0.227143 -0.401859,-0.44964 -0.59375,-0.6875 z m 0.59375,0.6875 c 0.426046,0.480881 0.84839,0.943199 1.312499,1.375 -0.458667,-0.428356 -0.891032,-0.898749 -1.312499,-1.375 z m 17.96875,-0.03125 -1.71875,1 3.03125,5.28125 c 0.663247,-0.149474 1.346377,-0.34244 2,-0.5625 l -3.3125,-5.71875 z m -2.59375,1.5 -1.71875,1 2.4375,4.21875 c 0.722887,-0.04224 1.435454,-0.127604 2.15625,-0.25 l -2.875,-4.96875 z m 2.875,4.96875 0,0.03125 c 0.28422,-0.04818 0.560526,-0.127204 0.84375,-0.1875 -0.283898,0.06109 -0.558833,0.107869 -0.84375,0.15625 z m -16.750001,-4.90625 c 0.407815,0.370221 0.816663,0.730259 1.25,1.0625 -0.432778,-0.333176 -0.842727,-0.691428 -1.25,-1.0625 z m 11.281251,1.4375 -1.75,1 1.5,2.59375 c 0.795351,0.09619 1.600926,0.156567 2.40625,0.15625 l -2.15625,-3.75 z m -0.25,3.59375 c -0.376502,-0.04541 -0.752109,-0.08971 -1.125,-0.15625 0.373371,0.06691 0.747925,0.110645 1.125,0.15625 z m -8.468751,-3.0625 c 0.319096,0.207004 0.639528,0.406013 0.968751,0.59375 -0.331344,-0.188364 -0.647647,-0.385903 -0.968751,-0.59375 z m 1.968751,1.125 c 0.216865,0.107863 0.435913,0.212735 0.65625,0.3125 -0.219457,-0.09895 -0.440219,-0.205544 -0.65625,-0.3125 z m 0.65625,0.3125 c 0.33133,0.149388 0.661552,0.306536 1,0.4375 -0.336748,-0.130955 -0.670347,-0.288238 -1,-0.4375 z m 2.53125,0.9375 c 0.355024,0.105977 0.702144,0.226392 1.0625,0.3125 -0.358475,-0.08565 -0.709255,-0.207271 -1.0625,-0.3125 z"
         id="rect4090-2"
         inkscape:connector-curvature="0" />
      <path
         style="fill:#686868;fill-opacity:1;stroke:none"
         d="m 96.789922,54.665351 2.763245,4.786082 -4.330127,2.5 0.5,0.866025 4.33013,-2.5 0.86602,-0.5 -0.5,-0.866025 -2.763243,-4.786082 z m -1.468805,1.455955 1.5,2.598076 -2.598077,1.5 0.5,0.866025 3.464102,-2 -0.5,-0.866025 -1.5,-2.598076 z m -2.098077,2.366025 0.5,0.866025 1.732051,-1 -0.5,-0.866025 z m 3,5.196152 0.5,0.866026 0.794985,-0.458985 0.001,0.0017 2.669115,-1.541015 1.49902,2.596385 0.86603,-0.5 -2,-3.464102 -0.866025,0.5 -0.977661,0.564453 -0.754389,0.435547 -0.937067,0.541016 z m 1,1.732051 0.5,0.866025 1.732051,-1 -0.5,-0.866025 z m 1,1.732051 0.5,0.866025 1.73205,-1 -0.499999,-0.866025 z m 1,1.732051 0.5,0.866025 8.64956,-4.993827 -0.5,-0.866026 z m 1,1.73205 0.5,0.866026 7.6196,-4.399177 -0.5,-0.866026 z m 1,1.732051 0.5,0.866026 1.42928,-0.825196 2.81087,1.622482 1.84473,3.19516 0.86772,-0.500977 -0.97657,-1.691456 -1.00097,-1.733742 -1.73588,-1.002727 -0.80856,-0.466865 -1.00067,-0.576963 -1.00134,0.578125 z"
         id="rect3397"
         inkscape:connector-curvature="0"
         sodipodi:nodetypes="cccccccccccccccccccccccccccccccccccccccccccccccccccccccccccccccccccc" />
      <ellipse
         sodipodi:ry="1.0000308"
         sodipodi:rx="1.0006928"
         sodipodi:cy="705.81293"
         sodipodi:cx="214.23593"
         style="fill:none;stroke:none"
         id="ellipse3282-5"
         cx="214.23593"
         cy="705.81293"
         rx="1.0006928"
         ry="1.0000308"
         d="m 215.23662,705.81293 c 0,0.5523 -0.44802,1.00003 -1.00069,1.00003 -0.55267,0 -1.00069,-0.44773 -1.00069,-1.00003 0,-0.5523 0.44802,-1.00003 1.00069,-1.00003 0.55267,0 1.00069,0.44773 1.00069,1.00003 z"
         transform="matrix(0.8660254,-0.5,0.5,0.8660254,-444.10153,-445.71291)" />
      <rect
         style="fill:#d40000;fill-opacity:1;stroke:none"
         id="rect3347"
         width="18"
         height="17.999996"
         x="33.489864"
         y="96.763458"
         transform="matrix(0.8660254,-0.5,0.5,0.8660254,0,0)" />
      <path
         sodipodi:nodetypes="ccccccccccccccccccccccccccccccccccccccccccccccccccccccccccccccccccc"
         inkscape:connector-curvature="0"
         id="path3587"
         d="m 83.804465,88.173859 -4.000001,-6.928203 4.330128,-2.5 -0.5,-0.866025 -4.330128,2.5 -0.866026,0.5 0.5,0.866025 4.000001,6.928203 z m 0.232051,-3.598076 -1.5,-2.598076 2.598076,-1.5 -0.5,-0.866026 -3.464102,2.000001 0.5,0.866025 1.5,2.598076 z m 2.098076,-2.366025 -0.5,-0.866026 -1.732051,1 0.5,0.866026 z m -3,-5.196153 -0.5,-0.866025 -0.794985,0.458985 -0.001,-0.0017 -7.152492,4.129492 -1.499025,-2.596387 -0.866026,0.5 2,3.464101 5.3494,-3.088477 0.977666,-0.564455 0.754386,-0.435545 0.937066,-0.541015 z m -1,-1.732051 -0.5,-0.866025 -6.94246,4.008231 0.5,0.866025 z m -1,-1.73205 -0.5,-0.866026 -1.732052,1 0.5,0.866026 z m -1.000001,-1.732051 -0.5,-0.866026 -5.196152,3 0.5,0.866026 z m -1,-1.732051 -0.5,-0.866025 -7.195495,4.154321 0.5,0.866025 z m -1,-1.732051 -0.5,-0.866025 -1.42928,0.825195 -2.810877,-1.622483 -0.609074,-1.054946 -0.867714,0.500975 c 0.65918,1.141733 0.08271,0.143255 0.741889,1.284989 l 1.735879,1.00273 0.808555,0.46686 1.000667,0.576965 1.001342,-0.578125 z"
         style="fill:#686868;fill-opacity:1;stroke:none" />
      <ellipse
         sodipodi:ry="0.50001532"
         sodipodi:rx="0.50034642"
         sodipodi:cy="731.31274"
         sodipodi:cx="191.73625"
         style="fill:none;stroke:none"
         id="ellipse3591"
         cx="191.73625"
         cy="731.31274"
         rx="0.50034642"
         ry="0.50001532"
         d="m 192.2366,731.31274 c 0,0.27615 -0.22401,0.50002 -0.50035,0.50002 -0.27633,0 -0.50034,-0.22387 -0.50034,-0.50002 0,-0.27615 0.22401,-0.50001 0.50034,-0.50001 0.27634,0 0.50035,0.22386 0.50035,0.50001 z"
         transform="matrix(0.8660254,-0.5,0.5,0.8660254,-444.10153,-445.71291)" />
      <ellipse
         sodipodi:ry="0.50001532"
         sodipodi:rx="0.50034642"
         sodipodi:cy="731.31274"
         sodipodi:cx="194.73625"
         ry="0.50001532"
         rx="0.50034642"
         cy="731.31274"
         cx="194.73625"
         id="ellipse3607"
         style="fill:none;stroke:none"
         d="m 195.2366,731.31274 c 0,0.27615 -0.22401,0.50002 -0.50035,0.50002 -0.27633,0 -0.50034,-0.22387 -0.50034,-0.50002 0,-0.27615 0.22401,-0.50001 0.50034,-0.50001 0.27634,0 0.50035,0.22386 0.50035,0.50001 z"
         transform="matrix(0.8660254,-0.5,0.5,0.8660254,-444.10153,-445.71291)" />
      <ellipse
         sodipodi:ry="0.50001532"
         sodipodi:rx="0.50034642"
         sodipodi:cy="731.31274"
         sodipodi:cx="197.73625"
         style="fill:none;stroke:none"
         id="ellipse3613"
         cx="197.73625"
         cy="731.31274"
         rx="0.50034642"
         ry="0.50001532"
         d="m 198.2366,731.31274 c 0,0.27615 -0.22401,0.50002 -0.50035,0.50002 -0.27633,0 -0.50034,-0.22387 -0.50034,-0.50002 0,-0.27615 0.22401,-0.50001 0.50034,-0.50001 0.27634,0 0.50035,0.22386 0.50035,0.50001 z"
         transform="matrix(0.8660254,-0.5,0.5,0.8660254,-444.10153,-445.71291)" />
      <ellipse
         sodipodi:ry="0.50001532"
         sodipodi:rx="0.50034642"
         sodipodi:cy="731.31274"
         sodipodi:cx="200.73627"
         style="fill:none;stroke:none"
         id="ellipse3630"
         cx="200.73627"
         cy="731.31274"
         rx="0.50034642"
         ry="0.50001532"
         d="m 201.23661,731.31274 c 0,0.27615 -0.22401,0.50002 -0.50034,0.50002 -0.27634,0 -0.50035,-0.22387 -0.50035,-0.50002 0,-0.27615 0.22401,-0.50001 0.50035,-0.50001 0.27633,0 0.50034,0.22386 0.50034,0.50001 z"
         transform="matrix(0.8660254,-0.5,0.5,0.8660254,-444.10153,-445.71291)" />
      <ellipse
         sodipodi:ry="0.50001532"
         sodipodi:rx="0.50034642"
         sodipodi:cy="731.31274"
         sodipodi:cx="209.73628"
         ry="0.50001532"
         rx="0.50034642"
         cy="731.31274"
         cx="209.73628"
         id="ellipse3648"
         style="fill:none;stroke:none"
         d="m 210.23663,731.31274 c 0,0.27615 -0.22401,0.50002 -0.50035,0.50002 -0.27633,0 -0.50034,-0.22387 -0.50034,-0.50002 0,-0.27615 0.22401,-0.50001 0.50034,-0.50001 0.27634,0 0.50035,0.22386 0.50035,0.50001 z"
         transform="matrix(0.8660254,-0.5,0.5,0.8660254,-444.10153,-445.71291)" />
      <ellipse
         sodipodi:ry="0.50001532"
         sodipodi:rx="0.50034642"
         sodipodi:cy="731.31274"
         sodipodi:cx="212.73628"
         ry="0.50001532"
         rx="0.50034642"
         cy="731.31274"
         cx="212.73628"
         id="ellipse3654"
         style="fill:none;stroke:none"
         d="m 213.23663,731.31274 c 0,0.27615 -0.22401,0.50002 -0.50035,0.50002 -0.27633,0 -0.50034,-0.22387 -0.50034,-0.50002 0,-0.27615 0.22401,-0.50001 0.50034,-0.50001 0.27634,0 0.50035,0.22386 0.50035,0.50001 z"
         transform="matrix(0.8660254,-0.5,0.5,0.8660254,-444.10153,-445.71291)" />
    </g>
  </g>
  <path
     style="fill:#ffffff;fill-opacity:1;stroke:none"
     d="m 12.512229,22.731454 2.465019,-1.423179 5.781422,3.704195 -0.391018,-7.270998 6.226331,3.963215 -0.442188,-6.848041 2.442102,-1.409947 0.584935,12.609026 -6.58476,-4.511912 0.610699,7.961038 z"
     id="rect3782"
     inkscape:connector-curvature="0"
     sodipodi:nodetypes="ccccccccccc" />
</svg>
