<?xml version="1.0" encoding="UTF-8" standalone="no"?>
<!-- Created using Karbon, part of Calligra: http://www.calligra.org/karbon -->

<svg
   xmlns:dc="http://purl.org/dc/elements/1.1/"
   xmlns:cc="http://creativecommons.org/ns#"
   xmlns:rdf="http://www.w3.org/1999/02/22-rdf-syntax-ns#"
   xmlns:svg="http://www.w3.org/2000/svg"
   xmlns="http://www.w3.org/2000/svg"
   xmlns:sodipodi="http://sodipodi.sourceforge.net/DTD/sodipodi-0.dtd"
   xmlns:inkscape="http://www.inkscape.org/namespaces/inkscape"
   width="38.4pt"
   height="38.4pt"
   id="svg2"
   version="1.1"
   inkscape:version="0.48.4 r9939"
   sodipodi:docname="audio-gold.svg">
  <metadata
     id="metadata14">
    <rdf:RDF>
      <cc:Work
         rdf:about="">
        <dc:format>image/svg+xml</dc:format>
        <dc:type
           rdf:resource="http://purl.org/dc/dcmitype/StillImage" />
      </cc:Work>
    </rdf:RDF>
  </metadata>
  <sodipodi:namedview
     pagecolor="#ffffff"
     bordercolor="#666666"
     borderopacity="1"
     objecttolerance="10"
     gridtolerance="10"
     guidetolerance="10"
     inkscape:pageopacity="0"
     inkscape:pageshadow="2"
     inkscape:window-width="1535"
     inkscape:window-height="876"
     id="namedview12"
     showgrid="false"
     inkscape:zoom="3.7543233"
     inkscape:cx="20.977211"
     inkscape:cy="11.688958"
     inkscape:window-x="65"
     inkscape:window-y="24"
     inkscape:window-maximized="1"
     inkscape:current-layer="g3789" />
  <defs
     id="defs4" />
  <g
     id="g3789"
     transform="translate(0,0.89908841)">
    <path
       sodipodi:nodetypes="ccccccc"
       d="m 40.884579,28.112113 -2.51816,-0.925525 C 39.592591,20.312568 35.40438,7.7811905 23.217202,7.293202 12.177703,7.8083765 6.9603567,17.547057 8.4093701,26.770857 L 5.7202098,28.449862 C 3.4482973,16.152933 8.0666583,4.1227924 22.708929,3.5369343 40.409175,3.4362416 43.330985,20.279985 40.884579,28.112113 z"
       stroke-miterlimit="2.00000000000"
       id="path3769"
       inkscape:connector-curvature="0"
       style="fill:#f59309;fill-opacity:1;fill-rule:evenodd;stroke:#003bc3;stroke-width:0;stroke-linecap:square;stroke-linejoin:miter;stroke-miterlimit:2" />
    <rect
       id="shape011"
       transform="matrix(0.97377574,-0.22751002,0.19662065,0.98047964,0,0)"
       stroke-miterlimit="2.01260185242"
       width="6.3753614"
       height="18.055202"
       rx="2.5991857"
       ry="2.6581273"
       x="3.0185409"
       y="23.938789"
       style="fill:#f59309;fill-opacity:1;fill-rule:evenodd;stroke:#34495e;stroke-width:0;stroke-linecap:square;stroke-linejoin:miter;stroke-miterlimit:2.01260184999999980" />
    <rect
       style="fill:#f59309;fill-opacity:1;fill-rule:evenodd;stroke:#34495e;stroke-width:0;stroke-linecap:square;stroke-linejoin:miter;stroke-miterlimit:2"
       y="13.504538"
       x="-43.142132"
       ry="2.6581273"
       rx="2.6300991"
       height="18.055202"
       width="6.4511867"
       stroke-miterlimit="2.00000000000"
       transform="matrix(-0.97377574,-0.22751002,-0.19662065,0.98047964,0,0)"
       id="rect3787" />
    <path
       sodipodi:nodetypes="ccccccc"
       id="shape02"
       stroke-miterlimit="2.00000000000"
       d="M 41.402432,28.046855 39.657586,26.416139 C 40.884451,18.864217 35.387827,6.3623513 23.193754,5.8262384 12.148009,6.3922184 5.8521439,16.247751 7.3019772,26.381183 L 5.221968,27.345193 C 2.9487701,13.835568 8.0346358,2.3431696 22.685194,1.6995353 40.395455,1.5889125 43.850223,19.44234 41.402432,28.046855 z"
       inkscape:connector-curvature="0"
       style="fill:#f5b619;fill-opacity:1;fill-rule:evenodd;stroke:#003bc3;stroke-width:0;stroke-linecap:square;stroke-linejoin:miter;stroke-miterlimit:2" />
    <rect
       style="fill:#f5b619;fill-opacity:1;fill-rule:evenodd;stroke:#34495e;stroke-width:0;stroke-linecap:square;stroke-linejoin:miter;stroke-miterlimit:2"
       y="-3.7198637"
       x="-47.501854"
       id="rect3781"
       transform="matrix(-0.80272024,-0.59635578,-0.21075066,0.97753985,0,0)"
       stroke-miterlimit="2.00000000000"
       width="2.5454628"
       height="15.307891"
       rx="1.0377657"
       ry="2.2536619" />
    <rect
       ry="2.2536619"
       rx="1.0377657"
       height="15.307891"
       width="2.5454628"
       stroke-miterlimit="2.00000000000"
       transform="matrix(0.80272024,-0.59635578,0.21075066,0.97753985,0,0)"
       id="rect3767"
       x="3.016293"
       y="26.924011"
       style="fill:#f5b619;fill-opacity:1;fill-rule:evenodd;stroke:#34495e;stroke-width:0;stroke-linecap:square;stroke-linejoin:miter;stroke-miterlimit:2" />
    <path
       sodipodi:nodetypes="ccccccc"
       id="shape02-1"
       stroke-miterlimit="2.00000000000"
       d="M 43.086179,20.689086 41.79554,22.895894 C 40.228108,11.666545 27.219461,2.7622823 22.989756,2.3793261 11.40812,2.9315606 7.1168488,6.9851812 6.0140038,23.122838 L 3.4485443,20.301772 C 4.9032747,4.5775898 16.804045,1.453762 22.811633,1.5791378 29.638649,1.4712016 41.801801,6.643202 43.086179,20.689086 z"
       inkscape:connector-curvature="0"
       style="fill:#f5b619;fill-opacity:1;fill-rule:evenodd;stroke:#003bc3;stroke-width:0;stroke-linecap:square;stroke-linejoin:miter;stroke-miterlimit:2" />
    <path
       d="M 10.908096,37.039625 C 7.3819114,37.785311 3.9782946,35.811221 3.2951893,32.624164 2.6120942,29.437105 4.9066947,26.236951 8.4275491,25.46642"
       stroke-miterlimit="2.00000000000"
       id="path3763"
       inkscape:connector-curvature="0"
       style="fill:#f5b619;fill-opacity:1;fill-rule:evenodd;stroke:#003bc3;stroke-width:0;stroke-linecap:square;stroke-linejoin:miter;stroke-miterlimit:2" />
    <path
       sodipodi:type="arc"
       style="fill:#ff2d0f;fill-opacity:1"
       id="path3785"
       sodipodi:cx="9.9859295"
       sodipodi:cy="31.405735"
       sodipodi:rx="2.2027786"
       sodipodi:ry="2.2027786"
       d="m 12.188708,31.405735 c 0,1.216561 -0.986217,2.202779 -2.2027785,2.202779 -1.216561,0 -2.2027786,-0.986218 -2.2027786,-2.202779 0,-1.216561 0.9862176,-2.202779 2.2027786,-2.202779 1.2165615,0 2.2027785,0.986218 2.2027785,2.202779 z"
       transform="matrix(0.12621134,-0.12508864,0.09611766,0.09698034,-0.25880094,28.459479)" />
    <path
       transform="matrix(0.12621134,-0.12508864,0.09611766,0.09698034,-0.37914882,29.443095)"
       d="m 12.188708,31.405735 c 0,1.216561 -0.986217,2.202779 -2.2027785,2.202779 -1.216561,0 -2.2027786,-0.986218 -2.2027786,-2.202779 0,-1.216561 0.9862176,-2.202779 2.2027786,-2.202779 1.2165615,0 2.2027785,0.986218 2.2027785,2.202779 z"
       sodipodi:ry="2.2027786"
       sodipodi:rx="2.2027786"
       sodipodi:cy="31.405735"
       sodipodi:cx="9.9859295"
       id="path3783"
       style="fill:#4524bb;fill-opacity:1"
       sodipodi:type="arc" />
    <path
       d="m 36.077645,37.292455 c 3.526185,0.745686 6.929801,-1.228404 7.612907,-4.415461 0.683095,-3.187059 -1.611506,-6.387213 -5.13236,-7.157744"
       stroke-miterlimit="2.01260185242"
       id="path3761"
       inkscape:connector-curvature="0"
       style="fill:#f5b619;fill-opacity:1;fill-rule:evenodd;stroke:#003bc3;stroke-width:0;stroke-linecap:square;stroke-linejoin:miter;stroke-miterlimit:2.01260184999999980" />
  </g>
</svg>
